<svg width="261" height="84" viewBox="0 0 261 84" fill="none" xmlns="http://www.w3.org/2000/svg">
<path d="M50.7005 33.832V23.8H44.5405L44.3485 27.432C44.1725 30.696 44.0125 32.696 42.9565 33.832H42.2685V37.384H43.5005L43.5645 35H50.4125L50.4765 37.384H51.7085V33.832H50.7005ZM45.6125 28.008L45.7725 24.968H49.4045V33.832H44.3805C45.2605 32.808 45.4525 30.872 45.6125 28.008ZM59.7475 30.2C59.7475 28.008 58.6275 26.664 56.7075 26.664C54.5635 26.664 53.2355 28.328 53.2355 30.984C53.2355 33.608 54.5795 35.16 56.9635 35.16C57.8595 35.16 58.7075 34.952 59.3955 34.52V33.352C58.6755 33.816 57.8915 34.072 57.0755 34.072C55.4755 34.072 54.5315 33.032 54.4995 31.192H59.6675C59.7155 30.84 59.7475 30.52 59.7475 30.2ZM56.7395 27.736C57.9075 27.736 58.5315 28.568 58.5315 30.136H54.5475C54.7875 28.584 55.5715 27.736 56.7395 27.736ZM66.9457 26.888V30.216H63.1537V26.888H61.9217V35H63.1537V31.352H66.9457V35H68.1777V26.888H66.9457ZM70.9998 35H74.1198C75.8478 35 77.0158 33.96 77.0158 32.28C77.0158 30.6 75.8478 29.576 74.1198 29.576H72.2318V26.888H70.9998V35ZM72.2318 33.96V30.6H73.7358C75.1438 30.6 75.7358 31.096 75.7358 32.28C75.7358 33.448 75.1278 33.96 73.7358 33.96H72.2318ZM78.9842 35H80.2162V28.024H83.5282V26.888H78.9842V35ZM85.3279 35.112H85.5839L89.6959 30.552C89.9679 30.248 90.2239 29.944 90.4799 29.64H90.4959C90.4639 30.296 90.4639 30.872 90.4639 31.496V35H91.6959V26.792H91.4399L87.3279 31.4C87.0559 31.704 86.8159 31.976 86.5599 32.296H86.5439C86.5599 31.832 86.5599 31.352 86.5599 30.888V26.888H85.3279V35.112ZM103.055 26.888V30.216H99.263V26.888H98.031V35H99.263V31.352H103.055V35H104.287V26.888H103.055ZM109.813 26.744C108.965 26.744 108.053 26.92 107.173 27.416V28.6C107.957 28.104 108.853 27.832 109.717 27.832C110.853 27.832 111.429 28.536 111.429 29.544V29.88C111.045 29.816 110.693 29.8 110.293 29.8C108.149 29.8 106.533 30.744 106.533 32.728C106.533 34.232 107.413 35.16 108.885 35.16C110.021 35.16 110.917 34.648 111.477 33.992H111.509L111.589 35H112.661V29.528C112.661 27.832 111.573 26.744 109.813 26.744ZM109.269 34.088C108.277 34.088 107.861 33.528 107.861 32.696C107.861 31.496 108.805 30.808 110.437 30.808C110.789 30.808 111.141 30.84 111.429 30.888V31.912C111.429 33.24 110.405 34.088 109.269 34.088ZM123.29 30.728C123.994 30.392 124.41 29.768 124.41 29.016C124.41 27.656 123.466 26.888 121.77 26.888H118.89V35H121.914C123.658 35 124.746 34.104 124.746 32.696C124.746 31.672 124.25 31 123.29 30.728ZM121.658 27.96C122.634 27.96 123.082 28.312 123.082 29.08C123.082 29.896 122.602 30.312 121.658 30.312H120.138V27.96H121.658ZM121.802 33.912H120.138V31.336H121.802C122.874 31.336 123.418 31.752 123.418 32.584C123.418 33.464 122.874 33.912 121.802 33.912ZM126.781 35.112H127.037L131.149 30.552C131.421 30.248 131.677 29.944 131.933 29.64H131.949C131.917 30.296 131.917 30.872 131.917 31.496V35H133.149V26.792H132.893L128.781 31.4C128.509 31.704 128.269 31.976 128.013 32.296H127.997C128.013 31.832 128.013 31.352 128.013 30.888V26.888H126.781V35.112ZM135.969 38.392H137.201V35C137.201 34.76 137.201 34.568 137.169 34.024H137.201C137.713 34.776 138.577 35.224 139.553 35.224C141.585 35.224 142.881 33.48 142.881 30.92C142.881 28.36 141.585 26.664 139.649 26.664C138.673 26.664 137.857 27.064 137.153 27.896H137.121L137.041 26.888H135.969V38.392ZM139.377 34.152C138.033 34.152 137.201 32.936 137.201 30.984C137.201 28.888 137.985 27.752 139.441 27.752C140.801 27.752 141.601 28.952 141.601 30.968C141.601 32.936 140.801 34.152 139.377 34.152ZM146.25 35H147.482V28.024H149.946V26.888H143.786V28.024H146.25V35ZM156.424 26.888L154.872 31.048C154.68 31.576 154.488 32.12 154.2 33H154.184C153.848 32.04 153.672 31.56 153.48 31.08L151.832 26.888H150.456L153.576 34.6C152.856 36.888 152.232 37.544 151 37.56V38.616C152.952 38.568 153.528 37.992 154.68 34.952L157.752 26.888H156.424ZM161.923 26.744C161.075 26.744 160.163 26.92 159.283 27.416V28.6C160.067 28.104 160.963 27.832 161.827 27.832C162.963 27.832 163.539 28.536 163.539 29.544V29.88C163.155 29.816 162.803 29.8 162.403 29.8C160.259 29.8 158.643 30.744 158.643 32.728C158.643 34.232 159.523 35.16 160.995 35.16C162.131 35.16 163.027 34.648 163.587 33.992H163.619L163.699 35H164.771V29.528C164.771 27.832 163.683 26.744 161.923 26.744ZM161.379 34.088C160.387 34.088 159.971 33.528 159.971 32.696C159.971 31.496 160.915 30.808 162.547 30.808C162.899 30.808 163.251 30.84 163.539 30.888V31.912C163.539 33.24 162.515 34.088 161.379 34.088ZM166.348 35.064C168.476 35.24 169.02 33.528 169.164 30.776L169.308 27.976H172.044V35H173.276V26.888H168.14L167.964 30.168C167.852 32.328 167.676 34.056 166.348 33.928V35.064ZM176.094 35H179.214C180.942 35 182.11 33.96 182.11 32.28C182.11 30.6 180.942 29.576 179.214 29.576H177.326V26.888H176.094V35ZM177.326 33.96V30.6H178.83C180.238 30.6 180.83 31.096 180.83 32.28C180.83 33.448 180.222 33.96 178.83 33.96H177.326ZM189.102 26.888V30.216H185.31V26.888H184.078V35H185.31V31.352H189.102V35H190.334V26.888H189.102ZM197.908 26.888L196.356 31.048C196.164 31.576 195.972 32.12 195.684 33H195.668C195.332 32.04 195.156 31.56 194.964 31.08L193.316 26.888H191.94L195.06 34.6C194.34 36.888 193.716 37.544 192.484 37.56V38.616C194.436 38.568 195.012 37.992 196.164 34.952L199.236 26.888H197.908ZM204.328 35H205.56V26.888H204.328V35ZM207.304 30.664L210.504 26.888H208.952L205.912 30.536V30.84L209.336 35H210.904L207.304 30.664ZM215.11 26.744C214.262 26.744 213.35 26.92 212.47 27.416V28.6C213.254 28.104 214.15 27.832 215.014 27.832C216.15 27.832 216.726 28.536 216.726 29.544V29.88C216.342 29.816 215.99 29.8 215.59 29.8C213.446 29.8 211.83 30.744 211.83 32.728C211.83 34.232 212.71 35.16 214.182 35.16C215.318 35.16 216.214 34.648 216.774 33.992H216.806L216.886 35H217.958V29.528C217.958 27.832 216.87 26.744 215.11 26.744ZM214.566 34.088C213.574 34.088 213.158 33.528 213.158 32.696C213.158 31.496 214.102 30.808 215.734 30.808C216.086 30.808 216.438 30.84 216.726 30.888V31.912C216.726 33.24 215.702 34.088 214.566 34.088ZM220.672 38.392H221.904V35C221.904 34.76 221.904 34.568 221.872 34.024H221.904C222.416 34.776 223.28 35.224 224.256 35.224C226.288 35.224 227.584 33.48 227.584 30.92C227.584 28.36 226.288 26.664 224.352 26.664C223.376 26.664 222.56 27.064 221.856 27.896H221.824L221.744 26.888H220.672V38.392ZM224.08 34.152C222.736 34.152 221.904 32.936 221.904 30.984C221.904 28.888 222.688 27.752 224.144 27.752C225.504 27.752 226.304 28.952 226.304 30.968C226.304 32.936 225.504 34.152 224.08 34.152ZM230.954 35H232.186V28.024H234.65V26.888H228.49V28.024H230.954V35ZM241.127 26.888L239.575 31.048C239.383 31.576 239.191 32.12 238.903 33H238.887C238.551 32.04 238.375 31.56 238.183 31.08L236.535 26.888H235.159L238.279 34.6C237.559 36.888 236.935 37.544 235.703 37.56V38.616C237.655 38.568 238.231 37.992 239.383 34.952L242.455 26.888H241.127Z" fill="#2E2E2E"/>
<path d="M135.116 58.355H134.914L134.768 58.4963L110.595 81.9788V58.855V58.355H110.095H25.92C21.28 58.355 17.8311 58.3545 15.1022 58.1243C12.3794 57.8945 10.419 57.4386 8.74709 56.5533C6.00114 55.0994 3.75553 52.8538 2.30163 50.1079C1.41638 48.4359 0.960463 46.4756 0.730698 43.7528C0.500415 41.0239 0.5 37.575 0.5 32.935V26.7989C0.5 22.1589 0.500415 18.71 0.730698 15.9811C0.960463 13.2583 1.41638 11.2979 2.30163 9.62599C3.75553 6.88005 6.00114 4.63444 8.74709 3.18054C10.419 2.29529 12.3794 1.83937 15.1022 1.6096C17.8311 1.37932 21.28 1.37891 25.92 1.37891H89H235.08C239.72 1.37891 243.169 1.37932 245.898 1.6096C248.621 1.83937 250.581 2.29529 252.253 3.18054C254.999 4.63444 257.244 6.88005 258.698 9.626C259.584 11.2979 260.04 13.2583 260.269 15.9811C260.5 18.71 260.5 22.1589 260.5 26.7989V32.935C260.5 37.575 260.5 41.0239 260.269 43.7528C260.04 46.4756 259.584 48.4359 258.698 50.1079C257.244 52.8538 254.999 55.0994 252.253 56.5533C250.581 57.4386 248.621 57.8945 245.898 58.1243C243.169 58.3545 239.72 58.355 235.08 58.355H135.116Z" stroke="#C6C6C6"/>
<path d="M25.3145 28.6926L27.309 30.6872L33.9576 24.0386" stroke="#52AE30" stroke-linecap="round" stroke-linejoin="round"/>
<path d="M33.2922 29.3573V34.0113C33.2922 34.364 33.1521 34.7022 32.9027 34.9516C32.6534 35.2009 32.3151 35.341 31.9625 35.341H22.6544C22.3018 35.341 21.9635 35.2009 21.7142 34.9516C21.4648 34.7022 21.3247 34.364 21.3247 34.0113V24.7033C21.3247 24.3506 21.4648 24.0124 21.7142 23.763C21.9635 23.5136 22.3018 23.3735 22.6544 23.3735H29.9679" stroke="#52AE30" stroke-linecap="round" stroke-linejoin="round"/>
</svg>
