<svg width="260" height="117" viewBox="0 0 260 117" fill="none" xmlns="http://www.w3.org/2000/svg">
<path d="M62.8112 91.1996H62.6083L62.4628 91.341L38.2896 114.823V91.6996V91.1996H37.7896H25.92C21.28 91.1996 17.8311 91.1992 15.1022 90.9689C12.3794 90.7392 10.419 90.2832 8.74709 89.398C6.00115 87.9441 3.75553 85.6985 2.30163 82.9525C1.41638 81.2806 0.960463 79.3202 0.730698 76.5975C0.500415 73.8686 0.5 70.4196 0.5 65.7796V25.92C0.5 21.28 0.500415 17.8311 0.730698 15.1022C0.960463 12.3794 1.41638 10.419 2.30163 8.74709C3.75553 6.00114 6.00114 3.75553 8.74709 2.30163C10.419 1.41638 12.3794 0.960463 15.1022 0.730698C17.8311 0.500415 21.28 0.5 25.92 0.5H69.6028H233.45C238.09 0.5 241.539 0.500415 244.268 0.730698C246.991 0.960463 248.951 1.41638 250.623 2.30163C253.369 3.75553 255.615 6.00114 257.069 8.74709C257.954 10.419 258.41 12.3794 258.64 15.1022C258.87 17.8311 258.87 21.28 258.87 25.92V65.7797C258.87 70.4197 258.87 73.8686 258.64 76.5975C258.41 79.3202 257.954 81.2806 257.069 82.9525C255.615 85.6985 253.369 87.9441 250.623 89.398C248.951 90.2832 246.991 90.7392 244.268 90.9689C241.539 91.1992 238.09 91.1996 233.45 91.1996H62.8112Z" stroke="#C6C6C6"/>
<path d="M49.424 36.224C52.736 36.224 53.984 33.392 53.984 30.4C53.984 27.376 52.704 24.576 49.424 24.576C46.144 24.576 44.848 27.36 44.848 30.4C44.848 33.392 46.112 36.224 49.424 36.224ZM49.424 35.056C46.976 35.056 46.176 32.624 46.176 30.4C46.176 28.192 46.96 25.744 49.424 25.744C51.872 25.744 52.656 28.176 52.656 30.4C52.656 32.624 51.872 35.056 49.424 35.056ZM56.2361 36H57.4681V28.976H61.1161V36H62.3481V27.888H56.2361V36ZM64.022 36.064C66.15 36.24 66.694 34.528 66.838 31.776L66.982 28.976H69.718V36H70.95V27.888H65.814L65.638 31.168C65.526 33.328 65.35 35.056 64.022 34.928V36.064ZM76.4714 27.744C75.6234 27.744 74.7114 27.92 73.8314 28.416V29.6C74.6154 29.104 75.5114 28.832 76.3754 28.832C77.5114 28.832 78.0874 29.536 78.0874 30.544V30.88C77.7034 30.816 77.3514 30.8 76.9514 30.8C74.8074 30.8 73.1914 31.744 73.1914 33.728C73.1914 35.232 74.0714 36.16 75.5434 36.16C76.6794 36.16 77.5754 35.648 78.1354 34.992H78.1674L78.2474 36H79.3194V30.528C79.3194 28.832 78.2314 27.744 76.4714 27.744ZM75.9274 35.088C74.9354 35.088 74.5194 34.528 74.5194 33.696C74.5194 32.496 75.4634 31.808 77.0954 31.808C77.4474 31.808 77.7994 31.84 78.0874 31.888V32.912C78.0874 34.24 77.0634 35.088 75.9274 35.088ZM83.2055 36H84.4375V29.024H86.9015V27.888H80.7415V29.024H83.2055V36ZM91.1745 27.744C90.3265 27.744 89.4145 27.92 88.5345 28.416V29.6C89.3185 29.104 90.2145 28.832 91.0785 28.832C92.2145 28.832 92.7905 29.536 92.7905 30.544V30.88C92.4065 30.816 92.0545 30.8 91.6545 30.8C89.5105 30.8 87.8945 31.744 87.8945 33.728C87.8945 35.232 88.7745 36.16 90.2465 36.16C91.3825 36.16 92.2785 35.648 92.8385 34.992H92.8705L92.9505 36H94.0225V30.528C94.0225 28.832 92.9345 27.744 91.1745 27.744ZM90.6305 35.088C89.6385 35.088 89.2225 34.528 89.2225 33.696C89.2225 32.496 90.1665 31.808 91.7985 31.808C92.1505 31.808 92.5025 31.84 92.7905 31.888V32.912C92.7905 34.24 91.7665 35.088 90.6305 35.088ZM101.612 36H102.844V29.024H105.308V27.888H99.1478V29.024H101.612V36ZM112.734 31.2C112.734 29.008 111.614 27.664 109.694 27.664C107.55 27.664 106.222 29.328 106.222 31.984C106.222 34.608 107.566 36.16 109.95 36.16C110.846 36.16 111.694 35.952 112.382 35.52V34.352C111.662 34.816 110.878 35.072 110.062 35.072C108.462 35.072 107.518 34.032 107.486 32.192H112.654C112.702 31.84 112.734 31.52 112.734 31.2ZM109.726 28.736C110.894 28.736 111.518 29.568 111.518 31.136H107.534C107.774 29.584 108.558 28.736 109.726 28.736ZM113.663 36.064C115.791 36.24 116.335 34.528 116.479 31.776L116.623 28.976H119.359V36H120.591V27.888H115.455L115.279 31.168C115.167 33.328 114.991 35.056 113.663 34.928V36.064ZM129.312 31.2C129.312 29.008 128.192 27.664 126.272 27.664C124.128 27.664 122.8 29.328 122.8 31.984C122.8 34.608 124.144 36.16 126.528 36.16C127.424 36.16 128.272 35.952 128.96 35.52V34.352C128.24 34.816 127.456 35.072 126.64 35.072C125.04 35.072 124.096 34.032 124.064 32.192H129.232C129.28 31.84 129.312 31.52 129.312 31.2ZM126.304 28.736C127.472 28.736 128.096 29.568 128.096 31.136H124.112C124.352 29.584 125.136 28.736 126.304 28.736ZM140.542 31.968C140.542 30.08 139.726 27.872 136.302 27.712V24.224H135.07V27.712C131.662 27.872 130.83 30.08 130.83 31.968C130.83 33.84 131.662 36.032 135.07 36.224V39.392H136.302V36.224C139.726 36.048 140.542 33.84 140.542 31.968ZM132.142 31.968C132.142 30.656 132.638 28.96 135.07 28.784V35.168C132.638 35.008 132.142 33.264 132.142 31.968ZM136.302 35.168V28.8C138.75 28.96 139.23 30.656 139.23 31.968C139.23 33.264 138.75 35.008 136.302 35.168ZM145.681 36.224C147.841 36.224 149.265 34.528 149.265 31.968C149.265 29.36 147.857 27.664 145.681 27.664C143.505 27.664 142.097 29.36 142.097 31.968C142.097 34.528 143.521 36.224 145.681 36.224ZM145.681 35.136C144.305 35.136 143.377 33.856 143.377 31.968C143.377 30 144.289 28.736 145.681 28.736C147.073 28.736 147.985 30 147.985 31.968C147.985 33.856 147.057 35.136 145.681 35.136ZM156.495 27.888V31.216H152.703V27.888H151.471V36H152.703V32.352H156.495V36H157.727V27.888H156.495ZM163.525 36.224C165.685 36.224 167.109 34.528 167.109 31.968C167.109 29.36 165.701 27.664 163.525 27.664C161.349 27.664 159.941 29.36 159.941 31.968C159.941 34.528 161.365 36.224 163.525 36.224ZM163.525 35.136C162.149 35.136 161.221 33.856 161.221 31.968C161.221 30 162.133 28.736 163.525 28.736C164.917 28.736 165.829 30 165.829 31.968C165.829 33.856 164.901 35.136 163.525 35.136ZM168.386 36H169.634L170.338 32.672C170.482 31.984 170.562 31.312 170.642 30.624H170.674C170.93 31.184 171.17 31.68 171.442 32.208L172.866 35.008H173.25L174.706 32.176C174.978 31.648 175.202 31.136 175.458 30.624H175.49C175.57 31.312 175.666 31.984 175.81 32.672L176.514 36H177.762L176.018 27.824H175.714L173.858 31.472C173.602 31.984 173.346 32.48 173.09 32.976H173.058C172.818 32.496 172.578 32.048 172.322 31.536L170.434 27.824H170.13L168.386 36ZM49.424 68.224C52.736 68.224 53.984 65.392 53.984 62.4C53.984 59.376 52.704 56.576 49.424 56.576C46.144 56.576 44.848 59.36 44.848 62.4C44.848 65.392 46.112 68.224 49.424 68.224ZM49.424 67.056C46.976 67.056 46.176 64.624 46.176 62.4C46.176 60.192 46.96 57.744 49.424 57.744C51.872 57.744 52.656 60.176 52.656 62.4C52.656 64.624 51.872 67.056 49.424 67.056ZM56.2361 68H57.4681V60.976H61.1161V68H62.3481V59.888H56.2361V68ZM64.022 68.064C66.15 68.24 66.694 66.528 66.838 63.776L66.982 60.976H69.718V68H70.95V59.888H65.814L65.638 63.168C65.526 65.328 65.35 67.056 64.022 66.928V68.064ZM76.4714 59.744C75.6234 59.744 74.7114 59.92 73.8314 60.416V61.6C74.6154 61.104 75.5114 60.832 76.3754 60.832C77.5114 60.832 78.0874 61.536 78.0874 62.544V62.88C77.7034 62.816 77.3514 62.8 76.9514 62.8C74.8074 62.8 73.1914 63.744 73.1914 65.728C73.1914 67.232 74.0714 68.16 75.5434 68.16C76.6794 68.16 77.5754 67.648 78.1354 66.992H78.1674L78.2474 68H79.3194V62.528C79.3194 60.832 78.2314 59.744 76.4714 59.744ZM75.9274 67.088C74.9354 67.088 74.5194 66.528 74.5194 65.696C74.5194 64.496 75.4634 63.808 77.0954 63.808C77.4474 63.808 77.7994 63.84 78.0874 63.888V64.912C78.0874 66.24 77.0634 67.088 75.9274 67.088ZM83.2055 68H84.4375V61.024H86.9015V59.888H80.7415V61.024H83.2055V68ZM91.1745 59.744C90.3265 59.744 89.4145 59.92 88.5345 60.416V61.6C89.3185 61.104 90.2145 60.832 91.0785 60.832C92.2145 60.832 92.7905 61.536 92.7905 62.544V62.88C92.4065 62.816 92.0545 62.8 91.6545 62.8C89.5105 62.8 87.8945 63.744 87.8945 65.728C87.8945 67.232 88.7745 68.16 90.2465 68.16C91.3825 68.16 92.2785 67.648 92.8385 66.992H92.8705L92.9505 68H94.0225V62.528C94.0225 60.832 92.9345 59.744 91.1745 59.744ZM90.6305 67.088C89.6385 67.088 89.2225 66.528 89.2225 65.696C89.2225 64.496 90.1665 63.808 91.7985 63.808C92.1505 63.808 92.5025 63.84 92.7905 63.888V64.912C92.7905 66.24 91.7665 67.088 90.6305 67.088ZM100.252 71.392H101.484V68C101.484 67.76 101.484 67.568 101.452 67.024H101.484C101.996 67.776 102.86 68.224 103.836 68.224C105.868 68.224 107.164 66.48 107.164 63.92C107.164 61.36 105.868 59.664 103.932 59.664C102.956 59.664 102.14 60.064 101.436 60.896H101.404L101.324 59.888H100.252V71.392ZM103.66 67.152C102.316 67.152 101.484 65.936 101.484 63.984C101.484 61.888 102.268 60.752 103.724 60.752C105.084 60.752 105.884 61.952 105.884 63.968C105.884 65.936 105.084 67.152 103.66 67.152ZM115.281 63.2C115.281 61.008 114.161 59.664 112.241 59.664C110.097 59.664 108.769 61.328 108.769 63.984C108.769 66.608 110.113 68.16 112.497 68.16C113.393 68.16 114.241 67.952 114.929 67.52V66.352C114.209 66.816 113.425 67.072 112.609 67.072C111.009 67.072 110.065 66.032 110.033 64.192H115.201C115.249 63.84 115.281 63.52 115.281 63.2ZM112.273 60.736C113.441 60.736 114.065 61.568 114.065 63.136H110.081C110.321 61.584 111.105 60.736 112.273 60.736ZM117.455 68H118.687V59.888H117.455V68ZM120.431 63.664L123.631 59.888H122.079L119.039 63.536V63.84L122.463 68H124.031L120.431 63.664ZM129.996 63.728C130.7 63.392 131.116 62.768 131.116 62.016C131.116 60.656 130.172 59.888 128.476 59.888H125.596V68H128.62C130.364 68 131.452 67.104 131.452 65.696C131.452 64.672 130.956 64 129.996 63.728ZM128.364 60.96C129.34 60.96 129.788 61.312 129.788 62.08C129.788 62.896 129.308 63.312 128.364 63.312H126.844V60.96H128.364ZM128.508 66.912H126.844V64.336H128.508C129.58 64.336 130.124 64.752 130.124 65.584C130.124 66.464 129.58 66.912 128.508 66.912ZM133.486 68.112H133.742L137.854 63.552C138.126 63.248 138.382 62.944 138.638 62.64H138.654C138.622 63.296 138.622 63.872 138.622 64.496V68H139.854V59.792H139.598L135.486 64.4C135.214 64.704 134.974 64.976 134.718 65.296H134.702C134.718 64.832 134.718 64.352 134.718 63.888V59.888H133.486V68.112ZM145.506 63.68C146.242 63.36 146.914 62.656 146.914 61.712C146.914 60.368 145.826 59.744 144.45 59.744C143.602 59.744 142.786 59.968 142.162 60.272L142.146 61.424C142.674 61.104 143.474 60.832 144.146 60.832C145.138 60.832 145.618 61.168 145.618 61.904C145.618 62.768 144.898 63.28 143.938 63.28H143.058L143.042 64.336H144.21C145.378 64.336 145.922 64.752 145.922 65.648C145.922 66.64 145.138 67.088 144.13 67.088C143.314 67.088 142.498 66.912 141.89 66.544L141.874 67.728C142.626 68.016 143.33 68.16 144.178 68.16C145.842 68.16 147.234 67.232 147.234 65.712C147.234 64.528 146.514 63.92 145.506 63.68ZM149.283 68.112H149.539L153.651 63.552C153.923 63.248 154.179 62.944 154.435 62.64H154.451C154.419 63.296 154.419 63.872 154.419 64.496V68H155.651V59.792H155.395L151.283 64.4C151.011 64.704 150.771 64.976 150.515 65.296H150.499C150.515 64.832 150.515 64.352 150.515 63.888V59.888H149.283V68.112ZM159.831 68H161.062V61.024H163.527V59.888H157.367V61.024H159.831V68ZM167.799 59.744C166.952 59.744 166.039 59.92 165.16 60.416V61.6C165.944 61.104 166.84 60.832 167.704 60.832C168.84 60.832 169.416 61.536 169.416 62.544V62.88C169.032 62.816 168.68 62.8 168.28 62.8C166.136 62.8 164.52 63.744 164.52 65.728C164.52 67.232 165.4 68.16 166.872 68.16C168.008 68.16 168.904 67.648 169.464 66.992H169.496L169.576 68H170.648V62.528C170.648 60.832 169.56 59.744 167.799 59.744ZM167.256 67.088C166.264 67.088 165.848 66.528 165.848 65.696C165.848 64.496 166.792 63.808 168.424 63.808C168.776 63.808 169.128 63.84 169.416 63.888V64.912C169.416 66.24 168.391 67.088 167.256 67.088ZM172.433 68H173.681L174.385 64.672C174.529 63.984 174.609 63.312 174.689 62.624H174.721C174.977 63.184 175.217 63.68 175.489 64.208L176.913 67.008H177.297L178.753 64.176C179.025 63.648 179.249 63.136 179.505 62.624H179.537C179.617 63.312 179.713 63.984 179.857 64.672L180.561 68H181.809L180.065 59.824H179.761L177.905 63.472C177.649 63.984 177.393 64.48 177.137 64.976H177.105C176.865 64.496 176.625 64.048 176.369 63.536L174.481 59.824H174.177L172.433 68ZM183.705 68.112H183.961L188.073 63.552C188.345 63.248 188.601 62.944 188.857 62.64H188.873C188.841 63.296 188.841 63.872 188.841 64.496V68H190.073V59.792H189.817L185.705 64.4C185.433 64.704 185.193 64.976 184.937 65.296H184.921C184.937 64.832 184.937 64.352 184.937 63.888V59.888H183.705V68.112ZM196.408 68H197.64V59.888H196.408V68ZM199.384 63.664L202.584 59.888H201.032L197.992 63.536V63.84L201.416 68H202.984L199.384 63.664ZM207.19 59.744C206.342 59.744 205.43 59.92 204.55 60.416V61.6C205.334 61.104 206.23 60.832 207.094 60.832C208.23 60.832 208.806 61.536 208.806 62.544V62.88C208.422 62.816 208.07 62.8 207.67 62.8C205.526 62.8 203.91 63.744 203.91 65.728C203.91 67.232 204.79 68.16 206.262 68.16C207.398 68.16 208.294 67.648 208.854 66.992H208.886L208.966 68H210.038V62.528C210.038 60.832 208.95 59.744 207.19 59.744ZM206.646 67.088C205.654 67.088 205.238 66.528 205.238 65.696C205.238 64.496 206.182 63.808 207.814 63.808C208.166 63.808 208.518 63.84 208.806 63.888V64.912C208.806 66.24 207.782 67.088 206.646 67.088ZM212.752 71.392H213.984V68C213.984 67.76 213.984 67.568 213.952 67.024H213.984C214.496 67.776 215.36 68.224 216.336 68.224C218.368 68.224 219.664 66.48 219.664 63.92C219.664 61.36 218.368 59.664 216.432 59.664C215.456 59.664 214.64 60.064 213.936 60.896H213.904L213.824 59.888H212.752V71.392ZM216.16 67.152C214.816 67.152 213.984 65.936 213.984 63.984C213.984 61.888 214.768 60.752 216.224 60.752C217.584 60.752 218.384 61.952 218.384 63.968C218.384 65.936 217.584 67.152 216.16 67.152ZM223.034 68H224.266V61.024H226.73V59.888H220.57V61.024H223.034V68ZM228.455 68H231.575C233.303 68 234.471 66.96 234.471 65.28C234.471 63.6 233.303 62.576 231.575 62.576H229.687V59.888H228.455V68ZM236.439 68H237.671V59.888H236.439V68ZM229.687 66.96V63.6H231.191C232.599 63.6 233.191 64.096 233.191 65.28C233.191 66.448 232.583 66.96 231.191 66.96H229.687Z" fill="black"/>
<path d="M25.2935 62.4848L27.288 64.4794L33.9366 57.8308" stroke="#52AE30" stroke-linecap="round" stroke-linejoin="round"/>
<path d="M33.2712 63.1495V67.8035C33.2712 68.1562 33.1311 68.4944 32.8817 68.7438C32.6324 68.9932 32.2941 69.1333 31.9415 69.1333H22.6334C22.2808 69.1333 21.9425 68.9932 21.6932 68.7438C21.4438 68.4944 21.3037 68.1562 21.3037 67.8035V58.4955C21.3037 58.1428 21.4438 57.8046 21.6932 57.5552C21.9425 57.3059 22.2808 57.1658 22.6334 57.1658H29.9469" stroke="#52AE30" stroke-linecap="round" stroke-linejoin="round"/>
<path d="M25.2935 28.3191L27.288 30.3136L33.9366 23.665" stroke="#52AE30" stroke-linecap="round" stroke-linejoin="round"/>
<path d="M33.2712 28.9837V33.6378C33.2712 33.9904 33.1311 34.3287 32.8817 34.578C32.6324 34.8274 32.2941 34.9675 31.9415 34.9675H22.6334C22.2808 34.9675 21.9425 34.8274 21.6932 34.578C21.4438 34.3287 21.3037 33.9904 21.3037 33.6378V24.3297C21.3037 23.9771 21.4438 23.6388 21.6932 23.3895C21.9425 23.1401 22.2808 23 22.6334 23H29.9469" stroke="#52AE30" stroke-linecap="round" stroke-linejoin="round"/>
</svg>
