<svg width="215" height="83" viewBox="0 0 215 83" fill="none" xmlns="http://www.w3.org/2000/svg">
<path d="M151.559 57.1996H151.762L151.908 57.341L176.081 80.8235V57.6996V57.1996H176.581H188.451C193.091 57.1996 196.54 57.1992 199.268 56.9689C201.991 56.7392 203.952 56.2832 205.624 55.398C208.369 53.9441 210.615 51.6985 212.069 48.9525C212.954 47.2806 213.41 45.3202 213.64 42.5975C213.87 39.8686 213.871 36.4196 213.871 31.7796V25.92C213.871 21.28 213.87 17.8311 213.64 15.1022C213.41 12.3794 212.954 10.419 212.069 8.74709C210.615 6.00114 208.369 3.75553 205.624 2.30163C203.952 1.41638 201.991 0.960463 199.268 0.730698C196.54 0.500415 193.091 0.5 188.451 0.5H144.768H25.9202C21.2801 0.5 17.8312 0.500415 15.1023 0.730698C12.3795 0.960463 10.4192 1.41638 8.74721 2.30163C6.00127 3.75553 3.75566 6.00115 2.30176 8.74709C1.4165 10.419 0.960587 12.3794 0.73082 15.1022C0.500534 17.8311 0.500122 21.28 0.500122 25.92V31.7796C0.500122 36.4196 0.500534 39.8686 0.73082 42.5975C0.960587 45.3202 1.4165 47.2806 2.30176 48.9525C3.75566 51.6985 6.00127 53.9441 8.74721 55.398C10.4192 56.2832 12.3795 56.7392 15.1023 56.9689C17.8312 57.1992 21.2801 57.1996 25.9201 57.1996H151.559Z" stroke="#C6C6C6"/>
<path d="M49.7278 35.1725C50.5598 35.1725 51.4238 35.0285 52.0958 34.6925V33.4125C51.4398 33.7965 50.6398 33.9565 49.7758 33.9565C47.0878 33.9565 46.3518 31.4765 46.3518 29.4125C46.3518 27.3485 47.1358 24.8845 49.7438 24.8845C50.3998 24.8845 51.2478 24.9805 51.9518 25.2685V24.0205C51.3278 23.7805 50.6558 23.6685 49.7438 23.6685C46.3998 23.6685 45.0238 26.3725 45.0238 29.4125C45.0238 32.4685 46.2558 35.1725 49.7278 35.1725ZM53.6015 35.0125H54.9135L55.8895 29.1405C56.0015 28.4685 56.0815 27.7805 56.1455 27.1085H56.1935C56.4495 27.6685 56.7055 28.2285 56.9775 28.7885L59.2655 33.4605H59.5695L61.8575 28.7565C62.0975 28.2765 62.4175 27.6365 62.6895 27.1085H62.7375C62.8015 27.7965 62.8815 28.4525 62.9935 29.1245L63.9855 35.0125H65.3135L63.3615 23.7165H63.0735L60.3055 29.2845C60.0015 29.9085 59.7135 30.5005 59.4255 31.1245H59.3935C59.1055 30.4845 58.8335 29.9085 58.5455 29.3165L55.8095 23.7165H55.5055L53.6015 35.0125ZM71.6028 35.1725C72.4348 35.1725 73.2988 35.0285 73.9708 34.6925V33.4125C73.3148 33.7965 72.5148 33.9565 71.6508 33.9565C68.9628 33.9565 68.2268 31.4765 68.2268 29.4125C68.2268 27.3485 69.0108 24.8845 71.6188 24.8845C72.2748 24.8845 73.1228 24.9805 73.8268 25.2685V24.0205C73.2028 23.7805 72.5308 23.6685 71.6188 23.6685C68.2748 23.6685 66.8988 26.3725 66.8988 29.4125C66.8988 32.4685 68.1308 35.1725 71.6028 35.1725ZM82.6082 35.1725C83.3282 35.1725 83.9682 35.0605 84.6082 34.7565V33.6045C84.0322 33.9405 83.4082 34.0845 82.7522 34.0845C80.7842 34.0845 80.2402 32.5165 80.2402 30.9645C80.2402 29.2045 81.0082 27.8285 82.8642 27.8285C83.4722 27.8285 84.0482 28.0045 84.4322 28.2445V27.0925C83.8402 26.8045 83.2642 26.7565 82.6722 26.7565C80.0962 26.7565 78.9602 28.7405 78.9602 30.9645C78.9602 33.4605 80.1282 35.1725 82.6082 35.1725ZM90.1775 35.0125H91.4095V27.9885H95.0575V35.0125H96.2895V26.9005H90.1775V35.0125ZM99.0994 38.4045H100.331V35.0125C100.331 34.7725 100.331 34.5805 100.299 34.0365H100.331C100.843 34.7885 101.707 35.2365 102.683 35.2365C104.715 35.2365 106.011 33.4925 106.011 30.9325C106.011 28.3725 104.715 26.6765 102.779 26.6765C101.803 26.6765 100.987 27.0765 100.283 27.9085H100.251L100.171 26.9005H99.0994V38.4045ZM102.507 34.1645C101.163 34.1645 100.331 32.9485 100.331 30.9965C100.331 28.9005 101.115 27.7645 102.571 27.7645C103.931 27.7645 104.731 28.9645 104.731 30.9805C104.731 32.9485 103.931 34.1645 102.507 34.1645ZM114.128 30.2125C114.128 28.0205 113.008 26.6765 111.088 26.6765C108.944 26.6765 107.616 28.3405 107.616 30.9965C107.616 33.6205 108.96 35.1725 111.344 35.1725C112.24 35.1725 113.088 34.9645 113.776 34.5325V33.3645C113.056 33.8285 112.272 34.0845 111.456 34.0845C109.856 34.0845 108.912 33.0445 108.88 31.2045H114.048C114.096 30.8525 114.128 30.5325 114.128 30.2125ZM111.12 27.7485C112.288 27.7485 112.912 28.5805 112.912 30.1485H108.928C109.168 28.5965 109.952 27.7485 111.12 27.7485ZM122.255 33.8925V26.9005H117.135L116.943 30.1965C116.863 31.4285 116.847 32.9645 116.015 33.8925H115.263V37.3965H116.351L116.415 35.0125H122.095L122.159 37.3965H123.247V33.8925H122.255ZM118.303 27.9885H121.023V33.8925H117.455C117.967 33.0445 118.079 31.9405 118.143 30.7885L118.303 27.9885ZM124.213 35.0765C126.341 35.2525 126.885 33.5405 127.029 30.7885L127.173 27.9885H129.909V35.0125H131.141V26.9005H126.005L125.829 30.1805C125.717 32.3405 125.541 34.0685 124.213 33.9405V35.0765ZM136.935 35.2365C139.095 35.2365 140.519 33.5405 140.519 30.9805C140.519 28.3725 139.111 26.6765 136.935 26.6765C134.759 26.6765 133.351 28.3725 133.351 30.9805C133.351 33.5405 134.775 35.2365 136.935 35.2365ZM136.935 34.1485C135.559 34.1485 134.631 32.8685 134.631 30.9805C134.631 29.0125 135.543 27.7485 136.935 27.7485C138.327 27.7485 139.239 29.0125 139.239 30.9805C139.239 32.8685 138.311 34.1485 136.935 34.1485ZM141.226 35.0125H142.778L145.882 30.7725V30.4685L143.13 26.9005H141.626L144.538 30.6285L141.226 35.0125ZM146.234 35.0125H147.466V26.9005H146.234V35.0125ZM150.922 35.0125H152.474L149.146 30.6285L152.074 26.9005H150.57L147.818 30.4685V30.7725L150.922 35.0125ZM159.691 30.2125C159.691 28.0205 158.571 26.6765 156.651 26.6765C154.507 26.6765 153.179 28.3405 153.179 30.9965C153.179 33.6205 154.523 35.1725 156.907 35.1725C157.803 35.1725 158.651 34.9645 159.339 34.5325V33.3645C158.619 33.8285 157.835 34.0845 157.019 34.0845C155.419 34.0845 154.475 33.0445 154.443 31.2045H159.611C159.659 30.8525 159.691 30.5325 159.691 30.2125ZM156.683 27.7485C157.851 27.7485 158.475 28.5805 158.475 30.1485H154.491C154.731 28.5965 155.515 27.7485 156.683 27.7485ZM166.889 26.9005V30.2285H163.097V26.9005H161.865V35.0125H163.097V31.3645H166.889V35.0125H168.121V26.9005H166.889ZM170.943 35.1245H171.199L175.311 30.5645C175.583 30.2605 175.839 29.9565 176.095 29.6525H176.111C176.079 30.3085 176.079 30.8845 176.079 31.5085V35.0125H177.311V26.8045H177.055L172.943 31.4125C172.671 31.7165 172.431 31.9885 172.175 32.3085H172.159C172.175 31.8445 172.175 31.3645 172.175 30.9005V26.9005H170.943V35.1245ZM186.035 30.2125C186.035 28.0205 184.915 26.6765 182.995 26.6765C180.851 26.6765 179.523 28.3405 179.523 30.9965C179.523 33.6205 180.867 35.1725 183.251 35.1725C184.147 35.1725 184.995 34.9645 185.683 34.5325V33.3645C184.963 33.8285 184.179 34.0845 183.363 34.0845C181.763 34.0845 180.819 33.0445 180.787 31.2045H185.955C186.003 30.8525 186.035 30.5325 186.035 30.2125ZM183.027 27.7485C184.195 27.7485 184.819 28.5805 184.819 30.1485H180.835C181.075 28.5965 181.859 27.7485 183.027 27.7485ZM187.281 35.0125H188.529L189.233 31.6845C189.377 30.9965 189.457 30.3245 189.537 29.6365H189.569C189.825 30.1965 190.065 30.6925 190.337 31.2205L191.761 34.0205H192.145L193.601 31.1885C193.873 30.6605 194.097 30.1485 194.353 29.6365H194.385C194.465 30.3245 194.561 30.9965 194.705 31.6845L195.409 35.0125H196.657L194.913 26.8365H194.609L192.753 30.4845C192.497 30.9965 192.241 31.4925 191.985 31.9885H191.953C191.713 31.5085 191.473 31.0605 191.217 30.5485L189.329 26.8365H189.025L187.281 35.0125Z" fill="black"/>
<path d="M25.2935 28.4848L27.288 30.4794L33.9366 23.8308" stroke="#52AE30" stroke-linecap="round" stroke-linejoin="round"/>
<path d="M33.2712 29.1495V33.8035C33.2712 34.1562 33.1311 34.4944 32.8817 34.7438C32.6324 34.9932 32.2941 35.1333 31.9415 35.1333H22.6334C22.2808 35.1333 21.9425 34.9932 21.6932 34.7438C21.4438 34.4944 21.3037 34.1562 21.3037 33.8035V24.4955C21.3037 24.1428 21.4438 23.8046 21.6932 23.5552C21.9425 23.3059 22.2808 23.1658 22.6334 23.1658H29.9469" stroke="#52AE30" stroke-linecap="round" stroke-linejoin="round"/>
</svg>
