<svg width="178" height="84" viewBox="0 0 178 84" fill="none" xmlns="http://www.w3.org/2000/svg">
<path d="M48.2365 29.032C49.1645 28.6 49.6925 27.752 49.6925 26.648C49.6925 24.824 48.5245 23.8 46.4285 23.8H43.5325V35H46.4605C48.9245 35 50.2205 33.912 50.2205 31.848C50.2205 30.376 49.5165 29.4 48.2365 29.032ZM48.3805 26.744C48.3805 27.88 47.6445 28.52 46.4125 28.52H44.8285V24.968H46.4125C47.7405 24.968 48.3805 25.528 48.3805 26.744ZM46.4765 33.832H44.8285V29.688H46.4605C48.0605 29.688 48.8925 30.376 48.8925 31.768C48.8925 33.208 48.1405 33.832 46.4765 33.832ZM55.1912 30.68C55.9272 30.36 56.5992 29.656 56.5992 28.712C56.5992 27.368 55.5112 26.744 54.1352 26.744C53.2872 26.744 52.4712 26.968 51.8472 27.272L51.8312 28.424C52.3592 28.104 53.1592 27.832 53.8312 27.832C54.8232 27.832 55.3032 28.168 55.3032 28.904C55.3032 29.768 54.5832 30.28 53.6232 30.28H52.7432L52.7272 31.336H53.8952C55.0632 31.336 55.6072 31.752 55.6072 32.648C55.6072 33.64 54.8232 34.088 53.8152 34.088C52.9992 34.088 52.1832 33.912 51.5752 33.544L51.5592 34.728C52.3112 35.016 53.0152 35.16 53.8632 35.16C55.5272 35.16 56.9192 34.232 56.9192 32.712C56.9192 31.528 56.1992 30.92 55.1912 30.68ZM61.4005 26.888C59.8805 26.888 58.5525 27.736 58.5525 29.448C58.5525 30.888 59.4325 31.576 60.4885 31.8L57.9925 35H59.4965L62.1685 31.352V30.936H61.5125C60.5525 30.936 59.8805 30.456 59.8805 29.448C59.8805 28.44 60.5525 27.976 61.5125 27.976H63.0005V35H64.2325V26.888H61.4005ZM68.4067 35H69.6387V28.024H72.1027V26.888H65.9427V28.024H68.4067V35ZM73.8279 35H76.9479C78.6759 35 79.8439 33.96 79.8439 32.28C79.8439 30.6 78.6759 29.576 76.9479 29.576H75.0599V26.888H73.8279V35ZM75.0599 33.96V30.6H76.5639C77.9719 30.6 78.5639 31.096 78.5639 32.28C78.5639 33.448 77.9559 33.96 76.5639 33.96H75.0599ZM88.2429 35.16C88.9629 35.16 89.6029 35.048 90.2429 34.744V33.592C89.6669 33.928 89.0429 34.072 88.3869 34.072C86.4189 34.072 85.8749 32.504 85.8749 30.952C85.8749 29.192 86.6429 27.816 88.4989 27.816C89.1069 27.816 89.6829 27.992 90.0669 28.232V27.08C89.4749 26.792 88.8989 26.744 88.3069 26.744C85.7309 26.744 84.5949 28.728 84.5949 30.952C84.5949 33.448 85.7629 35.16 88.2429 35.16ZM97.1424 26.888L95.5904 31.048C95.3984 31.576 95.2064 32.12 94.9184 33H94.9024C94.5664 32.04 94.3904 31.56 94.1984 31.08L92.5504 26.888H91.1744L94.2944 34.6C93.5744 36.888 92.9504 37.544 91.7184 37.56V38.616C93.6704 38.568 94.2464 37.992 95.3984 34.952L98.4704 26.888H97.1424ZM98.7124 35H99.9604L100.664 31.672C100.808 30.984 100.888 30.312 100.968 29.624H101C101.256 30.184 101.496 30.68 101.768 31.208L103.192 34.008H103.576L105.032 31.176C105.304 30.648 105.528 30.136 105.784 29.624H105.816C105.896 30.312 105.992 30.984 106.136 31.672L106.84 35H108.088L106.344 26.824H106.04L104.184 30.472C103.928 30.984 103.672 31.48 103.416 31.976H103.384C103.144 31.496 102.904 31.048 102.648 30.536L100.76 26.824H100.456L98.7124 35ZM109.056 35H110.304L111.008 31.672C111.152 30.984 111.232 30.312 111.312 29.624H111.344C111.6 30.184 111.84 30.68 112.112 31.208L113.536 34.008H113.92L115.376 31.176C115.648 30.648 115.872 30.136 116.128 29.624H116.16C116.24 30.312 116.336 30.984 116.48 31.672L117.184 35H118.432L116.688 26.824H116.384L114.528 30.472C114.272 30.984 114.016 31.48 113.76 31.976H113.728C113.488 31.496 113.248 31.048 112.992 30.536L111.104 26.824H110.8L109.056 35ZM124.721 26.888L123.169 31.048C122.977 31.576 122.785 32.12 122.497 33H122.481C122.145 32.04 121.969 31.56 121.777 31.08L120.129 26.888H118.753L121.873 34.6C121.153 36.888 120.529 37.544 119.297 37.56V38.616C121.249 38.568 121.825 37.992 122.977 34.952L126.049 26.888H124.721Z" fill="#2E2E2E"/>
<path d="M135.116 58.355H134.914L134.768 58.4963L110.595 81.9788V58.855V58.355H110.095H25.92C21.28 58.355 17.8311 58.3545 15.1022 58.1243C12.3794 57.8945 10.419 57.4386 8.74709 56.5533C6.00114 55.0994 3.75553 52.8538 2.30163 50.1079C1.41638 48.4359 0.960463 46.4756 0.730698 43.7528C0.500415 41.0239 0.5 37.575 0.5 32.935V26.7989C0.5 22.1589 0.500415 18.71 0.730698 15.9811C0.960463 13.2583 1.41638 11.2979 2.30163 9.62599C3.75553 6.88005 6.00114 4.63444 8.74709 3.18054C10.419 2.29529 12.3794 1.83937 15.1022 1.6096C17.8311 1.37932 21.28 1.37891 25.92 1.37891H89H152.08C156.72 1.37891 160.169 1.37932 162.898 1.6096C165.621 1.83937 167.581 2.29529 169.253 3.18054C171.999 4.63444 174.244 6.88005 175.698 9.62599C176.584 11.2979 177.04 13.2583 177.269 15.9811C177.5 18.71 177.5 22.1589 177.5 26.7989V32.935C177.5 37.575 177.5 41.0239 177.269 43.7528C177.04 46.4756 176.584 48.4359 175.698 50.1079C174.244 52.8538 171.999 55.0994 169.253 56.5533C167.581 57.4386 165.621 57.8945 162.898 58.1243C160.169 58.3545 156.72 58.355 152.08 58.355H135.116Z" stroke="#C6C6C6"/>
<path d="M25.3145 28.6926L27.309 30.6872L33.9576 24.0386" stroke="#52AE30" stroke-linecap="round" stroke-linejoin="round"/>
<path d="M33.2922 29.3573V34.0113C33.2922 34.364 33.1521 34.7022 32.9027 34.9516C32.6534 35.2009 32.3151 35.341 31.9625 35.341H22.6544C22.3018 35.341 21.9635 35.2009 21.7142 34.9516C21.4648 34.7022 21.3247 34.364 21.3247 34.0113V24.7033C21.3247 24.3506 21.4648 24.0124 21.7142 23.763C21.9635 23.5136 22.3018 23.3735 22.6544 23.3735H29.9679" stroke="#52AE30" stroke-linecap="round" stroke-linejoin="round"/>
</svg>
