<svg width="28" height="28" viewBox="0 0 28 28" fill="none" xmlns="http://www.w3.org/2000/svg">
<path d="M21 9.3335H22.1667C23.4043 9.3335 24.5913 9.82516 25.4665 10.7003C26.3417 11.5755 26.8333 12.7625 26.8333 14.0002C26.8333 15.2378 26.3417 16.4248 25.4665 17.3C24.5913 18.1752 23.4043 18.6668 22.1667 18.6668H21" stroke="#52AE30" stroke-width="2" stroke-linecap="round" stroke-linejoin="round"/>
<path d="M2.3335 9.3335H21.0002V19.8335C21.0002 21.0712 20.5085 22.2582 19.6333 23.1333C18.7582 24.0085 17.5712 24.5002 16.3335 24.5002H7.00016C5.76249 24.5002 4.5755 24.0085 3.70033 23.1333C2.82516 22.2582 2.3335 21.0712 2.3335 19.8335V9.3335Z" stroke="#52AE30" stroke-width="2" stroke-linecap="round" stroke-linejoin="round"/>
<path d="M7 1.1665V4.6665" stroke="#52AE30" stroke-width="2" stroke-linecap="round" stroke-linejoin="round"/>
<path d="M11.6665 1.1665V4.6665" stroke="#52AE30" stroke-width="2" stroke-linecap="round" stroke-linejoin="round"/>
<path d="M16.3335 1.1665V4.6665" stroke="#52AE30" stroke-width="2" stroke-linecap="round" stroke-linejoin="round"/>
</svg>
