<svg width="24" height="24" viewBox="0 0 24 24" fill="none" xmlns="http://www.w3.org/2000/svg">
<path d="M23.9982 21.8857C23.9982 23.0384 23.0375 23.9982 21.8848 23.9982H2.11152C0.960695 23.9982 0 23.0384 0 21.8857V2.11335C0 0.960695 0.960695 0 2.11152 0H21.8867C23.0384 0 24 0.960695 24 2.11335V21.8857H23.9982ZM17.2486 3.11974C16.3601 2.80804 14.7285 2.76051 13.8172 2.76051C11.1536 2.76051 10.0503 4.77514 10.0503 7.19835V8.80804H8.46618V11.9982H10.0503V20.8062H13.266V11.9982H16.458V8.80804H13.266V6.91225C13.266 6.11974 14.6106 5.71207 15.2331 5.71207C15.7367 5.71207 16.2888 5.80804 16.7697 5.95338L17.2486 3.11974Z" fill="#6E7482"/>
</svg>
