<svg width="28" height="28" viewBox="0 0 28 28" fill="none" xmlns="http://www.w3.org/2000/svg">
<path d="M16.3332 2.3335H6.99984C6.381 2.3335 5.78751 2.57933 5.34992 3.01691C4.91234 3.4545 4.6665 4.04799 4.6665 4.66683V23.3335C4.6665 23.9523 4.91234 24.5458 5.34992 24.9834C5.78751 25.421 6.381 25.6668 6.99984 25.6668H20.9998C21.6187 25.6668 22.2122 25.421 22.6497 24.9834C23.0873 24.5458 23.3332 23.9523 23.3332 23.3335V9.3335L16.3332 2.3335Z" stroke="#52AE30" stroke-width="2" stroke-linecap="round" stroke-linejoin="round"/>
<path d="M16.3335 2.3335V9.3335H23.3335" stroke="#52AE30" stroke-width="2" stroke-linecap="round" stroke-linejoin="round"/>
<path d="M18.6668 15.1665H9.3335" stroke="#52AE30" stroke-width="2" stroke-linecap="round" stroke-linejoin="round"/>
<path d="M18.6668 19.8335H9.3335" stroke="#52AE30" stroke-width="2" stroke-linecap="round" stroke-linejoin="round"/>
<path d="M11.6668 10.5H10.5002H9.3335" stroke="#52AE30" stroke-width="2" stroke-linecap="round" stroke-linejoin="round"/>
</svg>
