<svg width="295" height="323" viewBox="0 0 295 323" fill="none" xmlns="http://www.w3.org/2000/svg">
<path d="M99.472 310.114H100.768V298.914H99.472V310.114ZM106.208 310.114H107.856L103.008 304.178L107.2 298.914H105.632L101.568 304.098V304.402L106.208 310.114ZM108.319 310.178C110.447 310.354 110.991 308.642 111.135 305.89L111.279 303.09H114.015V310.114H115.247V302.002H110.111L109.935 305.282C109.823 307.442 109.647 309.17 108.319 309.042V310.178ZM118.064 310.226H118.32L122.432 305.666C122.704 305.362 122.96 305.058 123.216 304.754H123.232C123.2 305.41 123.2 305.986 123.2 306.61V310.114H124.432V301.906H124.176L120.064 306.514C119.792 306.818 119.552 307.09 119.296 307.41H119.28C119.296 306.946 119.296 306.466 119.296 306.002V302.002H118.064V310.226ZM133.156 305.314C133.156 303.122 132.036 301.778 130.116 301.778C127.972 301.778 126.644 303.442 126.644 306.098C126.644 308.722 127.988 310.274 130.372 310.274C131.268 310.274 132.116 310.066 132.804 309.634V308.466C132.084 308.93 131.3 309.186 130.484 309.186C128.884 309.186 127.94 308.146 127.908 306.306H133.076C133.124 305.954 133.156 305.634 133.156 305.314ZM130.148 302.85C131.316 302.85 131.94 303.682 131.94 305.25H127.956C128.196 303.698 128.98 302.85 130.148 302.85ZM140.354 302.002V305.33H136.562V302.002H135.33V310.114H136.562V306.466H140.354V310.114H141.586V302.002H140.354ZM145.768 310.114H147V303.138H149.464V302.002H143.304V303.138H145.768V310.114ZM157.671 310.338C159.735 310.338 161.159 308.722 161.159 306.354C161.159 303.826 159.975 302.354 157.975 302.354C156.839 302.354 156.023 302.738 155.431 303.57L155.399 303.554C155.607 301.154 156.439 300.146 158.343 299.954C159.159 299.874 159.831 299.73 160.375 299.506V298.21C159.879 298.482 159.287 298.658 158.071 298.786C155.174 299.09 154.183 300.85 154.183 305.618C154.183 308.722 155.367 310.338 157.671 310.338ZM157.671 309.266C156.375 309.266 155.511 308.098 155.511 306.354C155.511 304.61 156.375 303.442 157.671 303.442C158.967 303.442 159.847 304.626 159.847 306.354C159.847 308.082 158.967 309.266 157.671 309.266ZM165.987 301.858C165.139 301.858 164.227 302.034 163.347 302.53V303.714C164.131 303.218 165.027 302.946 165.891 302.946C167.027 302.946 167.603 303.65 167.603 304.658V304.994C167.219 304.93 166.867 304.914 166.467 304.914C164.323 304.914 162.707 305.858 162.707 307.842C162.707 309.346 163.587 310.274 165.059 310.274C166.195 310.274 167.091 309.762 167.651 309.106H167.683L167.763 310.114H168.835V304.642C168.835 302.946 167.747 301.858 165.987 301.858ZM165.443 309.202C164.451 309.202 164.035 308.642 164.035 307.81C164.035 306.61 164.979 305.922 166.611 305.922C166.963 305.922 167.315 305.954 167.603 306.002V307.026C167.603 308.354 166.579 309.202 165.443 309.202ZM176.573 302.002V305.33H172.781V302.002H171.549V310.114H172.781V306.466H176.573V310.114H177.805V302.002H176.573ZM180.627 310.114H181.859V302.002H180.627V310.114ZM183.603 305.778L186.803 302.002H185.251L182.211 305.65V305.954L185.635 310.114H187.203L183.603 305.778ZM191.409 301.858C190.561 301.858 189.649 302.034 188.769 302.53V303.714C189.553 303.218 190.449 302.946 191.313 302.946C192.449 302.946 193.025 303.65 193.025 304.658V304.994C192.641 304.93 192.289 304.914 191.889 304.914C189.745 304.914 188.129 305.858 188.129 307.842C188.129 309.346 189.009 310.274 190.481 310.274C191.617 310.274 192.513 309.762 193.073 309.106H193.105L193.185 310.114H194.257V304.642C194.257 302.946 193.169 301.858 191.409 301.858ZM190.865 309.202C189.873 309.202 189.457 308.642 189.457 307.81C189.457 306.61 190.401 305.922 192.033 305.922C192.385 305.922 192.737 305.954 193.025 306.002V307.026C193.025 308.354 192.001 309.202 190.865 309.202Z" fill="#2E2E2E"/>
<path d="M145.224 224.111L132.251 210.066V207.477C132.251 207.167 132.244 206.858 132.23 206.555C132.027 201.943 129.821 196.09 125.351 193.41C123.318 192.19 119.996 191.171 115.715 193.226C109.318 196.291 105.747 205.608 105.137 212.968C104.86 216.304 105.002 219.929 105.583 224.378C105.695 225.229 107.056 229.693 107.327 230.579C109.01 236.074 109.274 236.935 110.322 236.935C110.469 236.935 110.63 236.917 110.813 236.895L111.901 236.758C111.996 237.826 112.135 238.856 112.337 239.732L111.925 257.395L106.34 270.992C106.177 271.388 106.179 271.833 106.346 272.227C106.511 272.622 106.829 272.933 107.226 273.094L113.601 275.668C113.797 275.747 114.001 275.785 114.202 275.785C114.726 275.785 115.233 275.528 115.539 275.072L125.669 259.958L129.094 274.544C129.264 275.271 129.913 275.785 130.66 275.785H137.473C137.909 275.785 138.325 275.609 138.629 275.296C138.931 274.983 139.095 274.561 139.081 274.126L138.341 250.736C138.336 250.6 138.315 250.465 138.277 250.335L132.251 229.722V226.704C133.535 227.499 134.841 228.292 136.184 229.098C137.441 229.852 138.714 230.617 139.99 231.403C140.252 231.565 140.544 231.642 140.832 231.642C141.354 231.642 141.865 231.388 142.173 230.923L145.382 226.093C145.793 225.476 145.728 224.656 145.224 224.111ZM137.84 226.34C135.91 225.181 134.041 224.056 132.251 222.909V214.809L142.003 225.366L140.351 227.853C139.51 227.342 138.671 226.839 137.84 226.34ZM129.034 224.641V228.284H118.569L118.368 225.698L117.664 216.647C118.707 215.007 119.869 212.82 121.058 210.437C121.878 208.795 122.711 207.063 123.53 205.344C123.912 204.542 123.571 203.582 122.77 203.2C121.968 202.82 121.007 203.16 120.626 203.961C118.552 208.316 116.384 212.781 114.679 215.335C114.479 215.635 114.386 215.993 114.414 216.352L115.711 233.033L114.941 233.131L111.729 233.537L111.647 233.547C110.803 231.042 108.914 224.796 108.773 223.96C108.222 219.745 108.085 216.336 108.342 213.234C108.883 206.717 112.138 198.506 117.105 196.126C118.292 195.557 119.433 195.273 120.522 195.273C121.639 195.273 122.699 195.572 123.697 196.17C126.634 197.929 128.82 202.259 129.016 206.701C129.028 206.959 129.034 207.217 129.034 207.477V210.587V210.676V214.736V220.733V222.686V224.641ZM124.666 255.688L113.594 272.196L109.931 270.717L115.014 258.341C115.089 258.159 115.13 257.965 115.134 257.768L115.451 244.167L124.127 253.394L124.666 255.688ZM135.132 251.041L135.813 272.568H131.934L127.16 252.237C127.095 251.962 126.959 251.71 126.766 251.503L115.654 239.686C115.585 239.524 115.522 239.313 115.463 239.063C115.452 239.03 115.453 238.993 115.441 238.962C115.294 238.303 115.178 237.396 115.094 236.353L117.635 236.033C118.487 235.925 119.104 235.168 119.037 234.312L118.819 231.501H129.42L135.132 251.041Z" fill="#5EC738"/>
<path d="M123.792 188.972C128.227 188.972 131.836 185.364 131.836 180.931C131.836 176.497 128.227 172.889 123.792 172.889C119.358 172.889 115.75 176.497 115.75 180.931C115.75 185.364 119.358 188.972 123.792 188.972ZM123.792 176.106C126.453 176.106 128.619 178.27 128.619 180.931C128.619 183.591 126.453 185.755 123.792 185.755C121.132 185.755 118.968 183.591 118.968 180.931C118.968 178.27 121.132 176.106 123.792 176.106Z" fill="#5EC738"/>
<path d="M184.464 189.96H159.953C157.246 189.96 155.051 192.155 155.051 194.862V234.079C155.051 236.787 157.246 238.982 159.953 238.982H184.464C187.171 238.982 189.366 236.787 189.366 234.079V194.862C189.366 192.155 187.171 189.96 184.464 189.96Z" stroke="#5EC738" stroke-width="3" stroke-linecap="round" stroke-linejoin="round"/>
<path d="M155.402 224.479H189.003" stroke="#5EC738" stroke-width="3"/>
<circle cx="172.203" cy="231.629" r="2.85961" fill="#5EC738"/>
<path d="M151.559 148.2H151.762L151.908 148.341L176.081 171.823V148.7V148.2H176.581H268.451C273.091 148.2 276.54 148.199 279.268 147.969C281.991 147.739 283.952 147.283 285.624 146.398C288.369 144.944 290.615 142.698 292.069 139.953C292.954 138.281 293.41 136.32 293.64 133.597C293.87 130.869 293.871 127.42 293.871 122.78V25.92C293.871 21.28 293.87 17.8311 293.64 15.1022C293.41 12.3794 292.954 10.419 292.069 8.74709C290.615 6.00114 288.369 3.75553 285.624 2.30163C283.952 1.41638 281.991 0.960463 279.268 0.730698C276.54 0.500415 273.091 0.5 268.451 0.5H144.768H25.9201C21.2801 0.5 17.8312 0.500415 15.1023 0.730698C12.3795 0.960463 10.4192 1.41638 8.74722 2.30163C6.00125 3.75553 3.75568 6.00114 2.30176 8.74709C1.4165 10.419 0.960571 12.3794 0.730804 15.1022C0.500549 17.8311 0.500122 21.28 0.500122 25.92V122.78C0.500122 127.42 0.500549 130.869 0.730804 133.597C0.960571 136.32 1.4165 138.281 2.30176 139.953C3.75568 142.698 6.00125 144.944 8.74722 146.398C10.4192 147.283 12.3795 147.739 15.1023 147.969C17.8312 148.199 21.2801 148.2 25.9201 148.2H151.559Z" stroke="#C6C6C6"/>
<path d="M52.5998 39.2365C55.9118 39.2365 57.1598 36.4045 57.1598 33.4125C57.1598 30.3885 55.8798 27.5885 52.5998 27.5885C49.3198 27.5885 48.0238 30.3725 48.0238 33.4125C48.0238 36.4045 49.2878 39.2365 52.5998 39.2365ZM52.5998 38.0685C50.1518 38.0685 49.3518 35.6365 49.3518 33.4125C49.3518 31.2045 50.1358 28.7565 52.5998 28.7565C55.0478 28.7565 55.8318 31.1885 55.8318 33.4125C55.8318 35.6365 55.0478 38.0685 52.5998 38.0685ZM65.1764 37.8925V30.9005H60.0564L59.8644 34.1965C59.7844 35.4285 59.7684 36.9645 58.9364 37.8925H58.1844V41.3965H59.2724L59.3364 39.0125H65.0164L65.0804 41.3965H66.1684V37.8925H65.1764ZM61.2244 31.9885H63.9444V37.8925H60.3764C60.8884 37.0445 61.0004 35.9405 61.0644 34.7885L61.2244 31.9885ZM71.1692 39.2365C73.3292 39.2365 74.7532 37.5405 74.7532 34.9805C74.7532 32.3725 73.3452 30.6765 71.1692 30.6765C68.9932 30.6765 67.5852 32.3725 67.5852 34.9805C67.5852 37.5405 69.0092 39.2365 71.1692 39.2365ZM71.1692 38.1485C69.7932 38.1485 68.8652 36.8685 68.8652 34.9805C68.8652 33.0125 69.7772 31.7485 71.1692 31.7485C72.5612 31.7485 73.4732 33.0125 73.4732 34.9805C73.4732 36.8685 72.5452 38.1485 71.1692 38.1485ZM80.1588 39.2365C82.2228 39.2365 83.6468 37.6205 83.6468 35.2525C83.6468 32.7245 82.4628 31.2525 80.4628 31.2525C79.3268 31.2525 78.5108 31.6365 77.9188 32.4685L77.8868 32.4525C78.0948 30.0525 78.9268 29.0445 80.8308 28.8525C81.6468 28.7725 82.3188 28.6285 82.8628 28.4045V27.1085C82.3668 27.3805 81.7748 27.5565 80.5588 27.6845C77.6628 27.9885 76.6708 29.7485 76.6708 34.5165C76.6708 37.6205 77.8548 39.2365 80.1588 39.2365ZM80.1588 38.1645C78.8628 38.1645 77.9988 36.9965 77.9988 35.2525C77.9988 33.5085 78.8628 32.3405 80.1588 32.3405C81.4548 32.3405 82.3348 33.5245 82.3348 35.2525C82.3348 36.9805 81.4548 38.1645 80.1588 38.1645ZM85.7713 42.4045H87.0033V39.0125C87.0033 38.7725 87.0033 38.5805 86.9713 38.0365H87.0033C87.5153 38.7885 88.3793 39.2365 89.3553 39.2365C91.3873 39.2365 92.6833 37.4925 92.6833 34.9325C92.6833 32.3725 91.3873 30.6765 89.4513 30.6765C88.4753 30.6765 87.6593 31.0765 86.9553 31.9085H86.9233L86.8433 30.9005H85.7713V42.4045ZM89.1793 38.1645C87.8353 38.1645 87.0033 36.9485 87.0033 34.9965C87.0033 32.9005 87.7873 31.7645 89.2433 31.7645C90.6033 31.7645 91.4033 32.9645 91.4033 34.9805C91.4033 36.9485 90.6033 38.1645 89.1793 38.1645ZM100.8 34.2125C100.8 32.0205 99.6803 30.6765 97.7603 30.6765C95.6163 30.6765 94.2883 32.3405 94.2883 34.9965C94.2883 37.6205 95.6323 39.1725 98.0163 39.1725C98.9123 39.1725 99.7603 38.9645 100.448 38.5325V37.3645C99.7283 37.8285 98.9443 38.0845 98.1283 38.0845C96.5283 38.0845 95.5843 37.0445 95.5523 35.2045H100.72C100.768 34.8525 100.8 34.5325 100.8 34.2125ZM97.7923 31.7485C98.9603 31.7485 99.5843 32.5805 99.5843 34.1485H95.6003C95.8403 32.5965 96.6243 31.7485 97.7923 31.7485ZM107.998 30.9005V34.2285H104.206V30.9005H102.974V39.0125H104.206V35.3645H107.998V39.0125H109.23V30.9005H107.998ZM117.077 30.9005V34.2285H113.285V30.9005H112.053V39.0125H113.285V35.3645H117.077V39.0125H118.309V30.9005H117.077ZM121.131 39.0125H124.251C125.979 39.0125 127.147 37.9725 127.147 36.2925C127.147 34.6125 125.979 33.5885 124.251 33.5885H122.363V30.9005H121.131V39.0125ZM129.115 39.0125H130.347V30.9005H129.115V39.0125ZM122.363 37.9725V34.6125H123.867C125.275 34.6125 125.867 35.1085 125.867 36.2925C125.867 37.4605 125.259 37.9725 123.867 37.9725H122.363ZM136.378 29.6685C137.082 29.6685 137.706 29.5245 138.186 29.2205V28.2445C137.562 28.5485 136.938 28.6605 136.378 28.6605C135.818 28.6605 135.194 28.5485 134.57 28.2445V29.2365C135.05 29.5245 135.674 29.6685 136.378 29.6685ZM133.162 39.1245H133.418L137.53 34.5645C137.802 34.2605 138.058 33.9565 138.314 33.6525H138.33C138.298 34.3085 138.298 34.8845 138.298 35.5085V39.0125H139.53V30.8045H139.274L135.162 35.4125C134.89 35.7165 134.65 35.9885 134.394 36.3085H134.378C134.394 35.8445 134.394 35.3645 134.394 34.9005V30.9005H133.162V39.1245ZM144.729 39.0765C146.857 39.2525 147.401 37.5405 147.545 34.7885L147.689 31.9885H150.425V39.0125H151.657V30.9005H146.521L146.345 34.1805C146.233 36.3405 146.057 38.0685 144.729 37.9405V39.0765ZM154.474 39.1245H154.73L158.842 34.5645C159.114 34.2605 159.37 33.9565 159.626 33.6525H159.642C159.61 34.3085 159.61 34.8845 159.61 35.5085V39.0125H160.842V30.8045H160.586L156.474 35.4125C156.202 35.7165 155.962 35.9885 155.706 36.3085H155.69C155.706 35.8445 155.706 35.3645 155.706 34.9005V30.9005H154.474V39.1245ZM162.734 39.0125H163.982L164.686 35.6845C164.83 34.9965 164.91 34.3245 164.99 33.6365H165.022C165.278 34.1965 165.518 34.6925 165.79 35.2205L167.214 38.0205H167.598L169.054 35.1885C169.326 34.6605 169.55 34.1485 169.806 33.6365H169.838C169.918 34.3245 170.014 34.9965 170.158 35.6845L170.862 39.0125H172.11L170.366 30.8365H170.062L168.206 34.4845C167.95 34.9965 167.694 35.4925 167.438 35.9885H167.406C167.166 35.5085 166.926 35.0605 166.67 34.5485L164.782 30.8365H164.478L162.734 39.0125ZM174.006 39.1245H174.262L178.374 34.5645C178.646 34.2605 178.902 33.9565 179.158 33.6525H179.174C179.142 34.3085 179.142 34.8845 179.142 35.5085V39.0125H180.374V30.8045H180.118L176.006 35.4125C175.734 35.7165 175.494 35.9885 175.238 36.3085H175.222C175.238 35.8445 175.238 35.3645 175.238 34.9005V30.9005H174.006V39.1245ZM184.553 39.0125H185.785V32.0365H188.249V30.9005H182.089V32.0365H184.553V39.0125ZM196.232 39.2365C198.392 39.2365 199.816 37.5405 199.816 34.9805C199.816 32.3725 198.408 30.6765 196.232 30.6765C194.056 30.6765 192.648 32.3725 192.648 34.9805C192.648 37.5405 194.072 39.2365 196.232 39.2365ZM196.232 38.1485C194.856 38.1485 193.928 36.8685 193.928 34.9805C193.928 33.0125 194.84 31.7485 196.232 31.7485C197.624 31.7485 198.536 33.0125 198.536 34.9805C198.536 36.8685 197.608 38.1485 196.232 38.1485ZM203.178 39.0125H204.41V32.0365H206.874V30.9005H200.714V32.0365H203.178V39.0125ZM215.081 39.2365C217.145 39.2365 218.569 37.6205 218.569 35.2525C218.569 32.7245 217.385 31.2525 215.385 31.2525C214.249 31.2525 213.433 31.6365 212.841 32.4685L212.809 32.4525C213.017 30.0525 213.849 29.0445 215.753 28.8525C216.569 28.7725 217.241 28.6285 217.785 28.4045V27.1085C217.289 27.3805 216.697 27.5565 215.481 27.6845C212.585 27.9885 211.593 29.7485 211.593 34.5165C211.593 37.6205 212.777 39.2365 215.081 39.2365ZM215.081 38.1645C213.785 38.1645 212.921 36.9965 212.921 35.2525C212.921 33.5085 213.785 32.3405 215.081 32.3405C216.377 32.3405 217.257 33.5245 217.257 35.2525C217.257 36.9805 216.377 38.1645 215.081 38.1645ZM223.397 30.7565C222.549 30.7565 221.637 30.9325 220.757 31.4285V32.6125C221.541 32.1165 222.437 31.8445 223.301 31.8445C224.437 31.8445 225.013 32.5485 225.013 33.5565V33.8925C224.629 33.8285 224.277 33.8125 223.877 33.8125C221.733 33.8125 220.117 34.7565 220.117 36.7405C220.117 38.2445 220.997 39.1725 222.469 39.1725C223.605 39.1725 224.501 38.6605 225.061 38.0045H225.093L225.173 39.0125H226.245V33.5405C226.245 31.8445 225.157 30.7565 223.397 30.7565ZM222.853 38.1005C221.861 38.1005 221.445 37.5405 221.445 36.7085C221.445 35.5085 222.389 34.8205 224.021 34.8205C224.373 34.8205 224.725 34.8525 225.013 34.9005V35.9245C225.013 37.2525 223.989 38.1005 222.853 38.1005ZM233.983 30.9005V34.2285H230.191V30.9005H228.959V39.0125H230.191V35.3645H233.983V39.0125H235.215V30.9005H233.983ZM238.037 39.0125H239.269V30.9005H238.037V39.0125ZM241.013 34.6765L244.213 30.9005H242.661L239.621 34.5485V34.8525L243.045 39.0125H244.613L241.013 34.6765ZM248.819 30.7565C247.971 30.7565 247.059 30.9325 246.179 31.4285V32.6125C246.963 32.1165 247.859 31.8445 248.723 31.8445C249.859 31.8445 250.435 32.5485 250.435 33.5565V33.8925C250.051 33.8285 249.699 33.8125 249.299 33.8125C247.155 33.8125 245.539 34.7565 245.539 36.7405C245.539 38.2445 246.419 39.1725 247.891 39.1725C249.027 39.1725 249.923 38.6605 250.483 38.0045H250.515L250.595 39.0125H251.667V33.5405C251.667 31.8445 250.579 30.7565 248.819 30.7565ZM248.275 38.1005C247.283 38.1005 246.867 37.5405 246.867 36.7085C246.867 35.5085 247.811 34.8205 249.443 34.8205C249.795 34.8205 250.147 34.8525 250.435 34.9005V35.9245C250.435 37.2525 249.411 38.1005 248.275 38.1005Z" fill="black"/>
<path d="M53.3518 73.0799C54.2798 72.6479 54.8078 71.7999 54.8078 70.6959C54.8078 68.8719 53.6398 67.8479 51.5438 67.8479H48.6478V79.0479H51.5758C54.0398 79.0479 55.3358 77.9599 55.3358 75.8959C55.3358 74.4239 54.6318 73.4479 53.3518 73.0799ZM53.4958 70.7919C53.4958 71.9279 52.7598 72.5679 51.5278 72.5679H49.9438V69.0159H51.5278C52.8558 69.0159 53.4958 69.5759 53.4958 70.7919ZM51.5918 77.8799H49.9438V73.7359H51.5758C53.1758 73.7359 54.0078 74.4239 54.0078 75.8159C54.0078 77.2559 53.2558 77.8799 51.5918 77.8799ZM60.3064 74.7279C61.0424 74.4079 61.7144 73.7039 61.7144 72.7599C61.7144 71.4159 60.6264 70.7919 59.2504 70.7919C58.4024 70.7919 57.5864 71.0159 56.9624 71.3199L56.9464 72.4719C57.4744 72.1519 58.2744 71.8799 58.9464 71.8799C59.9384 71.8799 60.4184 72.2159 60.4184 72.9519C60.4184 73.8159 59.6984 74.3279 58.7384 74.3279H57.8584L57.8424 75.3839H59.0104C60.1784 75.3839 60.7224 75.7999 60.7224 76.6959C60.7224 77.6879 59.9384 78.1359 58.9304 78.1359C58.1144 78.1359 57.2984 77.9599 56.6904 77.5919L56.6744 78.7759C57.4264 79.0639 58.1304 79.2079 58.9784 79.2079C60.6424 79.2079 62.0344 78.2799 62.0344 76.7599C62.0344 75.5759 61.3144 74.9679 60.3064 74.7279ZM66.5158 70.9359C64.9958 70.9359 63.6678 71.7839 63.6678 73.4959C63.6678 74.9359 64.5478 75.6239 65.6038 75.8479L63.1078 79.0479H64.6118L67.2838 75.3999V74.9839H66.6278C65.6678 74.9839 64.9958 74.5039 64.9958 73.4959C64.9958 72.4879 65.6678 72.0239 66.6278 72.0239H68.1158V79.0479H69.3478V70.9359H66.5158ZM73.5219 79.0479H74.7539V72.0719H77.2179V70.9359H71.0579V72.0719H73.5219V79.0479ZM78.9432 79.1599H79.1992L83.3112 74.5999C83.5832 74.2959 83.8392 73.9919 84.0952 73.6879H84.1112C84.0792 74.3439 84.0792 74.9199 84.0792 75.5439V79.0479H85.3112V70.8399H85.0552L80.9432 75.4479C80.6712 75.7519 80.4312 76.0239 80.1752 76.3439H80.1592C80.1752 75.8799 80.1752 75.3999 80.1752 74.9359V70.9359H78.9432V79.1599ZM94.0347 74.2479C94.0347 72.0559 92.9147 70.7119 90.9947 70.7119C88.8507 70.7119 87.5227 72.3759 87.5227 75.0319C87.5227 77.6559 88.8667 79.2079 91.2507 79.2079C92.1467 79.2079 92.9947 78.9999 93.6827 78.5679V77.3999C92.9627 77.8639 92.1787 78.1199 91.3627 78.1199C89.7627 78.1199 88.8187 77.0799 88.7867 75.2399H93.9547C94.0027 74.8879 94.0347 74.5679 94.0347 74.2479ZM91.0267 71.7839C92.1947 71.7839 92.8187 72.6159 92.8187 74.1839H88.8347C89.0747 72.6319 89.8587 71.7839 91.0267 71.7839ZM104.748 70.9359V74.2639H100.956V70.9359H99.7244V79.0479H100.956V75.3999H104.748V79.0479H105.98V70.9359H104.748ZM113.555 70.9359L112.003 75.0959C111.811 75.6239 111.619 76.1679 111.331 77.0479H111.315C110.979 76.0879 110.803 75.6079 110.611 75.1279L108.963 70.9359H107.587L110.707 78.6479C109.987 80.9359 109.363 81.5919 108.131 81.6079V82.6639C110.083 82.6159 110.659 82.0399 111.811 78.9999L114.883 70.9359H113.555ZM115.211 79.0479H116.763L119.867 74.8079V74.5039L117.115 70.9359H115.611L118.523 74.6639L115.211 79.0479ZM120.219 79.0479H121.451V70.9359H120.219V79.0479ZM124.907 79.0479H126.459L123.131 74.6639L126.059 70.9359H124.555L121.803 74.5039V74.8079L124.907 79.0479ZM133.045 70.9359V74.2639H129.253V70.9359H128.021V79.0479H129.253V75.3999H133.045V79.0479H134.277V70.9359H133.045ZM140.075 79.2719C142.235 79.2719 143.659 77.5759 143.659 75.0159C143.659 72.4079 142.251 70.7119 140.075 70.7119C137.899 70.7119 136.491 72.4079 136.491 75.0159C136.491 77.5759 137.915 79.2719 140.075 79.2719ZM140.075 78.1839C138.699 78.1839 137.771 76.9039 137.771 75.0159C137.771 73.0479 138.683 71.7839 140.075 71.7839C141.467 71.7839 142.379 73.0479 142.379 75.0159C142.379 76.9039 141.451 78.1839 140.075 78.1839ZM149.081 69.7039C149.785 69.7039 150.409 69.5599 150.889 69.2559V68.2799C150.265 68.5839 149.641 68.6959 149.081 68.6959C148.521 68.6959 147.897 68.5839 147.273 68.2799V69.2719C147.753 69.5599 148.377 69.7039 149.081 69.7039ZM145.865 79.1599H146.121L150.233 74.5999C150.505 74.2959 150.761 73.9919 151.017 73.6879H151.033C151.001 74.3439 151.001 74.9199 151.001 75.5439V79.0479H152.233V70.8399H151.977L147.865 75.4479C147.593 75.7519 147.353 76.0239 147.097 76.3439H147.081C147.097 75.8799 147.097 75.3999 147.097 74.9359V70.9359H145.865V79.1599ZM161.608 79.2079C162.328 79.2079 162.968 79.0959 163.608 78.7919V77.6399C163.032 77.9759 162.408 78.1199 161.752 78.1199C159.784 78.1199 159.24 76.5519 159.24 74.9999C159.24 73.2399 160.008 71.8639 161.864 71.8639C162.472 71.8639 163.048 72.0399 163.432 72.2799V71.1279C162.84 70.8399 162.264 70.7919 161.672 70.7919C159.096 70.7919 157.96 72.7759 157.96 74.9999C157.96 77.4959 159.128 79.2079 161.608 79.2079ZM170.508 70.9359L168.956 75.0959C168.764 75.6239 168.572 76.1679 168.284 77.0479H168.268C167.932 76.0879 167.756 75.6079 167.564 75.1279L165.916 70.9359H164.54L167.66 78.6479C166.94 80.9359 166.316 81.5919 165.084 81.6079V82.6639C167.036 82.6159 167.612 82.0399 168.764 78.9999L171.836 70.9359H170.508ZM172.078 79.0479H173.326L174.03 75.7199C174.174 75.0319 174.254 74.3599 174.334 73.6719H174.366C174.622 74.2319 174.862 74.7279 175.134 75.2559L176.558 78.0559H176.942L178.398 75.2239C178.67 74.6959 178.894 74.1839 179.15 73.6719H179.182C179.262 74.3599 179.358 75.0319 179.502 75.7199L180.206 79.0479H181.454L179.71 70.8719H179.406L177.55 74.5199C177.294 75.0319 177.038 75.5279 176.782 76.0239H176.75C176.51 75.5439 176.27 75.0959 176.014 74.5839L174.126 70.8719H173.822L172.078 79.0479ZM182.421 79.0479H183.669L184.373 75.7199C184.517 75.0319 184.597 74.3599 184.677 73.6719H184.709C184.965 74.2319 185.205 74.7279 185.477 75.2559L186.901 78.0559H187.285L188.741 75.2239C189.013 74.6959 189.237 74.1839 189.493 73.6719H189.525C189.605 74.3599 189.701 75.0319 189.845 75.7199L190.549 79.0479H191.797L190.053 70.8719H189.749L187.893 74.5199C187.637 75.0319 187.381 75.5279 187.125 76.0239H187.093C186.853 75.5439 186.613 75.0959 186.357 74.5839L184.469 70.8719H184.165L182.421 79.0479ZM193.693 79.0479H196.813C198.541 79.0479 199.709 78.0079 199.709 76.3279C199.709 74.6479 198.541 73.6239 196.813 73.6239H194.925V70.9359H193.693V79.0479ZM201.677 79.0479H202.909V70.9359H201.677V79.0479ZM194.925 78.0079V74.6479H196.429C197.837 74.6479 198.429 75.1439 198.429 76.3279C198.429 77.4959 197.821 78.0079 196.429 78.0079H194.925Z" fill="black"/>
<path d="M53.3518 110.685C54.2798 110.253 54.8078 109.405 54.8078 108.301C54.8078 106.477 53.6398 105.453 51.5438 105.453H48.6478V116.653H51.5758C54.0398 116.653 55.3358 115.565 55.3358 113.501C55.3358 112.029 54.6318 111.053 53.3518 110.685ZM53.4958 108.397C53.4958 109.533 52.7598 110.173 51.5278 110.173H49.9438V106.621H51.5278C52.8558 106.621 53.4958 107.181 53.4958 108.397ZM51.5918 115.485H49.9438V111.341H51.5758C53.1758 111.341 54.0078 112.029 54.0078 113.421C54.0078 114.861 53.2558 115.485 51.5918 115.485ZM57.4744 116.765H57.7304L61.8424 112.205C62.1144 111.901 62.3704 111.597 62.6264 111.293H62.6424C62.6104 111.949 62.6104 112.525 62.6104 113.149V116.653H63.8424V108.445H63.5864L59.4744 113.053C59.2024 113.357 58.9624 113.629 58.7064 113.949H58.6904C58.7064 113.485 58.7064 113.005 58.7064 112.541V108.541H57.4744V116.765ZM66.6619 120.045H67.8939V116.653C67.8939 116.413 67.8939 116.221 67.8619 115.677H67.8939C68.4059 116.429 69.2699 116.877 70.2459 116.877C72.2779 116.877 73.5739 115.133 73.5739 112.573C73.5739 110.013 72.2779 108.317 70.3419 108.317C69.3659 108.317 68.5499 108.717 67.8459 109.549H67.8139L67.7339 108.541H66.6619V120.045ZM70.0699 115.805C68.7259 115.805 67.8939 114.589 67.8939 112.637C67.8939 110.541 68.6779 109.405 70.1339 109.405C71.4939 109.405 72.2939 110.605 72.2939 112.621C72.2939 114.589 71.4939 115.805 70.0699 115.805ZM76.9438 116.653H78.1758V109.677H80.6398V108.541H74.4798V109.677H76.9438V116.653ZM87.117 108.541L85.565 112.701C85.373 113.229 85.181 113.773 84.893 114.653H84.877C84.541 113.693 84.365 113.213 84.173 112.733L82.525 108.541H81.149L84.269 116.253C83.549 118.541 82.925 119.197 81.693 119.213V120.269C83.645 120.221 84.221 119.645 85.373 116.605L88.445 108.541H87.117ZM92.6159 108.397C91.7679 108.397 90.8559 108.573 89.9759 109.069V110.253C90.7599 109.757 91.6559 109.485 92.5199 109.485C93.6559 109.485 94.2319 110.189 94.2319 111.197V111.533C93.8479 111.469 93.4959 111.453 93.0959 111.453C90.9519 111.453 89.3359 112.397 89.3359 114.381C89.3359 115.885 90.2159 116.813 91.6879 116.813C92.8239 116.813 93.7199 116.301 94.2799 115.645H94.3119L94.3919 116.653H95.4639V111.181C95.4639 109.485 94.3759 108.397 92.6159 108.397ZM92.0719 115.741C91.0799 115.741 90.6639 115.181 90.6639 114.349C90.6639 113.149 91.6079 112.461 93.2399 112.461C93.5919 112.461 93.9439 112.493 94.2319 112.541V113.565C94.2319 114.893 93.2079 115.741 92.0719 115.741ZM97.0415 116.717C99.1695 116.893 99.7135 115.181 99.8575 112.429L100.002 109.629H102.738V116.653H103.97V108.541H98.8335L98.6575 111.821C98.5455 113.981 98.3695 115.709 97.0415 115.581V116.717ZM106.787 116.653H109.907C111.635 116.653 112.803 115.613 112.803 113.933C112.803 112.253 111.635 111.229 109.907 111.229H108.019V108.541H106.787V116.653ZM108.019 115.613V112.253H109.523C110.931 112.253 111.523 112.749 111.523 113.933C111.523 115.101 110.915 115.613 109.523 115.613H108.019ZM119.795 108.541V111.869H116.003V108.541H114.771V116.653H116.003V113.005H119.795V116.653H121.027V108.541H119.795ZM126.553 108.397C125.705 108.397 124.793 108.573 123.913 109.069V110.253C124.697 109.757 125.593 109.485 126.457 109.485C127.593 109.485 128.169 110.189 128.169 111.197V111.533C127.785 111.469 127.433 111.453 127.033 111.453C124.889 111.453 123.273 112.397 123.273 114.381C123.273 115.885 124.153 116.813 125.625 116.813C126.761 116.813 127.657 116.301 128.217 115.645H128.249L128.329 116.653H129.401V111.181C129.401 109.485 128.313 108.397 126.553 108.397ZM126.009 115.741C125.017 115.741 124.601 115.181 124.601 114.349C124.601 113.149 125.545 112.461 127.177 112.461C127.529 112.461 127.881 112.493 128.169 112.541V113.565C128.169 114.893 127.145 115.741 126.009 115.741ZM134.547 108.541C133.027 108.541 131.699 109.389 131.699 111.101C131.699 112.541 132.579 113.229 133.635 113.453L131.139 116.653H132.643L135.315 113.005V112.589H134.659C133.699 112.589 133.027 112.109 133.027 111.101C133.027 110.093 133.699 109.629 134.659 109.629H136.147V116.653H137.379V108.541H134.547ZM143.709 116.653H144.941V108.541H143.709V116.653ZM146.685 112.317L149.885 108.541H148.333L145.293 112.189V112.493L148.717 116.653H150.285L146.685 112.317ZM154.491 108.397C153.643 108.397 152.731 108.573 151.851 109.069V110.253C152.635 109.757 153.531 109.485 154.395 109.485C155.531 109.485 156.107 110.189 156.107 111.197V111.533C155.723 111.469 155.371 111.453 154.971 111.453C152.827 111.453 151.211 112.397 151.211 114.381C151.211 115.885 152.091 116.813 153.563 116.813C154.699 116.813 155.595 116.301 156.155 115.645H156.187L156.267 116.653H157.339V111.181C157.339 109.485 156.251 108.397 154.491 108.397ZM153.947 115.741C152.955 115.741 152.539 115.181 152.539 114.349C152.539 113.149 153.483 112.461 155.115 112.461C155.467 112.461 155.819 112.493 156.107 112.541V113.565C156.107 114.893 155.083 115.741 153.947 115.741ZM160.053 120.045H161.285V116.653C161.285 116.413 161.285 116.221 161.253 115.677H161.285C161.797 116.429 162.661 116.877 163.637 116.877C165.669 116.877 166.965 115.133 166.965 112.573C166.965 110.013 165.669 108.317 163.733 108.317C162.757 108.317 161.941 108.717 161.237 109.549H161.205L161.125 108.541H160.053V120.045ZM163.461 115.805C162.117 115.805 161.285 114.589 161.285 112.637C161.285 110.541 162.069 109.405 163.525 109.405C164.885 109.405 165.685 110.605 165.685 112.621C165.685 114.589 164.885 115.805 163.461 115.805ZM170.334 116.653H171.566V109.677H174.03V108.541H167.87V109.677H170.334V116.653ZM178.303 108.397C177.455 108.397 176.543 108.573 175.663 109.069V110.253C176.447 109.757 177.343 109.485 178.207 109.485C179.343 109.485 179.919 110.189 179.919 111.197V111.533C179.535 111.469 179.183 111.453 178.783 111.453C176.639 111.453 175.023 112.397 175.023 114.381C175.023 115.885 175.903 116.813 177.375 116.813C178.511 116.813 179.407 116.301 179.967 115.645H179.999L180.079 116.653H181.151V111.181C181.151 109.485 180.063 108.397 178.303 108.397ZM177.759 115.741C176.767 115.741 176.351 115.181 176.351 114.349C176.351 113.149 177.295 112.461 178.927 112.461C179.279 112.461 179.631 112.493 179.919 112.541V113.565C179.919 114.893 178.895 115.741 177.759 115.741Z" fill="black"/>
<path d="M28.2935 32.4848L30.288 34.4794L36.9366 27.8308" stroke="#52AE30" stroke-linecap="round" stroke-linejoin="round"/>
<path d="M36.2712 33.1495V37.8035C36.2712 38.1562 36.1311 38.4944 35.8817 38.7438C35.6324 38.9932 35.2941 39.1333 34.9415 39.1333H25.6334C25.2808 39.1333 24.9425 38.9932 24.6932 38.7438C24.4438 38.4944 24.3037 38.1562 24.3037 37.8035V28.4955C24.3037 28.1428 24.4438 27.8046 24.6932 27.5552C24.9425 27.3059 25.2808 27.1658 25.6334 27.1658H32.9469" stroke="#52AE30" stroke-linecap="round" stroke-linejoin="round"/>
<path d="M28.2935 72.5202L30.288 74.5148L36.9366 67.8662" stroke="#52AE30" stroke-linecap="round" stroke-linejoin="round"/>
<path d="M36.2712 73.1849V77.8389C36.2712 78.1916 36.1311 78.5298 35.8817 78.7792C35.6324 79.0286 35.2941 79.1687 34.9415 79.1687H25.6334C25.2808 79.1687 24.9425 79.0286 24.6932 78.7792C24.4438 78.5298 24.3037 78.1916 24.3037 77.8389V68.5309C24.3037 68.1782 24.4438 67.84 24.6932 67.5906C24.9425 67.3413 25.2808 67.2012 25.6334 67.2012H32.9469" stroke="#52AE30" stroke-linecap="round" stroke-linejoin="round"/>
<path d="M28.2935 111.125L30.288 113.12L36.9366 106.471" stroke="#52AE30" stroke-linecap="round" stroke-linejoin="round"/>
<path d="M36.2712 111.79V116.444C36.2712 116.797 36.1311 117.135 35.8817 117.384C35.6324 117.634 35.2941 117.774 34.9415 117.774H25.6334C25.2808 117.774 24.9425 117.634 24.6932 117.384C24.4438 117.135 24.3037 116.797 24.3037 116.444V107.136C24.3037 106.783 24.4438 106.445 24.6932 106.196C24.9425 105.946 25.2808 105.806 25.6334 105.806H32.9469" stroke="#52AE30" stroke-linecap="round" stroke-linejoin="round"/>
</svg>
