<svg width="77" height="92" viewBox="0 0 77 92" fill="none" xmlns="http://www.w3.org/2000/svg">
<path d="M36.1693 45.8574L24.6388 33.375V31.074C24.6388 30.7982 24.6322 30.5235 24.6198 30.2542C24.4395 26.1553 22.4794 20.9527 18.5059 18.5715C16.6993 17.487 13.7468 16.5812 9.94154 18.4072C4.25638 21.1314 1.08269 29.4121 0.539895 35.9538C0.293639 38.9192 0.419906 42.1404 0.936977 46.0953C1.03637 46.8515 2.24539 50.8187 2.48671 51.6062C3.9828 56.4904 4.21738 57.2554 5.14881 57.2554C5.27897 57.2554 5.4225 57.2399 5.58502 57.2197L6.55169 57.0979C6.63598 58.0473 6.75996 58.9632 6.93975 59.7417L6.57342 75.4398L1.60937 87.5247C1.46469 87.8765 1.4664 88.2719 1.6144 88.6226C1.76183 88.9734 2.04388 89.2503 2.39681 89.3932L8.06288 91.6806C8.23708 91.7511 8.418 91.7846 8.59735 91.7846C9.06305 91.7846 9.51368 91.5568 9.78566 91.1513L18.7885 77.7182L21.8326 90.6822C21.9839 91.3278 22.5608 91.7846 23.2243 91.7846H29.2801C29.6671 91.7846 30.0375 91.6283 30.3072 91.3501C30.5763 91.0719 30.7215 90.6967 30.7093 90.3102L30.0514 69.5212C30.0474 69.4007 30.0284 69.2812 29.9945 69.165L24.6388 50.8445V48.1627C25.7803 48.8686 26.9408 49.5733 28.1348 50.2904C29.2516 50.9605 30.3825 51.6397 31.5168 52.3388C31.7502 52.4829 32.0093 52.5511 32.2657 52.5511C32.7292 52.5511 33.1831 52.3254 33.4574 51.9122L36.3094 47.6188C36.6747 47.0704 36.6166 46.3421 36.1693 45.8574ZM29.6063 47.8388C27.8907 46.8091 26.2294 45.8083 24.6388 44.7896V37.5901L33.3061 46.9732L31.8379 49.1836C31.0901 48.729 30.3451 48.2822 29.6063 47.8388ZM21.7795 46.3287V49.5667H12.478L12.2993 47.2681L11.6738 39.2241C12.6008 37.7666 13.6334 35.822 14.6906 33.7043C15.4193 32.2446 16.1599 30.7055 16.8875 29.1775C17.2271 28.465 16.9244 27.6117 16.2118 27.2721C15.4998 26.9348 14.6453 27.2364 14.3064 27.949C12.4629 31.8191 10.5363 35.7874 9.02119 38.0581C8.84358 38.3239 8.76031 38.6422 8.78547 38.9616L9.93868 53.7874L9.25348 53.8746L6.39866 54.2353L6.32661 54.2442C5.57611 52.0182 3.89679 46.4661 3.77167 45.7234C3.28193 41.9773 3.1607 38.9471 3.3891 36.1907C3.87003 30.3983 6.76283 23.1006 11.1773 20.985C12.2323 20.4792 13.2464 20.2268 14.2142 20.2268C15.2066 20.2268 16.1493 20.4926 17.0361 21.0241C19.6463 22.5878 21.5897 26.4356 21.7634 30.3838C21.7741 30.6128 21.7795 30.8429 21.7795 31.074V33.8374V33.9166V37.5254V42.8552V44.5909V46.3287ZM17.8972 73.923L8.0567 88.5947L4.8009 87.2801L9.31879 76.2808C9.38524 76.1189 9.42161 75.9468 9.4255 75.7715L9.70754 63.6833L17.4181 71.8836L17.8972 73.923ZM27.1994 69.7928L27.8047 88.9253H24.3569L20.1137 70.856C20.0562 70.6114 19.9355 70.3869 19.7635 70.2037L9.88733 59.7003C9.82648 59.5563 9.76998 59.3686 9.71748 59.1464C9.70799 59.1174 9.70914 59.0849 9.69804 59.057C9.56789 58.4717 9.46461 57.6653 9.3897 56.7383L11.6486 56.4536C12.4053 56.3575 12.9537 55.6851 12.8946 54.9245L12.7003 52.426H22.1224L27.1994 69.7928Z" fill="#5EC738"/>
<path d="M17.1208 14.6267C21.0624 14.6267 24.2695 11.4201 24.2695 7.47969C24.2695 3.53915 21.0624 0.33252 17.1208 0.33252C13.1798 0.33252 9.97314 3.53915 9.97314 7.47969C9.97314 11.4201 13.1798 14.6267 17.1208 14.6267ZM17.1208 3.1918C19.4857 3.1918 21.4103 5.11518 21.4103 7.47969C21.4103 9.84409 19.4857 11.7675 17.1208 11.7675C14.7563 11.7675 12.8324 9.84409 12.8324 7.47969C12.8324 5.11518 14.7563 3.1918 17.1208 3.1918Z" fill="#5EC738"/>
<path d="M71.0448 15.5046H49.2598C46.8535 15.5046 44.9028 17.4553 44.9028 19.8616V54.7176C44.9028 57.1239 46.8535 59.0746 49.2598 59.0746H71.0448C73.4511 59.0746 75.4018 57.1239 75.4018 54.7176V19.8616C75.4018 17.4553 73.4511 15.5046 71.0448 15.5046Z" stroke="#5EC738" stroke-width="3" stroke-linecap="round" stroke-linejoin="round"/>
<path d="M45.2153 46.1847H75.0789" stroke="#5EC738" stroke-width="3"/>
<circle cx="60.148" cy="52.5399" r="2.54158" fill="#5EC738"/>
</svg>
