<svg width="127" height="92" viewBox="0 0 127 92" fill="none" xmlns="http://www.w3.org/2000/svg">
<path d="M126.331 32.2952C126.343 32.1909 126.343 32.0855 126.331 31.9812C126.344 31.8874 126.344 31.7923 126.331 31.6985L114.444 6.73015C114.196 6.17329 113.644 5.81603 113.036 5.81936H58.2944C57.6869 5.81603 57.1348 6.17329 56.8868 6.73015L45.1564 31.6671C45.1424 31.8658 45.1424 32.0652 45.1564 32.2638H45V89.0472C45 89.9145 45.7002 90.6175 46.5641 90.6175H124.767C125.63 90.6175 126.331 89.9145 126.331 89.0472V32.3266V32.2952ZM84.1013 43.8843C84.1013 47.4748 81.2022 50.3855 77.6261 50.3855H74.1539C70.5778 50.3855 67.6787 47.4748 67.6787 43.8843V33.897H84.1013V43.8843ZM64.5506 43.8843C64.5506 47.4748 61.6516 50.3855 58.0755 50.3855H54.6033C51.0271 50.3855 48.1281 47.4748 48.1281 43.8843V33.897H64.5506V43.8843ZM87.2294 8.96003H99.0849L103.308 30.7563H87.2294V8.96003ZM84.1013 30.7563H68.0228L72.2458 8.96003H84.1013V30.7563ZM87.2294 33.897H103.652V43.8843C103.652 47.4748 100.753 50.3855 97.1767 50.3855H93.7045C90.1284 50.3855 87.2294 47.4748 87.2294 43.8843V33.897ZM106.78 33.897H123.203V43.8843C123.203 47.4748 120.304 50.3855 116.727 50.3855H113.255C109.679 50.3855 106.78 47.4748 106.78 43.8843V33.897ZM122.421 30.7563H106.498L102.276 8.96003H112.035L122.421 30.7563ZM59.2954 8.96003H69.0551L64.8322 30.7563H49.1917L59.2954 8.96003ZM60.6405 87.4769V61.5349H76.8128V82.7659C76.8294 83.6261 77.52 84.3195 78.3768 84.3362C79.2406 84.3362 79.9409 83.6331 79.9409 82.7659V59.9646C79.9409 59.0973 79.2406 58.3942 78.3768 58.3942H59.0765C58.2196 58.4109 57.529 59.1043 57.5124 59.9646V87.4769H48.1281V50.9508C49.8776 52.6114 52.1958 53.5334 54.6033 53.5262H58.0755C61.3219 53.514 64.3439 51.8612 66.1147 49.1292C67.8855 51.8612 70.9075 53.514 74.1539 53.5262H77.6261C80.8725 53.514 83.8946 51.8612 85.6653 49.1292C87.4361 51.8612 90.4581 53.514 93.7045 53.5262H97.1767C100.423 53.514 103.445 51.8612 105.216 49.1292C106.987 51.8612 110.009 53.514 113.255 53.5262H116.727C119.135 53.5334 121.453 52.6114 123.203 50.9508V87.4769H60.6405Z" fill="#5EC738"/>
<path d="M72.8401 72.2131H71.1822C70.3254 72.2298 69.6348 72.9232 69.6182 73.7835C69.6182 74.6507 70.3184 75.3538 71.1822 75.3538H72.8401C73.7039 75.3538 74.4042 74.6507 74.4042 73.7835C74.4042 72.9162 73.7039 72.2131 72.8401 72.2131Z" fill="#5EC738"/>
<path d="M114.039 61.6612C114.903 61.6612 115.603 60.9581 115.603 60.0908C115.603 59.2236 114.903 58.5205 114.039 58.5205H87.794C86.9302 58.5205 86.23 59.2236 86.23 60.0908V76.9248C86.23 77.7921 86.9302 78.4952 87.794 78.4952H114.039C114.903 78.4952 115.603 77.7921 115.603 76.9248V68.0996C115.586 67.2393 114.896 66.5459 114.039 66.5292C113.175 66.5292 112.475 67.2323 112.475 68.0996V75.3545H89.3581V61.6612H114.039Z" fill="#5EC738"/>
<path d="M35.7508 45.8574L24.2204 33.375V31.074C24.2204 30.7982 24.2137 30.5235 24.2014 30.2542C24.021 26.1553 22.0609 20.9527 18.0874 18.5715C16.2808 17.487 13.3283 16.5812 9.52308 18.4072C3.83792 21.1314 0.664229 29.4121 0.121438 35.9538C-0.124818 38.9192 0.00144944 42.1404 0.51852 46.0953C0.617912 46.8515 1.82693 50.8187 2.06825 51.6062C3.56434 56.4904 3.79892 57.2554 4.73036 57.2554C4.86051 57.2554 5.00405 57.2399 5.16657 57.2197L6.13324 57.0979C6.21753 58.0473 6.3415 58.9632 6.52129 59.7417L6.15496 75.4398L1.19091 87.5247C1.04623 87.8765 1.04795 88.2719 1.19594 88.6226C1.34337 88.9734 1.62542 89.2503 1.97836 89.3932L7.64442 91.6806C7.81862 91.7511 7.99954 91.7846 8.17889 91.7846C8.6446 91.7846 9.09522 91.5568 9.36721 91.1513L18.37 77.7182L21.4141 90.6822C21.5655 91.3278 22.1423 91.7846 22.8058 91.7846H28.8617C29.2487 91.7846 29.619 91.6283 29.8887 91.3501C30.1578 91.0719 30.3031 90.6967 30.2908 90.3102L29.633 69.5212C29.629 69.4007 29.61 69.2812 29.576 69.165L24.2204 50.8445V48.1627C25.3619 48.8686 26.5223 49.5733 27.7163 50.2904C28.8332 50.9605 29.9641 51.6397 31.0983 52.3388C31.3317 52.4829 31.5909 52.5511 31.8472 52.5511C32.3107 52.5511 32.7647 52.3254 33.0389 51.9122L35.8909 47.6188C36.2562 47.0704 36.1981 46.3421 35.7508 45.8574ZM29.1878 47.8388C27.4723 46.8091 25.8109 45.8083 24.2204 44.7896V37.5901L32.8876 46.9732L31.4195 49.1836C30.6717 48.729 29.9267 48.2822 29.1878 47.8388ZM21.3611 46.3287V49.5667H12.0595L11.8808 47.2681L11.2553 39.2241C12.1823 37.7666 13.215 35.822 14.2721 33.7043C15.0009 32.2446 15.7414 30.7055 16.4691 29.1775C16.8086 28.465 16.5059 27.6117 15.7934 27.2721C15.0813 26.9348 14.2268 27.2364 13.8879 27.949C12.0444 31.8191 10.1178 35.7874 8.60274 38.0581C8.42512 38.3239 8.34186 38.6422 8.36702 38.9616L9.52022 53.7874L8.83502 53.8746L5.98021 54.2353L5.90815 54.2442C5.15765 52.0182 3.47834 46.4661 3.35321 45.7234C2.86347 41.9773 2.74224 38.9471 2.97064 36.1907C3.45157 30.3983 6.34437 23.1006 10.7589 20.985C11.8138 20.4792 12.828 20.2268 13.7958 20.2268C14.7882 20.2268 15.7308 20.4926 16.6176 21.0241C19.2278 22.5878 21.1712 26.4356 21.3449 30.3838C21.3556 30.6128 21.3611 30.8429 21.3611 31.074V33.8374V33.9166V37.5254V42.8552V44.5909V46.3287ZM17.4788 73.923L7.63824 88.5947L4.38244 87.2801L8.90033 76.2808C8.96678 76.1189 9.00315 75.9468 9.00704 75.7715L9.28908 63.6833L16.9996 71.8836L17.4788 73.923ZM26.7809 69.7928L27.3863 88.9253H23.9384L19.6953 70.856C19.6377 70.6114 19.5171 70.3869 19.3451 70.2037L9.46887 59.7003C9.40802 59.5563 9.35153 59.3686 9.29903 59.1464C9.28953 59.1174 9.29068 59.0849 9.27959 59.057C9.14943 58.4717 9.04615 57.6653 8.97124 56.7383L11.2302 56.4536C11.9869 56.3575 12.5353 55.6851 12.4761 54.9245L12.2818 52.426H21.704L26.7809 69.7928Z" fill="#5EC738"/>
<path d="M16.7023 14.6267C20.6439 14.6267 23.8511 11.4201 23.8511 7.47969C23.8511 3.53915 20.6439 0.33252 16.7023 0.33252C12.7613 0.33252 9.55469 3.53915 9.55469 7.47969C9.55469 11.4201 12.7613 14.6267 16.7023 14.6267ZM16.7023 3.1918C19.0673 3.1918 20.9918 5.11518 20.9918 7.47969C20.9918 9.84409 19.0673 11.7675 16.7023 11.7675C14.3378 11.7675 12.414 9.84409 12.414 7.47969C12.414 5.11518 14.3378 3.1918 16.7023 3.1918Z" fill="#5EC738"/>
</svg>
