<svg width="181" height="158" viewBox="0 0 181 158" fill="none" xmlns="http://www.w3.org/2000/svg">
<path d="M1.472 145.225H2.768V134.025H1.472V145.225ZM8.208 145.225H9.856L5.008 139.289L9.2 134.025H7.632L3.568 139.209V139.513L8.208 145.225ZM10.3189 145.289C12.4469 145.465 12.9909 143.753 13.1349 141.001L13.2789 138.201H16.0149V145.225H17.2469V137.113H12.1109L11.9349 140.393C11.8229 142.553 11.6469 144.281 10.3189 144.153V145.289ZM20.0643 145.337H20.3203L24.4323 140.777C24.7043 140.473 24.9603 140.169 25.2163 139.865H25.2323C25.2003 140.521 25.2003 141.097 25.2003 141.721V145.225H26.4323V137.017H26.1763L22.0643 141.625C21.7923 141.929 21.5523 142.201 21.2963 142.521H21.2803C21.2963 142.057 21.2963 141.577 21.2963 141.113V137.113H20.0643V145.337ZM35.1558 140.425C35.1558 138.233 34.0358 136.889 32.1158 136.889C29.9718 136.889 28.6438 138.553 28.6438 141.209C28.6438 143.833 29.9878 145.385 32.3718 145.385C33.2678 145.385 34.1158 145.177 34.8038 144.745V143.577C34.0838 144.041 33.2998 144.297 32.4838 144.297C30.8838 144.297 29.9398 143.257 29.9078 141.417H35.0758C35.1238 141.065 35.1558 140.745 35.1558 140.425ZM32.1478 137.961C33.3158 137.961 33.9398 138.793 33.9398 140.361H29.9557C30.1957 138.809 30.9798 137.961 32.1478 137.961ZM42.3539 137.113V140.441H38.5619V137.113H37.3299V145.225H38.5619V141.577H42.3539V145.225H43.5859V137.113H42.3539ZM47.768 145.225H49V138.249H51.464V137.113H45.304V138.249H47.768V145.225ZM59.6705 145.449C61.7345 145.449 63.1585 143.833 63.1585 141.465C63.1585 138.937 61.9745 137.465 59.9745 137.465C58.8385 137.465 58.0225 137.849 57.4305 138.681L57.3985 138.665C57.6065 136.265 58.4385 135.257 60.3425 135.065C61.1585 134.985 61.8305 134.841 62.3745 134.617V133.321C61.8785 133.593 61.2865 133.769 60.0705 133.897C57.1745 134.201 56.1825 135.961 56.1825 140.729C56.1825 143.833 57.3665 145.449 59.6705 145.449ZM59.6705 144.377C58.3745 144.377 57.5105 143.209 57.5105 141.465C57.5105 139.721 58.3745 138.553 59.6705 138.553C60.9665 138.553 61.8465 139.737 61.8465 141.465C61.8465 143.193 60.9665 144.377 59.6705 144.377ZM67.987 136.969C67.139 136.969 66.227 137.145 65.347 137.641V138.825C66.131 138.329 67.027 138.057 67.891 138.057C69.027 138.057 69.603 138.761 69.603 139.769V140.105C69.219 140.041 68.867 140.025 68.467 140.025C66.323 140.025 64.707 140.969 64.707 142.953C64.707 144.457 65.587 145.385 67.059 145.385C68.195 145.385 69.091 144.873 69.651 144.217H69.683L69.763 145.225H70.835V139.753C70.835 138.057 69.747 136.969 67.987 136.969ZM67.443 144.313C66.451 144.313 66.035 143.753 66.035 142.921C66.035 141.721 66.979 141.033 68.611 141.033C68.963 141.033 69.315 141.065 69.603 141.113V142.137C69.603 143.465 68.579 144.313 67.443 144.313ZM78.5726 137.113V140.441H74.7806V137.113H73.5486V145.225H74.7806V141.577H78.5726V145.225H79.8046V137.113H78.5726ZM82.6268 145.225H83.8588V137.113H82.6268V145.225ZM85.6028 140.889L88.8028 137.113H87.2508L84.2108 140.761V141.065L87.6348 145.225H89.2028L85.6028 140.889ZM93.4089 136.969C92.5609 136.969 91.6489 137.145 90.7689 137.641V138.825C91.5529 138.329 92.4489 138.057 93.3129 138.057C94.4489 138.057 95.0249 138.761 95.0249 139.769V140.105C94.6409 140.041 94.2889 140.025 93.8889 140.025C91.7449 140.025 90.1289 140.969 90.1289 142.953C90.1289 144.457 91.0089 145.385 92.4809 145.385C93.6169 145.385 94.5129 144.873 95.0729 144.217H95.1049L95.1849 145.225H96.2569V139.753C96.2569 138.057 95.1689 136.969 93.4089 136.969ZM92.8649 144.313C91.8729 144.313 91.4569 143.753 91.4569 142.921C91.4569 141.721 92.4009 141.033 94.0329 141.033C94.3849 141.033 94.7369 141.065 95.0249 141.113V142.137C95.0249 143.465 94.0009 144.313 92.8649 144.313ZM105.526 145.385C106.246 145.385 106.886 145.273 107.526 144.969V143.817C106.95 144.153 106.326 144.297 105.67 144.297C103.702 144.297 103.158 142.729 103.158 141.177C103.158 139.417 103.926 138.041 105.782 138.041C106.39 138.041 106.966 138.217 107.35 138.457V137.305C106.758 137.017 106.182 136.969 105.59 136.969C103.014 136.969 101.878 138.953 101.878 141.177C101.878 143.673 103.046 145.385 105.526 145.385ZM113.096 145.225H114.328V138.201H117.976V145.225H119.208V137.113H113.096V145.225ZM124.993 145.449C127.153 145.449 128.577 143.753 128.577 141.193C128.577 138.585 127.169 136.889 124.993 136.889C122.817 136.889 121.409 138.585 121.409 141.193C121.409 143.753 122.833 145.449 124.993 145.449ZM124.993 144.361C123.617 144.361 122.689 143.081 122.689 141.193C122.689 139.225 123.601 137.961 124.993 137.961C126.385 137.961 127.297 139.225 127.297 141.193C127.297 143.081 126.369 144.361 124.993 144.361ZM130.783 145.225H132.015V137.113H130.783V145.225ZM133.759 140.889L136.959 137.113H135.407L132.367 140.761V141.065L135.791 145.225H137.359L133.759 140.889ZM143.754 137.113L142.202 141.273C142.01 141.801 141.818 142.345 141.53 143.225H141.514C141.178 142.265 141.002 141.785 140.81 141.305L139.162 137.113H137.786L140.906 144.825C140.186 147.113 139.562 147.769 138.33 147.785V148.841C140.282 148.793 140.858 148.217 142.01 145.177L145.082 137.113H143.754ZM146.658 145.225H147.89V138.201H151.538V145.225H152.77V137.113H146.658V145.225ZM155.58 145.225H156.812V137.113H155.58V145.225ZM158.556 140.889L161.756 137.113H160.204L157.164 140.761V141.065L160.588 145.225H162.156L158.556 140.889ZM166.447 145.449C168.607 145.449 170.031 143.753 170.031 141.193C170.031 138.585 168.623 136.889 166.447 136.889C164.271 136.889 162.863 138.585 162.863 141.193C162.863 143.753 164.287 145.449 166.447 145.449ZM166.447 144.361C165.071 144.361 164.143 143.081 164.143 141.193C164.143 139.225 165.055 137.961 166.447 137.961C167.839 137.961 168.751 139.225 168.751 141.193C168.751 143.081 167.823 144.361 166.447 144.361ZM175.452 135.881C176.156 135.881 176.78 135.737 177.26 135.433V134.457C176.636 134.761 176.012 134.873 175.452 134.873C174.892 134.873 174.268 134.761 173.644 134.457V135.449C174.124 135.737 174.748 135.881 175.452 135.881ZM172.236 145.337H172.492L176.604 140.777C176.876 140.473 177.132 140.169 177.388 139.865H177.404C177.372 140.521 177.372 141.097 177.372 141.721V145.225H178.604V137.017H178.348L174.236 141.625C173.964 141.929 173.724 142.201 173.468 142.521H173.452C173.468 142.057 173.468 141.577 173.468 141.113V137.113H172.236V145.337Z" fill="#2E2E2E"/>
<path d="M89.677 51.2213L76.7037 37.1769V34.5881C76.7037 34.2777 76.6962 33.9686 76.6823 33.6657C76.4794 29.0538 74.274 23.2002 69.8034 20.521C67.7707 19.3009 64.4487 18.2817 60.1673 20.3363C53.7708 23.4013 50.2 32.7182 49.5893 40.0784C49.3122 43.4149 49.4543 47.0391 50.036 51.489C50.1479 52.3398 51.5082 56.8034 51.7797 57.6894C53.463 63.1848 53.7269 64.0455 54.7749 64.0455C54.9213 64.0455 55.0828 64.028 55.2657 64.0054L56.3533 63.8683C56.4482 64.9365 56.5877 65.967 56.7899 66.843L56.3778 84.5054L50.7926 98.1025C50.6298 98.4983 50.6317 98.9432 50.7982 99.3377C50.9641 99.7324 51.2814 100.044 51.6785 100.205L58.0536 102.778C58.2496 102.858 58.4532 102.895 58.655 102.895C59.1789 102.895 59.6859 102.639 59.992 102.183L70.1213 87.0689L73.5463 101.655C73.7166 102.381 74.3657 102.895 75.1122 102.895H81.9258C82.3612 102.895 82.7779 102.719 83.0813 102.407C83.3841 102.094 83.5476 101.671 83.5338 101.237L82.7936 77.8462C82.7891 77.7106 82.7677 77.5761 82.7295 77.4454L76.7037 56.8324V53.815C77.9881 54.6092 79.2937 55.4022 80.6371 56.209C81.8937 56.963 83.1661 57.7271 84.4423 58.5137C84.7049 58.6759 84.9965 58.7526 85.2849 58.7526C85.8064 58.7526 86.3172 58.4987 86.6258 58.0337L89.8346 53.2031C90.2456 52.5861 90.1802 51.7667 89.677 51.2213ZM82.2928 53.4506C80.3625 52.2921 78.4933 51.1661 76.7037 50.0199V41.9195L86.4555 52.4767L84.8036 54.9636C83.9623 54.4523 83.1241 53.9495 82.2928 53.4506ZM73.4866 51.7516V55.3947H63.0212L62.8201 52.8085L62.1164 43.758C63.1593 42.1181 64.3212 39.9302 65.5106 37.5475C66.3306 35.9051 67.1638 34.1735 67.9825 32.4543C68.3646 31.6526 68.0239 30.6925 67.2222 30.3104C66.4211 29.9309 65.4597 30.2703 65.0784 31.072C63.0042 35.4263 60.8365 39.8912 59.1318 42.4461C58.932 42.7451 58.8383 43.1032 58.8666 43.4627L60.1641 60.1436L59.3932 60.2417L56.1811 60.6475L56.1001 60.6576C55.2557 58.153 53.3662 51.9061 53.2254 51.0705C52.6744 46.8556 52.538 43.4463 52.795 40.3449C53.3361 33.8278 56.5909 25.6169 61.5578 23.2366C62.7447 22.6675 63.8858 22.3835 64.9747 22.3835C66.0912 22.3835 67.1519 22.6825 68.1497 23.2806C71.0865 25.04 73.273 29.3692 73.4685 33.8115C73.4805 34.0691 73.4866 34.328 73.4866 34.5881V37.6972V37.7864V41.8467V47.8434V49.7963V51.7516ZM69.1185 82.7988L58.0467 99.3063L54.3835 97.8272L59.4667 85.4516C59.5414 85.2694 59.5824 85.0758 59.5867 84.8786L59.9041 71.2777L68.5795 80.5041L69.1185 82.7988ZM79.5846 78.1517L80.2658 99.6783H76.3865L71.6124 79.3479C71.5477 79.0728 71.4119 78.8202 71.2183 78.614L60.1064 66.7964C60.0379 66.6344 59.9743 66.4232 59.9153 66.1732C59.9046 66.1405 59.9059 66.1039 59.8934 66.0725C59.7469 65.4141 59.6307 64.5067 59.5465 63.4638L62.0881 63.1433C62.9394 63.0352 63.5565 62.2787 63.4899 61.423L63.2713 58.6118H73.8724L79.5846 78.1517Z" fill="#5EC738"/>
<path d="M68.2451 16.0829C72.6799 16.0829 76.2884 12.475 76.2884 8.0415C76.2884 3.60787 72.6799 0 68.2451 0C63.811 0 60.2031 3.60787 60.2031 8.0415C60.2031 12.475 63.811 16.0829 68.2451 16.0829ZM68.2451 3.21706C70.906 3.21706 73.0714 5.38112 73.0714 8.0415C73.0714 10.7018 70.906 12.8658 68.2451 12.8658C65.5848 12.8658 63.4202 10.7018 63.4202 8.0415C63.4202 5.38112 65.5848 3.21706 68.2451 3.21706Z" fill="#5EC738"/>
<path d="M132.581 48.0253L109.088 34.4778" stroke="#5EC738" stroke-width="3" stroke-linecap="round" stroke-linejoin="round"/>
<path d="M144.33 65.2519V44.3694C144.329 43.4539 144.088 42.5547 143.629 41.7621C143.171 40.9695 142.513 40.3113 141.72 39.8536L123.448 29.4123C122.654 28.9541 121.754 28.7129 120.837 28.7129C119.921 28.7129 119.021 28.9541 118.227 29.4123L99.955 39.8536C99.1622 40.3113 98.5037 40.9695 98.0455 41.7621C97.5873 42.5547 97.3457 43.4539 97.3447 44.3694V65.2519C97.3457 66.1674 97.5873 67.0666 98.0455 67.8592C98.5037 68.6518 99.1622 69.31 99.955 69.7677L118.227 80.209C119.021 80.6672 119.921 80.9084 120.837 80.9084C121.754 80.9084 122.654 80.6672 123.448 80.209L141.72 69.7677C142.513 69.31 143.171 68.6518 143.629 67.8592C144.088 67.0666 144.329 66.1674 144.33 65.2519Z" stroke="#5EC738" stroke-width="3" stroke-linecap="round" stroke-linejoin="round"/>
<path d="M98.0503 41.656L120.838 54.8381L143.626 41.656" stroke="#5EC738" stroke-width="3" stroke-linecap="round" stroke-linejoin="round"/>
<path d="M120.843 81.1224V54.8105" stroke="#5EC738" stroke-width="3" stroke-linecap="round" stroke-linejoin="round"/>
</svg>
