<svg width="179" height="93" viewBox="0 0 179 93" fill="none" xmlns="http://www.w3.org/2000/svg">
<path d="M81.3307 31.2952C81.3425 31.1909 81.3425 31.0855 81.3307 30.9812C81.3439 30.8874 81.3439 30.7923 81.3307 30.6985L69.4439 5.73015C69.1959 5.17329 68.6437 4.81603 68.0362 4.81936H13.2944C12.6869 4.81603 12.1348 5.17329 11.8868 5.73015L0.156405 30.6671C0.142447 30.8658 0.142447 31.0652 0.156405 31.2638H0V88.0472C0 88.9145 0.700249 89.6175 1.56405 89.6175H79.7666C80.6304 89.6175 81.3307 88.9145 81.3307 88.0472V31.3266V31.2952ZM39.1013 42.8843C39.1013 46.4748 36.2022 49.3855 32.6261 49.3855H29.1539C25.5778 49.3855 22.6787 46.4748 22.6787 42.8843V32.897H39.1013V42.8843ZM19.5506 42.8843C19.5506 46.4748 16.6516 49.3855 13.0755 49.3855H9.60327C6.02713 49.3855 3.1281 46.4748 3.1281 42.8843V32.897H19.5506V42.8843ZM42.2294 7.96003H54.0849L58.3078 29.7563H42.2294V7.96003ZM39.1013 29.7563H23.0228L27.2458 7.96003H39.1013V29.7563ZM42.2294 32.897H58.6519V42.8843C58.6519 46.4748 55.7529 49.3855 52.1767 49.3855H48.7045C45.1284 49.3855 42.2294 46.4748 42.2294 42.8843V32.897ZM61.78 32.897H78.2025V42.8843C78.2025 46.4748 75.3035 49.3855 71.7274 49.3855H68.2552C64.679 49.3855 61.78 46.4748 61.78 42.8843V32.897ZM77.4205 29.7563H61.4985L57.2755 7.96003H67.0352L77.4205 29.7563ZM14.2954 7.96003H24.0551L19.8322 29.7563H4.19166L14.2954 7.96003ZM15.6405 86.4769V60.5349H31.8128V81.7659C31.8294 82.6261 32.52 83.3195 33.3768 83.3362C34.2406 83.3362 34.9409 82.6331 34.9409 81.7659V58.9646C34.9409 58.0973 34.2406 57.3942 33.3768 57.3942H14.0765C13.2196 57.4109 12.529 58.1043 12.5124 58.9646V86.4769H3.1281V49.9508C4.87756 51.6114 7.19576 52.5334 9.60327 52.5262H13.0755C16.3219 52.514 19.3439 50.8612 21.1147 48.1292C22.8855 50.8612 25.9075 52.514 29.1539 52.5262H32.6261C35.8725 52.514 38.8946 50.8612 40.6653 48.1292C42.4361 50.8612 45.4581 52.514 48.7045 52.5262H52.1767C55.4232 52.514 58.4452 50.8612 60.216 48.1292C61.9867 50.8612 65.0088 52.514 68.2552 52.5262H71.7274C74.1349 52.5334 76.4531 51.6114 78.2025 49.9508V86.4769H15.6405Z" fill="#979797"/>
<path d="M27.8396 71.2131H26.1817C25.3249 71.2298 24.6343 71.9232 24.6177 72.7835C24.6177 73.6507 25.3179 74.3538 26.1817 74.3538H27.8396C28.7034 74.3538 29.4037 73.6507 29.4037 72.7835C29.4037 71.9162 28.7034 71.2131 27.8396 71.2131Z" fill="#979797"/>
<path d="M69.0388 60.6612C69.9026 60.6612 70.6028 59.9581 70.6028 59.0908C70.6028 58.2236 69.9026 57.5205 69.0388 57.5205H42.794C41.9302 57.5205 41.23 58.2236 41.23 59.0908V75.9248C41.23 76.7921 41.9302 77.4952 42.794 77.4952H69.0388C69.9026 77.4952 70.6028 76.7921 70.6028 75.9248V67.0996C70.5862 66.2393 69.8956 65.5459 69.0388 65.5292C68.175 65.5292 67.4747 66.2323 67.4747 67.0996V74.3545H44.3581V60.6612H69.0388Z" fill="#979797"/>
<path d="M128.184 45.5249L116.654 33.0424V30.7415C116.654 30.4657 116.647 30.1909 116.635 29.9217C116.455 25.8228 114.495 20.6201 110.521 18.2389C108.714 17.1545 105.762 16.2487 101.957 18.0747C96.2715 20.7989 93.0978 29.0796 92.555 35.6213C92.3088 38.5867 92.435 41.8078 92.9521 45.7628C93.0515 46.519 94.2605 50.4862 94.5018 51.2736C95.9979 56.1579 96.2325 56.9229 97.164 56.9229C97.2941 56.9229 97.4376 56.9073 97.6002 56.8872L98.5668 56.7654C98.6511 57.7148 98.7751 58.6307 98.9549 59.4092L98.5886 75.1073L93.6245 87.1922C93.4798 87.544 93.4815 87.9394 93.6295 88.2901C93.777 88.6408 94.059 88.9177 94.412 89.0607L100.078 91.3481C100.252 91.4186 100.433 91.4521 100.612 91.4521C101.078 91.4521 101.529 91.2243 101.801 90.8188L110.804 77.3857L113.848 90.3497C113.999 90.9953 114.576 91.4521 115.239 91.4521H121.295C121.682 91.4521 122.053 91.2957 122.322 91.0176C122.591 90.7394 122.737 90.3642 122.724 89.9777L122.067 69.1887C122.063 69.0682 122.044 68.9487 122.01 68.8325L116.654 50.5119V47.8302C117.795 48.5361 118.956 49.2408 120.15 49.9579C121.267 50.628 122.398 51.3072 123.532 52.0063C123.765 52.1504 124.024 52.2186 124.281 52.2186C124.744 52.2186 125.198 51.9929 125.473 51.5797L128.325 47.2863C128.69 46.7379 128.632 46.0096 128.184 45.5249ZM121.621 47.5063C119.906 46.4766 118.245 45.4758 116.654 44.4571V37.2576L125.321 46.6407L123.853 48.851C123.105 48.3965 122.36 47.9497 121.621 47.5063ZM113.795 45.9962V49.2342H104.493L104.314 46.9355L103.689 38.8916C104.616 37.4341 105.649 35.4895 106.706 33.3718C107.434 31.9121 108.175 30.373 108.903 28.845C109.242 28.1325 108.939 27.2792 108.227 26.9396C107.515 26.6023 106.66 26.9039 106.322 27.6165C104.478 31.4865 102.551 35.4549 101.036 37.7256C100.859 37.9914 100.775 38.3097 100.801 38.6291L101.954 53.4549L101.269 53.5421L98.4138 53.9028L98.3417 53.9117C97.5912 51.6857 95.9119 46.1336 95.7868 45.3909C95.2971 41.6447 95.1758 38.6146 95.4042 35.8581C95.8852 30.0658 98.778 22.768 103.192 20.6525C104.247 20.1466 105.262 19.8942 106.229 19.8942C107.222 19.8942 108.164 20.16 109.051 20.6916C111.661 22.2553 113.605 26.1031 113.779 30.0513C113.789 30.2803 113.795 30.5104 113.795 30.7415V33.5048V33.5841V37.1929V42.5227V44.2584V45.9962ZM109.912 73.5905L100.072 88.2622L96.816 86.9476L101.334 75.9483C101.4 75.7863 101.437 75.6143 101.441 75.439L101.723 63.3508L109.433 71.5511L109.912 73.5905ZM119.214 69.4602L119.82 88.5928H116.372L112.129 70.5234C112.071 70.2789 111.951 70.0544 111.779 69.8712L101.902 59.3678C101.842 59.2238 101.785 59.0361 101.733 58.8139C101.723 58.7848 101.724 58.7524 101.713 58.7245C101.583 58.1392 101.48 57.3328 101.405 56.4058L103.664 56.121C104.42 56.025 104.969 55.3526 104.91 54.592L104.715 52.0935H114.138L119.214 69.4602Z" fill="#979797"/>
<path d="M109.136 14.2942C113.077 14.2942 116.285 11.0876 116.285 7.14717C116.285 3.20663 113.077 0 109.136 0C105.195 0 101.988 3.20663 101.988 7.14717C101.988 11.0876 105.195 14.2942 109.136 14.2942ZM109.136 2.85928C111.501 2.85928 113.425 4.78266 113.425 7.14717C113.425 9.51157 111.501 11.4349 109.136 11.4349C106.771 11.4349 104.848 9.51157 104.848 7.14717C104.848 4.78266 106.771 2.85928 109.136 2.85928Z" fill="#979797"/>
<path d="M166.317 61.1645L145.437 49.1237" stroke="#979797" stroke-width="3" stroke-linecap="round" stroke-linejoin="round"/>
<path d="M176.76 76.4753V57.9153C176.759 57.1016 176.544 56.3024 176.137 55.598C175.73 54.8935 175.144 54.3085 174.44 53.9017L158.2 44.6216C157.494 44.2144 156.694 44 155.88 44C155.065 44 154.265 44.2144 153.56 44.6216L137.32 53.9017C136.615 54.3085 136.03 54.8935 135.622 55.598C135.215 56.3024 135 57.1016 135 57.9153V76.4753C135 77.289 135.215 78.0882 135.622 78.7927C136.03 79.4971 136.615 80.0821 137.32 80.489L153.56 89.769C154.265 90.1762 155.065 90.3906 155.88 90.3906C156.694 90.3906 157.494 90.1762 158.2 89.769L174.44 80.489C175.144 80.0821 175.73 79.4971 176.137 78.7927C176.544 78.0882 176.759 77.289 176.76 76.4753Z" stroke="#979797" stroke-width="3" stroke-linecap="round" stroke-linejoin="round"/>
<path d="M135.626 55.5035L155.88 67.2196L176.134 55.5035" stroke="#979797" stroke-width="3" stroke-linecap="round" stroke-linejoin="round"/>
<path d="M155.885 90.5808V67.1952" stroke="#979797" stroke-width="3" stroke-linecap="round" stroke-linejoin="round"/>
</svg>
