<svg width="286" height="320" viewBox="0 0 286 320" fill="none" xmlns="http://www.w3.org/2000/svg">
<path d="M44.424 307.345C47.736 307.345 48.984 304.513 48.984 301.521C48.984 298.497 47.704 295.697 44.424 295.697C41.144 295.697 39.848 298.481 39.848 301.521C39.848 304.513 41.112 307.345 44.424 307.345ZM44.424 306.177C41.976 306.177 41.176 303.745 41.176 301.521C41.176 299.313 41.96 296.865 44.424 296.865C46.872 296.865 47.656 299.297 47.656 301.521C47.656 303.745 46.872 306.177 44.424 306.177ZM60.2921 303.089C60.2921 301.201 59.4761 298.993 56.0521 298.833V295.345H54.8201V298.833C51.4121 298.993 50.5801 301.201 50.5801 303.089C50.5801 304.961 51.4121 307.153 54.8201 307.345V310.513H56.0521V307.345C59.4761 307.169 60.2921 304.961 60.2921 303.089ZM51.8921 303.089C51.8921 301.777 52.3881 300.081 54.8201 299.905V306.289C52.3881 306.129 51.8921 304.385 51.8921 303.089ZM56.0521 306.289V299.921C58.5001 300.081 58.9801 301.777 58.9801 303.089C58.9801 304.385 58.5001 306.129 56.0521 306.289ZM61.1783 307.185C63.3063 307.361 63.8503 305.649 63.9943 302.897L64.1383 300.097H66.8743V307.121H68.1063V299.009H62.9703L62.7943 302.289C62.6823 304.449 62.5063 306.177 61.1783 306.049V307.185ZM73.6276 298.865C72.7796 298.865 71.8676 299.041 70.9876 299.537V300.721C71.7716 300.225 72.6676 299.953 73.5316 299.953C74.6676 299.953 75.2436 300.657 75.2436 301.665V302.001C74.8596 301.937 74.5076 301.921 74.1076 301.921C71.9636 301.921 70.3476 302.865 70.3476 304.849C70.3476 306.353 71.2276 307.281 72.6996 307.281C73.8356 307.281 74.7316 306.769 75.2916 306.113H75.3236L75.4036 307.121H76.4756V301.649C76.4756 299.953 75.3876 298.865 73.6276 298.865ZM73.0836 306.209C72.0916 306.209 71.6756 305.649 71.6756 304.817C71.6756 303.617 72.6196 302.929 74.2516 302.929C74.6036 302.929 74.9556 302.961 75.2436 303.009V304.033C75.2436 305.361 74.2196 306.209 73.0836 306.209ZM82.4053 297.777C83.1093 297.777 83.7333 297.633 84.2133 297.329V296.353C83.5893 296.657 82.9653 296.769 82.4053 296.769C81.8453 296.769 81.2213 296.657 80.5973 296.353V297.345C81.0773 297.633 81.7013 297.777 82.4053 297.777ZM79.1893 307.233H79.4453L83.5573 302.673C83.8293 302.369 84.0853 302.065 84.3413 301.761H84.3573C84.3253 302.417 84.3253 302.993 84.3253 303.617V307.121H85.5573V298.913H85.3013L81.1893 303.521C80.9173 303.825 80.6773 304.097 80.4213 304.417H80.4053C80.4213 303.953 80.4213 303.473 80.4213 303.009V299.009H79.1893V307.233ZM93.4008 299.009V302.337H89.6088V299.009H88.3768V307.121H89.6088V303.473H93.4008V307.121H94.6328V299.009H93.4008ZM100.971 307.233H101.227L105.339 302.673C105.611 302.369 105.867 302.065 106.123 301.761H106.139C106.107 302.417 106.107 302.993 106.107 303.617V307.121H107.339V298.913H107.083L102.971 303.521C102.699 303.825 102.459 304.097 102.203 304.417H102.187C102.203 303.953 102.203 303.473 102.203 303.009V299.009H100.971V307.233ZM109.022 307.185C111.15 307.361 111.694 305.649 111.838 302.897L111.982 300.097H114.718V307.121H115.95V299.009H110.814L110.638 302.289C110.526 304.449 110.35 306.177 109.022 306.049V307.185ZM118.767 307.233H119.023L123.135 302.673C123.407 302.369 123.663 302.065 123.919 301.761H123.935C123.903 302.417 123.903 302.993 123.903 303.617V307.121H125.135V298.913H124.879L120.767 303.521C120.495 303.825 120.255 304.097 119.999 304.417H119.983C119.999 303.953 119.999 303.473 119.999 303.009V299.009H118.767V307.233ZM134.447 307.345C136.607 307.345 138.031 305.649 138.031 303.089C138.031 300.481 136.623 298.785 134.447 298.785C132.271 298.785 130.863 300.481 130.863 303.089C130.863 305.649 132.287 307.345 134.447 307.345ZM134.447 306.257C133.071 306.257 132.143 304.977 132.143 303.089C132.143 301.121 133.055 299.857 134.447 299.857C135.839 299.857 136.751 301.121 136.751 303.089C136.751 304.977 135.823 306.257 134.447 306.257ZM145.26 299.009V302.337H141.468V299.009H140.236V307.121H141.468V303.473H145.26V307.121H146.492V299.009H145.26ZM148.178 307.185C150.306 307.361 150.85 305.649 150.994 302.897L151.138 300.097H153.874V307.121H155.106V299.009H149.97L149.794 302.289C149.682 304.449 149.506 306.177 148.178 306.049V307.185ZM160.628 298.865C159.78 298.865 158.868 299.041 157.988 299.537V300.721C158.772 300.225 159.668 299.953 160.532 299.953C161.668 299.953 162.244 300.657 162.244 301.665V302.001C161.86 301.937 161.508 301.921 161.108 301.921C158.964 301.921 157.348 302.865 157.348 304.849C157.348 306.353 158.228 307.281 159.7 307.281C160.836 307.281 161.732 306.769 162.292 306.113H162.324L162.404 307.121H163.476V301.649C163.476 299.953 162.388 298.865 160.628 298.865ZM160.084 306.209C159.092 306.209 158.676 305.649 158.676 304.817C158.676 303.617 159.62 302.929 161.252 302.929C161.604 302.929 161.956 302.961 162.244 303.009V304.033C162.244 305.361 161.22 306.209 160.084 306.209ZM169.405 297.777C170.109 297.777 170.733 297.633 171.213 297.329V296.353C170.589 296.657 169.965 296.769 169.405 296.769C168.845 296.769 168.221 296.657 167.597 296.353V297.345C168.077 297.633 168.701 297.777 169.405 297.777ZM166.189 307.233H166.445L170.557 302.673C170.829 302.369 171.085 302.065 171.341 301.761H171.357C171.325 302.417 171.325 302.993 171.325 303.617V307.121H172.557V298.913H172.301L168.189 303.521C167.917 303.825 167.677 304.097 167.421 304.417H167.405C167.421 303.953 167.421 303.473 167.421 303.009V299.009H166.189V307.233ZM180.401 299.009V302.337H176.609V299.009H175.377V307.121H176.609V303.473H180.401V307.121H181.633V299.009H180.401ZM187.043 307.121H188.291L188.995 303.793C189.139 303.105 189.219 302.433 189.299 301.745H189.331C189.587 302.305 189.827 302.801 190.099 303.329L191.523 306.129H191.907L193.363 303.297C193.635 302.769 193.859 302.257 194.115 301.745H194.147C194.227 302.433 194.323 303.105 194.467 303.793L195.171 307.121H196.419L194.675 298.945H194.371L192.515 302.593C192.259 303.105 192.003 303.601 191.747 304.097H191.715C191.475 303.617 191.235 303.169 190.979 302.657L189.091 298.945H188.787L187.043 307.121ZM201.018 298.865C200.17 298.865 199.258 299.041 198.378 299.537V300.721C199.162 300.225 200.058 299.953 200.922 299.953C202.058 299.953 202.634 300.657 202.634 301.665V302.001C202.25 301.937 201.898 301.921 201.498 301.921C199.354 301.921 197.738 302.865 197.738 304.849C197.738 306.353 198.618 307.281 200.09 307.281C201.226 307.281 202.122 306.769 202.682 306.113H202.714L202.794 307.121H203.866V301.649C203.866 299.953 202.778 298.865 201.018 298.865ZM200.474 306.209C199.482 306.209 199.066 305.649 199.066 304.817C199.066 303.617 200.01 302.929 201.642 302.929C201.994 302.929 202.346 302.961 202.634 303.009V304.033C202.634 305.361 201.61 306.209 200.474 306.209ZM206.58 307.121H207.812V300.145H211.124V299.009H206.58V307.121ZM215.424 298.865C214.577 298.865 213.664 299.041 212.785 299.537V300.721C213.569 300.225 214.465 299.953 215.329 299.953C216.465 299.953 217.041 300.657 217.041 301.665V302.001C216.657 301.937 216.305 301.921 215.905 301.921C213.761 301.921 212.145 302.865 212.145 304.849C212.145 306.353 213.025 307.281 214.497 307.281C215.633 307.281 216.529 306.769 217.089 306.113H217.121L217.201 307.121H218.273V301.649C218.273 299.953 217.185 298.865 215.424 298.865ZM214.881 306.209C213.889 306.209 213.473 305.649 213.473 304.817C213.473 303.617 214.417 302.929 216.049 302.929C216.401 302.929 216.753 302.961 217.041 303.009V304.033C217.041 305.361 216.016 306.209 214.881 306.209ZM223.818 302.801C224.554 302.481 225.226 301.777 225.226 300.833C225.226 299.489 224.138 298.865 222.762 298.865C221.914 298.865 221.098 299.089 220.474 299.393L220.458 300.545C220.986 300.225 221.786 299.953 222.458 299.953C223.45 299.953 223.93 300.289 223.93 301.025C223.93 301.889 223.21 302.401 222.25 302.401H221.37L221.354 303.457H222.522C223.69 303.457 224.234 303.873 224.234 304.769C224.234 305.761 223.45 306.209 222.442 306.209C221.626 306.209 220.81 306.033 220.202 305.665L220.186 306.849C220.938 307.137 221.642 307.281 222.49 307.281C224.154 307.281 225.546 306.353 225.546 304.833C225.546 303.649 224.826 303.041 223.818 302.801ZM227.596 307.233H227.852L231.964 302.673C232.236 302.369 232.492 302.065 232.748 301.761H232.764C232.732 302.417 232.732 302.993 232.732 303.617V307.121H233.964V298.913H233.708L229.596 303.521C229.324 303.825 229.084 304.097 228.828 304.417H228.812C228.828 303.953 228.828 303.473 228.828 303.009V299.009H227.596V307.233ZM241.807 299.009V302.337H238.015V299.009H236.783V307.121H238.015V303.473H241.807V307.121H243.039V299.009H241.807Z" fill="#2E2E2E"/>
<path d="M49.2546 28.032C50.1826 27.6 50.7106 26.752 50.7106 25.648C50.7106 23.824 49.5426 22.8 47.4466 22.8H44.5506V34H47.4786C49.9426 34 51.2386 32.912 51.2386 30.848C51.2386 29.376 50.5346 28.4 49.2546 28.032ZM49.3986 25.744C49.3986 26.88 48.6626 27.52 47.4306 27.52H45.8466V23.968H47.4306C48.7586 23.968 49.3986 24.528 49.3986 25.744ZM47.4946 32.832H45.8466V28.688H47.4786C49.0786 28.688 49.9106 29.376 49.9106 30.768C49.9106 32.208 49.1586 32.832 47.4946 32.832ZM53.3772 34H56.4972C58.2252 34 59.3932 32.96 59.3932 31.28C59.3932 29.6 58.2252 28.576 56.4972 28.576H54.6092V25.888H53.3772V34ZM61.3612 34H62.5932V25.888H61.3612V34ZM54.6092 32.96V29.6H56.1132C57.5212 29.6 58.1132 30.096 58.1132 31.28C58.1132 32.448 57.5052 32.96 56.1132 32.96H54.6092ZM68.6085 34.224C70.6725 34.224 72.0965 32.608 72.0965 30.24C72.0965 27.712 70.9125 26.24 68.9125 26.24C67.7765 26.24 66.9605 26.624 66.3685 27.456L66.3365 27.44C66.5445 25.04 67.3765 24.032 69.2805 23.84C70.0965 23.76 70.7685 23.616 71.3125 23.392V22.096C70.8165 22.368 70.2245 22.544 69.0085 22.672C66.1125 22.976 65.1205 24.736 65.1205 29.504C65.1205 32.608 66.3045 34.224 68.6085 34.224ZM68.6085 33.152C67.3125 33.152 66.4485 31.984 66.4485 30.24C66.4485 28.496 67.3125 27.328 68.6085 27.328C69.9045 27.328 70.7845 28.512 70.7845 30.24C70.7845 31.968 69.9045 33.152 68.6085 33.152ZM77.197 34.224C79.357 34.224 80.781 32.528 80.781 29.968C80.781 27.36 79.373 25.664 77.197 25.664C75.021 25.664 73.613 27.36 73.613 29.968C73.613 32.528 75.037 34.224 77.197 34.224ZM77.197 33.136C75.821 33.136 74.893 31.856 74.893 29.968C74.893 28 75.805 26.736 77.197 26.736C78.589 26.736 79.501 28 79.501 29.968C79.501 31.856 78.573 33.136 77.197 33.136ZM82.9866 37.392H84.2186V34C84.2186 33.76 84.2186 33.568 84.1866 33.024H84.2186C84.7306 33.776 85.5946 34.224 86.5706 34.224C88.6026 34.224 89.8986 32.48 89.8986 29.92C89.8986 27.36 88.6026 25.664 86.6666 25.664C85.6906 25.664 84.8746 26.064 84.1706 26.896H84.1386L84.0586 25.888H82.9866V37.392ZM86.3946 33.152C85.0506 33.152 84.2186 31.936 84.2186 29.984C84.2186 27.888 85.0026 26.752 86.4586 26.752C87.8186 26.752 88.6186 27.952 88.6186 29.968C88.6186 31.936 87.8186 33.152 86.3946 33.152ZM96.9872 34H98.2192V27.024H100.683V25.888H94.5232V27.024H96.9872V34ZM105.181 34.224C107.341 34.224 108.765 32.528 108.765 29.968C108.765 27.36 107.357 25.664 105.181 25.664C103.005 25.664 101.597 27.36 101.597 29.968C101.597 32.528 103.021 34.224 105.181 34.224ZM105.181 33.136C103.805 33.136 102.877 31.856 102.877 29.968C102.877 28 103.789 26.736 105.181 26.736C106.573 26.736 107.485 28 107.485 29.968C107.485 31.856 106.557 33.136 105.181 33.136ZM115.371 29.728C116.075 29.392 116.491 28.768 116.491 28.016C116.491 26.656 115.547 25.888 113.851 25.888H110.971V34H113.995C115.739 34 116.827 33.104 116.827 31.696C116.827 30.672 116.331 30 115.371 29.728ZM113.739 26.96C114.715 26.96 115.163 27.312 115.163 28.08C115.163 28.896 114.683 29.312 113.739 29.312H112.219V26.96H113.739ZM113.883 32.912H112.219V30.336H113.883C114.955 30.336 115.499 30.752 115.499 31.584C115.499 32.464 114.955 32.912 113.883 32.912ZM121.566 25.744C120.718 25.744 119.806 25.92 118.926 26.416V27.6C119.71 27.104 120.606 26.832 121.47 26.832C122.606 26.832 123.182 27.536 123.182 28.544V28.88C122.798 28.816 122.446 28.8 122.046 28.8C119.902 28.8 118.286 29.744 118.286 31.728C118.286 33.232 119.166 34.16 120.638 34.16C121.774 34.16 122.67 33.648 123.23 32.992H123.262L123.342 34H124.414V28.528C124.414 26.832 123.326 25.744 121.566 25.744ZM121.022 33.088C120.03 33.088 119.614 32.528 119.614 31.696C119.614 30.496 120.558 29.808 122.19 29.808C122.542 29.808 122.894 29.84 123.182 29.888V30.912C123.182 32.24 122.158 33.088 121.022 33.088ZM127.127 37.392H128.359V34C128.359 33.76 128.359 33.568 128.327 33.024H128.359C128.871 33.776 129.735 34.224 130.711 34.224C132.743 34.224 134.039 32.48 134.039 29.92C134.039 27.36 132.743 25.664 130.807 25.664C129.831 25.664 129.015 26.064 128.311 26.896H128.279L128.199 25.888H127.127V37.392ZM130.535 33.152C129.191 33.152 128.359 31.936 128.359 29.984C128.359 27.888 129.143 26.752 130.599 26.752C131.959 26.752 132.759 27.952 132.759 29.968C132.759 31.936 131.959 33.152 130.535 33.152ZM138.956 25.744C138.108 25.744 137.196 25.92 136.316 26.416V27.6C137.1 27.104 137.996 26.832 138.86 26.832C139.996 26.832 140.572 27.536 140.572 28.544V28.88C140.188 28.816 139.836 28.8 139.436 28.8C137.292 28.8 135.676 29.744 135.676 31.728C135.676 33.232 136.556 34.16 138.028 34.16C139.164 34.16 140.06 33.648 140.62 32.992H140.652L140.732 34H141.804V28.528C141.804 26.832 140.716 25.744 138.956 25.744ZM138.412 33.088C137.42 33.088 137.004 32.528 137.004 31.696C137.004 30.496 137.948 29.808 139.58 29.808C139.932 29.808 140.284 29.84 140.572 29.888V30.912C140.572 32.24 139.548 33.088 138.412 33.088ZM48.5026 73.224C51.8146 73.224 53.0626 70.392 53.0626 67.4C53.0626 64.376 51.7826 61.576 48.5026 61.576C45.2226 61.576 43.9266 64.36 43.9266 67.4C43.9266 70.392 45.1906 73.224 48.5026 73.224ZM48.5026 72.056C46.0546 72.056 45.2546 69.624 45.2546 67.4C45.2546 65.192 46.0386 62.744 48.5026 62.744C50.9506 62.744 51.7346 65.176 51.7346 67.4C51.7346 69.624 50.9506 72.056 48.5026 72.056ZM55.3147 73H56.5467V65.976H60.1947V73H61.4267V64.888H55.3147V73ZM63.1006 73.064C65.2286 73.24 65.7726 71.528 65.9166 68.776L66.0606 65.976H68.7966V73H70.0286V64.888H64.8926L64.7166 68.168C64.6046 70.328 64.4286 72.056 63.1006 71.928V73.064ZM75.55 64.744C74.702 64.744 73.79 64.92 72.91 65.416V66.6C73.694 66.104 74.59 65.832 75.454 65.832C76.59 65.832 77.166 66.536 77.166 67.544V67.88C76.782 67.816 76.43 67.8 76.03 67.8C73.886 67.8 72.27 68.744 72.27 70.728C72.27 72.232 73.15 73.16 74.622 73.16C75.758 73.16 76.654 72.648 77.214 71.992H77.246L77.326 73H78.398V67.528C78.398 65.832 77.31 64.744 75.55 64.744ZM75.006 72.088C74.014 72.088 73.598 71.528 73.598 70.696C73.598 69.496 74.542 68.808 76.174 68.808C76.526 68.808 76.878 68.84 77.166 68.888V69.912C77.166 71.24 76.142 72.088 75.006 72.088ZM82.2841 73H83.5161V66.024H85.9801V64.888H79.8201V66.024H82.2841V73ZM90.2531 64.744C89.4051 64.744 88.4931 64.92 87.6131 65.416V66.6C88.3971 66.104 89.2931 65.832 90.1571 65.832C91.2931 65.832 91.8691 66.536 91.8691 67.544V67.88C91.4851 67.816 91.1331 67.8 90.7331 67.8C88.5891 67.8 86.9731 68.744 86.9731 70.728C86.9731 72.232 87.8531 73.16 89.3251 73.16C90.4611 73.16 91.3571 72.648 91.9171 71.992H91.9491L92.0291 73H93.1011V67.528C93.1011 65.832 92.0131 64.744 90.2531 64.744ZM89.7091 72.088C88.7171 72.088 88.3011 71.528 88.3011 70.696C88.3011 69.496 89.2451 68.808 90.8771 68.808C91.2291 68.808 91.5811 68.84 91.8691 68.888V69.912C91.8691 71.24 90.8451 72.088 89.7091 72.088ZM103.73 68.728C104.434 68.392 104.85 67.768 104.85 67.016C104.85 65.656 103.906 64.888 102.21 64.888H99.3304V73H102.354C104.098 73 105.186 72.104 105.186 70.696C105.186 69.672 104.69 69 103.73 68.728ZM102.098 65.96C103.074 65.96 103.522 66.312 103.522 67.08C103.522 67.896 103.042 68.312 102.098 68.312H100.578V65.96H102.098ZM102.242 71.912H100.578V69.336H102.242C103.314 69.336 103.858 69.752 103.858 70.584C103.858 71.464 103.314 71.912 102.242 71.912ZM107.221 73.112H107.477L111.589 68.552C111.861 68.248 112.117 67.944 112.373 67.64H112.389C112.357 68.296 112.357 68.872 112.357 69.496V73H113.589V64.792H113.333L109.221 69.4C108.949 69.704 108.709 69.976 108.453 70.296H108.437C108.453 69.832 108.453 69.352 108.453 68.888V64.888H107.221V73.112ZM116.408 76.392H117.64V73C117.64 72.76 117.64 72.568 117.608 72.024H117.64C118.152 72.776 119.016 73.224 119.992 73.224C122.024 73.224 123.32 71.48 123.32 68.92C123.32 66.36 122.024 64.664 120.088 64.664C119.112 64.664 118.296 65.064 117.592 65.896H117.56L117.48 64.888H116.408V76.392ZM119.816 72.152C118.472 72.152 117.64 70.936 117.64 68.984C117.64 66.888 118.424 65.752 119.88 65.752C121.24 65.752 122.04 66.952 122.04 68.968C122.04 70.936 121.24 72.152 119.816 72.152ZM126.69 73H127.922V66.024H130.386V64.888H124.226V66.024H126.69V73ZM136.864 64.888L135.312 69.048C135.12 69.576 134.928 70.12 134.64 71H134.624C134.288 70.04 134.112 69.56 133.92 69.08L132.272 64.888H130.896L134.016 72.6C133.296 74.888 132.672 75.544 131.44 75.56V76.616C133.392 76.568 133.968 75.992 135.12 72.952L138.192 64.888H136.864ZM142.362 64.744C141.514 64.744 140.602 64.92 139.722 65.416V66.6C140.506 66.104 141.402 65.832 142.266 65.832C143.402 65.832 143.978 66.536 143.978 67.544V67.88C143.594 67.816 143.242 67.8 142.842 67.8C140.698 67.8 139.082 68.744 139.082 70.728C139.082 72.232 139.962 73.16 141.434 73.16C142.57 73.16 143.466 72.648 144.026 71.992H144.058L144.138 73H145.21V67.528C145.21 65.832 144.122 64.744 142.362 64.744ZM141.818 72.088C140.826 72.088 140.41 71.528 140.41 70.696C140.41 69.496 141.354 68.808 142.986 68.808C143.338 68.808 143.69 68.84 143.978 68.888V69.912C143.978 71.24 142.954 72.088 141.818 72.088ZM146.788 73.064C148.916 73.24 149.46 71.528 149.604 68.776L149.748 65.976H152.484V73H153.716V64.888H148.58L148.404 68.168C148.292 70.328 148.116 72.056 146.788 71.928V73.064ZM156.533 73H159.653C161.381 73 162.549 71.96 162.549 70.28C162.549 68.6 161.381 67.576 159.653 67.576H157.765V64.888H156.533V73ZM157.765 71.96V68.6H159.269C160.677 68.6 161.269 69.096 161.269 70.28C161.269 71.448 160.661 71.96 159.269 71.96H157.765ZM169.542 64.888V68.216H165.75V64.888H164.518V73H165.75V69.352H169.542V73H170.774V64.888H169.542ZM176.572 73.224C178.732 73.224 180.156 71.528 180.156 68.968C180.156 66.36 178.748 64.664 176.572 64.664C174.396 64.664 172.988 66.36 172.988 68.968C172.988 71.528 174.412 73.224 176.572 73.224ZM176.572 72.136C175.196 72.136 174.268 70.856 174.268 68.968C174.268 67 175.18 65.736 176.572 65.736C177.964 65.736 178.876 67 178.876 68.968C178.876 70.856 177.948 72.136 176.572 72.136ZM185.578 63.656C186.282 63.656 186.906 63.512 187.386 63.208V62.232C186.762 62.536 186.138 62.648 185.578 62.648C185.018 62.648 184.394 62.536 183.77 62.232V63.224C184.25 63.512 184.874 63.656 185.578 63.656ZM182.362 73.112H182.618L186.73 68.552C187.002 68.248 187.258 67.944 187.514 67.64H187.53C187.498 68.296 187.498 68.872 187.498 69.496V73H188.73V64.792H188.474L184.362 69.4C184.09 69.704 183.85 69.976 183.594 70.296H183.578C183.594 69.832 183.594 69.352 183.594 68.888V64.888H182.362V73.112ZM195.065 73H196.297V64.888H195.065V73ZM198.041 68.664L201.241 64.888H199.689L196.649 68.536V68.84L200.073 73H201.641L198.041 68.664ZM205.847 64.744C204.999 64.744 204.087 64.92 203.207 65.416V66.6C203.991 66.104 204.887 65.832 205.751 65.832C206.887 65.832 207.463 66.536 207.463 67.544V67.88C207.079 67.816 206.727 67.8 206.327 67.8C204.183 67.8 202.567 68.744 202.567 70.728C202.567 72.232 203.447 73.16 204.919 73.16C206.055 73.16 206.951 72.648 207.511 71.992H207.543L207.623 73H208.695V67.528C208.695 65.832 207.607 64.744 205.847 64.744ZM205.303 72.088C204.311 72.088 203.895 71.528 203.895 70.696C203.895 69.496 204.839 68.808 206.471 68.808C206.823 68.808 207.175 68.84 207.463 68.888V69.912C207.463 71.24 206.439 72.088 205.303 72.088ZM211.408 76.392H212.64V73C212.64 72.76 212.64 72.568 212.608 72.024H212.64C213.152 72.776 214.016 73.224 214.992 73.224C217.024 73.224 218.32 71.48 218.32 68.92C218.32 66.36 217.024 64.664 215.088 64.664C214.112 64.664 213.296 65.064 212.592 65.896H212.56L212.48 64.888H211.408V76.392ZM214.816 72.152C213.472 72.152 212.64 70.936 212.64 68.984C212.64 66.888 213.424 65.752 214.88 65.752C216.24 65.752 217.04 66.952 217.04 68.968C217.04 70.936 216.24 72.152 214.816 72.152ZM221.69 73H222.922V66.024H225.386V64.888H219.226V66.024H221.69V73ZM229.884 73.224C232.044 73.224 233.468 71.528 233.468 68.968C233.468 66.36 232.06 64.664 229.884 64.664C227.708 64.664 226.3 66.36 226.3 68.968C226.3 71.528 227.724 73.224 229.884 73.224ZM229.884 72.136C228.508 72.136 227.58 70.856 227.58 68.968C227.58 67 228.492 65.736 229.884 65.736C231.276 65.736 232.188 67 232.188 68.968C232.188 70.856 231.26 72.136 229.884 72.136ZM238.89 63.656C239.594 63.656 240.218 63.512 240.698 63.208V62.232C240.074 62.536 239.45 62.648 238.89 62.648C238.33 62.648 237.706 62.536 237.082 62.232V63.224C237.562 63.512 238.186 63.656 238.89 63.656ZM235.674 73.112H235.93L240.042 68.552C240.314 68.248 240.57 67.944 240.826 67.64H240.842C240.81 68.296 240.81 68.872 240.81 69.496V73H242.042V64.792H241.786L237.674 69.4C237.402 69.704 237.162 69.976 236.906 70.296H236.89C236.906 69.832 236.906 69.352 236.906 68.888V64.888H235.674V73.112ZM48.5026 112.224C51.8146 112.224 53.0626 109.392 53.0626 106.4C53.0626 103.376 51.7826 100.576 48.5026 100.576C45.2226 100.576 43.9266 103.36 43.9266 106.4C43.9266 109.392 45.1906 112.224 48.5026 112.224ZM48.5026 111.056C46.0546 111.056 45.2546 108.624 45.2546 106.4C45.2546 104.192 46.0386 101.744 48.5026 101.744C50.9506 101.744 51.7346 104.176 51.7346 106.4C51.7346 108.624 50.9506 111.056 48.5026 111.056ZM55.3147 112H56.5467V104.976H60.1947V112H61.4267V103.888H55.3147V112ZM63.1006 112.064C65.2286 112.24 65.7726 110.528 65.9166 107.776L66.0606 104.976H68.7966V112H70.0286V103.888H64.8926L64.7166 107.168C64.6046 109.328 64.4286 111.056 63.1006 110.928V112.064ZM75.55 103.744C74.702 103.744 73.79 103.92 72.91 104.416V105.6C73.694 105.104 74.59 104.832 75.454 104.832C76.59 104.832 77.166 105.536 77.166 106.544V106.88C76.782 106.816 76.43 106.8 76.03 106.8C73.886 106.8 72.27 107.744 72.27 109.728C72.27 111.232 73.15 112.16 74.622 112.16C75.758 112.16 76.654 111.648 77.214 110.992H77.246L77.326 112H78.398V106.528C78.398 104.832 77.31 103.744 75.55 103.744ZM75.006 111.088C74.014 111.088 73.598 110.528 73.598 109.696C73.598 108.496 74.542 107.808 76.174 107.808C76.526 107.808 76.878 107.84 77.166 107.888V108.912C77.166 110.24 76.142 111.088 75.006 111.088ZM82.2841 112H83.5161V105.024H85.9801V103.888H79.8201V105.024H82.2841V112ZM90.2531 103.744C89.4051 103.744 88.4931 103.92 87.6131 104.416V105.6C88.3971 105.104 89.2931 104.832 90.1571 104.832C91.2931 104.832 91.8691 105.536 91.8691 106.544V106.88C91.4851 106.816 91.1331 106.8 90.7331 106.8C88.5891 106.8 86.9731 107.744 86.9731 109.728C86.9731 111.232 87.8531 112.16 89.3251 112.16C90.4611 112.16 91.3571 111.648 91.9171 110.992H91.9491L92.0291 112H93.1011V106.528C93.1011 104.832 92.0131 103.744 90.2531 103.744ZM89.7091 111.088C88.7171 111.088 88.3011 110.528 88.3011 109.696C88.3011 108.496 89.2451 107.808 90.8771 107.808C91.2291 107.808 91.5811 107.84 91.8691 107.888V108.912C91.8691 110.24 90.8451 111.088 89.7091 111.088ZM100.69 112H101.922V105.024H104.386V103.888H98.2264V105.024H100.69V112ZM111.812 107.2C111.812 105.008 110.692 103.664 108.772 103.664C106.628 103.664 105.3 105.328 105.3 107.984C105.3 110.608 106.644 112.16 109.028 112.16C109.924 112.16 110.772 111.952 111.46 111.52V110.352C110.74 110.816 109.956 111.072 109.14 111.072C107.54 111.072 106.596 110.032 106.564 108.192H111.732C111.78 107.84 111.812 107.52 111.812 107.2ZM108.804 104.736C109.972 104.736 110.596 105.568 110.596 107.136H106.612C106.852 105.584 107.636 104.736 108.804 104.736ZM112.741 112.064C114.869 112.24 115.413 110.528 115.557 107.776L115.701 104.976H118.437V112H119.669V103.888H114.533L114.357 107.168C114.245 109.328 114.069 111.056 112.741 110.928V112.064ZM128.391 107.2C128.391 105.008 127.271 103.664 125.351 103.664C123.207 103.664 121.879 105.328 121.879 107.984C121.879 110.608 123.223 112.16 125.607 112.16C126.503 112.16 127.351 111.952 128.039 111.52V110.352C127.319 110.816 126.535 111.072 125.719 111.072C124.119 111.072 123.175 110.032 123.143 108.192H128.311C128.359 107.84 128.391 107.52 128.391 107.2ZM125.383 104.736C126.551 104.736 127.175 105.568 127.175 107.136H123.191C123.431 105.584 124.215 104.736 125.383 104.736ZM139.621 107.968C139.621 106.08 138.805 103.872 135.381 103.712V100.224H134.149V103.712C130.741 103.872 129.909 106.08 129.909 107.968C129.909 109.84 130.741 112.032 134.149 112.224V115.392H135.381V112.224C138.805 112.048 139.621 109.84 139.621 107.968ZM131.221 107.968C131.221 106.656 131.717 104.96 134.149 104.784V111.168C131.717 111.008 131.221 109.264 131.221 107.968ZM135.381 111.168V104.8C137.829 104.96 138.309 106.656 138.309 107.968C138.309 109.264 137.829 111.008 135.381 111.168ZM144.759 112.224C146.919 112.224 148.343 110.528 148.343 107.968C148.343 105.36 146.935 103.664 144.759 103.664C142.583 103.664 141.175 105.36 141.175 107.968C141.175 110.528 142.599 112.224 144.759 112.224ZM144.759 111.136C143.383 111.136 142.455 109.856 142.455 107.968C142.455 106 143.367 104.736 144.759 104.736C146.151 104.736 147.063 106 147.063 107.968C147.063 109.856 146.135 111.136 144.759 111.136ZM155.573 103.888V107.216H151.781V103.888H150.549V112H151.781V108.352H155.573V112H156.805V103.888H155.573ZM162.603 112.224C164.763 112.224 166.187 110.528 166.187 107.968C166.187 105.36 164.779 103.664 162.603 103.664C160.427 103.664 159.019 105.36 159.019 107.968C159.019 110.528 160.443 112.224 162.603 112.224ZM162.603 111.136C161.227 111.136 160.299 109.856 160.299 107.968C160.299 106 161.211 104.736 162.603 104.736C163.995 104.736 164.907 106 164.907 107.968C164.907 109.856 163.979 111.136 162.603 111.136ZM167.465 112H168.713L169.417 108.672C169.561 107.984 169.641 107.312 169.721 106.624H169.753C170.009 107.184 170.249 107.68 170.521 108.208L171.945 111.008H172.329L173.785 108.176C174.057 107.648 174.281 107.136 174.537 106.624H174.569C174.649 107.312 174.745 107.984 174.889 108.672L175.593 112H176.841L175.097 103.824H174.793L172.937 107.472C172.681 107.984 172.425 108.48 172.169 108.976H172.137C171.897 108.496 171.657 108.048 171.401 107.536L169.513 103.824H169.209L167.465 112Z" fill="#2E2E2E"/>
<path d="M187.508 205.972C187.521 205.855 187.521 205.736 187.508 205.619C187.523 205.514 187.523 205.407 187.508 205.301L174.133 177.208C173.854 176.582 173.233 176.18 172.55 176.184H110.958C110.274 176.18 109.653 176.582 109.374 177.208L96.176 205.266C96.1603 205.489 96.1603 205.714 96.176 205.937H96V269.826C96 270.802 96.7879 271.593 97.7598 271.593H185.748C186.72 271.593 187.508 270.802 187.508 269.826V206.008V205.972ZM139.994 219.012C139.994 223.051 136.732 226.326 132.709 226.326H128.802C124.778 226.326 121.517 223.051 121.517 219.012V207.775H139.994V219.012ZM117.997 219.012C117.997 223.051 114.735 226.326 110.712 226.326H106.805C102.781 226.326 99.5195 223.051 99.5195 219.012V207.775H117.997V219.012ZM143.514 179.717H156.853L161.604 204.241H143.514V179.717ZM139.994 204.241H121.904L126.655 179.717H139.994V204.241ZM143.514 207.775H161.991V219.012C161.991 223.051 158.729 226.326 154.706 226.326H150.799C146.775 226.326 143.514 223.051 143.514 219.012V207.775ZM165.511 207.775H183.988V219.012C183.988 223.051 180.726 226.326 176.703 226.326H172.796C168.772 226.326 165.511 223.051 165.511 219.012V207.775ZM183.108 204.241H165.194L160.442 179.717H171.423L183.108 204.241ZM112.084 179.717H123.065L118.314 204.241H100.716L112.084 179.717ZM113.598 268.059V238.871H131.794V262.758C131.812 263.726 132.589 264.507 133.553 264.525C134.525 264.525 135.313 263.734 135.313 262.758V237.104C135.313 236.128 134.525 235.337 133.553 235.337H111.838C110.874 235.356 110.097 236.136 110.078 237.104V268.059H99.5195V226.962C101.488 228.831 104.096 229.868 106.805 229.86H110.712C114.364 229.846 117.764 227.987 119.757 224.913C121.749 227.987 125.149 229.846 128.802 229.86H132.709C136.361 229.846 139.761 227.987 141.754 224.913C143.746 227.987 147.146 229.846 150.799 229.86H154.706C158.358 229.846 161.758 227.987 163.751 224.913C165.743 227.987 169.143 229.846 172.796 229.86H176.703C179.411 229.868 182.02 228.831 183.988 226.962V268.059H113.598Z" fill="#5EC738"/>
<path d="M127.323 250.885H125.458C124.494 250.904 123.717 251.684 123.698 252.652C123.698 253.628 124.486 254.419 125.458 254.419H127.323C128.295 254.419 129.083 253.628 129.083 252.652C129.083 251.676 128.295 250.885 127.323 250.885Z" fill="#5EC738"/>
<path d="M173.678 239.013C174.65 239.013 175.437 238.222 175.437 237.246C175.437 236.27 174.65 235.479 173.678 235.479H144.149C143.177 235.479 142.389 236.27 142.389 237.246V256.187C142.389 257.162 143.177 257.953 144.149 257.953H173.678C174.65 257.953 175.437 257.162 175.437 256.187V246.257C175.419 245.289 174.642 244.509 173.678 244.49C172.706 244.49 171.918 245.281 171.918 246.257V254.42H145.909V239.013H173.678Z" fill="#5EC738"/>
<path d="M135.116 137.476H134.616V137.976V161.1L110.443 137.617L110.298 137.476H110.095H25.92C21.28 137.476 17.8311 137.476 15.1022 137.245C12.3794 137.016 10.419 136.56 8.74709 135.674C6.00115 134.221 3.75553 131.975 2.30163 129.229C1.41638 127.557 0.960463 125.597 0.730698 122.874C0.500415 120.145 0.5 116.696 0.5 112.056V25.92C0.5 21.28 0.500415 17.8311 0.730698 15.1022C0.960463 12.3794 1.41638 10.419 2.30163 8.74709C3.75553 6.00114 6.00114 3.75553 8.74709 2.30163C10.419 1.41638 12.3794 0.960463 15.1022 0.730698C17.8311 0.500415 21.28 0.5 25.92 0.5H259.923C264.563 0.5 268.012 0.500415 270.741 0.730698C273.464 0.960463 275.424 1.41638 277.096 2.30163C279.842 3.75553 282.088 6.00114 283.542 8.74709C284.427 10.419 284.883 12.3794 285.113 15.1022C285.343 17.8311 285.343 21.28 285.343 25.92V112.056C285.343 116.696 285.343 120.145 285.113 122.874C284.883 125.597 284.427 127.557 283.542 129.229C282.088 131.975 279.842 134.221 277.096 135.674C275.424 136.56 273.464 137.016 270.741 137.245C268.012 137.476 264.563 137.476 259.923 137.476H135.116Z" stroke="#C6C6C6"/>
<path d="M25.3145 66.645L27.309 68.6396L33.9576 61.991" stroke="#52AE30" stroke-linecap="round" stroke-linejoin="round"/>
<path d="M33.2922 67.3097V71.9637C33.2922 72.3164 33.1521 72.6546 32.9027 72.904C32.6534 73.1533 32.3151 73.2934 31.9625 73.2934H22.6544C22.3018 73.2934 21.9635 73.1533 21.7142 72.904C21.4648 72.6546 21.3247 72.3164 21.3247 71.9637V62.6556C21.3247 62.303 21.4648 61.9648 21.7142 61.7154C21.9635 61.466 22.3018 61.3259 22.6544 61.3259H29.9679" stroke="#52AE30" stroke-linecap="round" stroke-linejoin="round"/>
<path d="M25.3145 26.8313L27.309 28.8259L33.9576 22.1772" stroke="#52AE30" stroke-linecap="round" stroke-linejoin="round"/>
<path d="M33.2922 27.496V32.15C33.2922 32.5026 33.1521 32.8409 32.9027 33.0902C32.6534 33.3396 32.3151 33.4797 31.9625 33.4797H22.6544C22.3018 33.4797 21.9635 33.3396 21.7142 33.0902C21.4648 32.8409 21.3247 32.5026 21.3247 32.15V22.8419C21.3247 22.4893 21.4648 22.151 21.7142 21.9017C21.9635 21.6523 22.3018 21.5122 22.6544 21.5122H29.9679" stroke="#52AE30" stroke-linecap="round" stroke-linejoin="round"/>
<path d="M25.3145 106.68L27.309 108.675L33.9576 102.026" stroke="#52AE30" stroke-linecap="round" stroke-linejoin="round"/>
<path d="M33.2922 107.345V111.999C33.2922 112.352 33.1521 112.69 32.9027 112.939C32.6534 113.189 32.3151 113.329 31.9625 113.329H22.6544C22.3018 113.329 21.9635 113.189 21.7142 112.939C21.4648 112.69 21.3247 112.352 21.3247 111.999V102.691C21.3247 102.338 21.4648 102 21.7142 101.751C21.9635 101.501 22.3018 101.361 22.6544 101.361H29.9679" stroke="#52AE30" stroke-linecap="round" stroke-linejoin="round"/>
</svg>
