<svg width="92" height="103" viewBox="0 0 92 103" fill="none" xmlns="http://www.w3.org/2000/svg">
<path d="M35.7508 55.5249L24.2204 43.0424V40.7415C24.2204 40.4657 24.2137 40.1909 24.2014 39.9217C24.021 35.8228 22.0609 30.6201 18.0874 28.2389C16.2808 27.1545 13.3283 26.2487 9.52308 28.0747C3.83792 30.7989 0.664229 39.0796 0.121438 45.6213C-0.124818 48.5867 0.00144944 51.8078 0.51852 55.7628C0.617912 56.519 1.82693 60.4862 2.06825 61.2736C3.56434 66.1579 3.79892 66.9229 4.73036 66.9229C4.86051 66.9229 5.00405 66.9073 5.16657 66.8872L6.13324 66.7654C6.21753 67.7148 6.3415 68.6307 6.52129 69.4092L6.15496 85.1073L1.19091 97.1922C1.04623 97.544 1.04795 97.9394 1.19594 98.2901C1.34337 98.6408 1.62542 98.9177 1.97836 99.0607L7.64442 101.348C7.81862 101.419 7.99954 101.452 8.17889 101.452C8.6446 101.452 9.09522 101.224 9.36721 100.819L18.37 87.3857L21.4141 100.35C21.5655 100.995 22.1423 101.452 22.8058 101.452H28.8617C29.2487 101.452 29.619 101.296 29.8887 101.018C30.1578 100.739 30.3031 100.364 30.2908 99.9777L29.633 79.1887C29.629 79.0682 29.61 78.9487 29.576 78.8325L24.2204 60.5119V57.8302C25.3619 58.5361 26.5223 59.2408 27.7163 59.9579C28.8332 60.628 29.9641 61.3072 31.0983 62.0063C31.3317 62.1504 31.5909 62.2186 31.8472 62.2186C32.3107 62.2186 32.7647 61.9929 33.0389 61.5797L35.8909 57.2863C36.2562 56.7379 36.1981 56.0096 35.7508 55.5249ZM29.1878 57.5063C27.4723 56.4766 25.8109 55.4758 24.2204 54.4571V47.2576L32.8876 56.6407L31.4195 58.851C30.6717 58.3965 29.9267 57.9497 29.1878 57.5063ZM21.3611 55.9962V59.2342H12.0595L11.8808 56.9355L11.2553 48.8916C12.1823 47.4341 13.215 45.4895 14.2721 43.3718C15.0009 41.9121 15.7414 40.373 16.4691 38.845C16.8086 38.1325 16.5059 37.2792 15.7934 36.9396C15.0813 36.6023 14.2268 36.9039 13.8879 37.6165C12.0444 41.4865 10.1178 45.4549 8.60274 47.7256C8.42512 47.9914 8.34186 48.3097 8.36702 48.6291L9.52022 63.4549L8.83502 63.5421L5.98021 63.9028L5.90815 63.9117C5.15765 61.6857 3.47834 56.1336 3.35321 55.3909C2.86347 51.6447 2.74224 48.6146 2.97064 45.8581C3.45157 40.0658 6.34437 32.768 10.7589 30.6525C11.8138 30.1466 12.828 29.8942 13.7958 29.8942C14.7882 29.8942 15.7308 30.16 16.6176 30.6916C19.2278 32.2553 21.1712 36.1031 21.3449 40.0513C21.3556 40.2803 21.3611 40.5104 21.3611 40.7415V43.5048V43.5841V47.1929V52.5227V54.2584V55.9962ZM17.4788 83.5905L7.63824 98.2622L4.38244 96.9476L8.90033 85.9483C8.96678 85.7863 9.00315 85.6143 9.00704 85.439L9.28908 73.3508L16.9996 81.5511L17.4788 83.5905ZM26.7809 79.4602L27.3863 98.5928H23.9384L19.6953 80.5234C19.6377 80.2789 19.5171 80.0544 19.3451 79.8712L9.46887 69.3678C9.40802 69.2238 9.35153 69.0361 9.29903 68.8139C9.28953 68.7848 9.29068 68.7524 9.27959 68.7245C9.14943 68.1392 9.04615 67.3328 8.97124 66.4058L11.2302 66.121C11.9869 66.025 12.5353 65.3526 12.4761 64.592L12.2818 62.0935H21.704L26.7809 79.4602Z" fill="#5EC738"/>
<path d="M16.7023 24.2942C20.6439 24.2942 23.8511 21.0876 23.8511 17.1472C23.8511 13.2066 20.6439 10 16.7023 10C12.7613 10 9.55469 13.2066 9.55469 17.1472C9.55469 21.0876 12.7613 24.2942 16.7023 24.2942ZM16.7023 12.8593C19.0673 12.8593 20.9918 14.7827 20.9918 17.1472C20.9918 19.5116 19.0673 21.4349 16.7023 21.4349C14.3378 21.4349 12.414 19.5116 12.414 17.1472C12.414 14.7827 14.3378 12.8593 16.7023 12.8593Z" fill="#5EC738"/>
<path d="M78.142 2H56.357C53.9507 2 52 3.95069 52 6.357V41.213C52 43.6193 53.9507 45.57 56.357 45.57H78.142C80.5483 45.57 82.499 43.6193 82.499 41.213V6.357C82.499 3.95069 80.5483 2 78.142 2Z" stroke="#5EC738" stroke-width="3" stroke-linecap="round" stroke-linejoin="round"/>
<path d="M52.3125 32.6801H82.1761" stroke="#5EC738" stroke-width="3"/>
<circle cx="67.2452" cy="39.0352" r="2.54158" fill="#5EC738"/>
<path d="M79.3171 71.1645L58.437 59.1237" stroke="#5EC738" stroke-width="3" stroke-linecap="round" stroke-linejoin="round"/>
<path d="M89.7601 86.4753V67.9153C89.7592 67.1016 89.5445 66.3024 89.1372 65.598C88.73 64.8935 88.1447 64.3085 87.4401 63.9017L71.2 54.6216C70.4947 54.2144 69.6945 54 68.88 54C68.0655 54 67.2654 54.2144 66.56 54.6216L50.32 63.9017C49.6153 64.3085 49.03 64.8935 48.6228 65.598C48.2156 66.3024 48.0008 67.1016 48 67.9153V86.4753C48.0008 87.289 48.2156 88.0882 48.6228 88.7927C49.03 89.4971 49.6153 90.0821 50.32 90.489L66.56 99.769C67.2654 100.176 68.0655 100.391 68.88 100.391C69.6945 100.391 70.4947 100.176 71.2 99.769L87.4401 90.489C88.1447 90.0821 88.73 89.4971 89.1372 88.7927C89.5445 88.0882 89.7592 87.289 89.7601 86.4753Z" stroke="#5EC738" stroke-width="3" stroke-linecap="round" stroke-linejoin="round"/>
<path d="M48.627 65.5035L68.8806 77.2196L89.1342 65.5035" stroke="#5EC738" stroke-width="3" stroke-linecap="round" stroke-linejoin="round"/>
<path d="M68.8853 100.581V77.1952" stroke="#5EC738" stroke-width="3" stroke-linecap="round" stroke-linejoin="round"/>
</svg>
