<svg width="66" height="93" viewBox="0 0 66 93" fill="none" xmlns="http://www.w3.org/2000/svg">
<path d="M55.3667 2.31982H10.9274C6.01878 2.31982 2.03955 6.29905 2.03955 11.2077V82.3105C2.03955 87.2191 6.01878 91.1983 10.9274 91.1983H55.3667C60.2753 91.1983 64.2546 87.2191 64.2546 82.3105V11.2077C64.2546 6.29905 60.2753 2.31982 55.3667 2.31982Z" stroke="#5EC738" stroke-width="3" stroke-linecap="round" stroke-linejoin="round"/>
<path d="M2.67725 64.9042H63.596" stroke="#5EC738" stroke-width="3"/>
<circle cx="33.1372" cy="77.868" r="5.18458" fill="#5EC738"/>
<path d="M51.8748 18.1666H15.1248C12.8697 18.1666 11.0415 19.9948 11.0415 22.25V46.75C11.0415 49.0051 12.8697 50.8333 15.1248 50.8333H51.8748C54.13 50.8333 55.9582 49.0051 55.9582 46.75V22.25C55.9582 19.9948 54.13 18.1666 51.8748 18.1666Z" stroke="#5EC738" stroke-width="2" stroke-linecap="round" stroke-linejoin="round"/>
<path d="M11.0415 27.4166H55.9582" stroke="#5EC738" stroke-width="2" stroke-linecap="round" stroke-linejoin="round"/>
<path d="M29.7134 32.5H35.9497C36.7767 32.5 37.5699 32.8285 38.1546 33.4133C38.7394 33.9981 39.0679 34.7912 39.0679 35.6182C39.0679 36.4452 38.7394 37.2383 38.1546 37.8231C37.5699 38.4078 36.7767 38.7364 35.9497 38.7364H29.7134V32.5Z" stroke="#6ECD4A" stroke-width="2" stroke-linecap="round" stroke-linejoin="round"/>
<path d="M29.7134 38.7363V44.9727" stroke="#6ECD4A" stroke-width="2" stroke-linecap="round" stroke-linejoin="round"/>
<path d="M36.7295 41.8546H27.3749" stroke="#6ECD4A" stroke-width="2" stroke-linecap="round" stroke-linejoin="round"/>
</svg>
