<svg width="702" height="337" viewBox="0 0 702 337" fill="none" xmlns="http://www.w3.org/2000/svg">
<path d="M318.424 318.224C321.736 318.224 322.984 315.392 322.984 312.4C322.984 309.376 321.704 306.576 318.424 306.576C315.144 306.576 313.848 309.36 313.848 312.4C313.848 315.392 315.112 318.224 318.424 318.224ZM318.424 317.056C315.976 317.056 315.176 314.624 315.176 312.4C315.176 310.192 315.96 307.744 318.424 307.744C320.872 307.744 321.656 310.176 321.656 312.4C321.656 314.624 320.872 317.056 318.424 317.056ZM334.292 313.968C334.292 312.08 333.476 309.872 330.052 309.712V306.224H328.82V309.712C325.412 309.872 324.58 312.08 324.58 313.968C324.58 315.84 325.412 318.032 328.82 318.224V321.392H330.052V318.224C333.476 318.048 334.292 315.84 334.292 313.968ZM325.892 313.968C325.892 312.656 326.388 310.96 328.82 310.784V317.168C326.388 317.008 325.892 315.264 325.892 313.968ZM330.052 317.168V310.8C332.5 310.96 332.98 312.656 332.98 313.968C332.98 315.264 332.5 317.008 330.052 317.168ZM335.178 318.064C337.306 318.24 337.85 316.528 337.994 313.776L338.138 310.976H340.874V318H342.106V309.888H336.97L336.794 313.168C336.682 315.328 336.506 317.056 335.178 316.928V318.064ZM347.628 309.744C346.78 309.744 345.868 309.92 344.988 310.416V311.6C345.772 311.104 346.668 310.832 347.532 310.832C348.668 310.832 349.244 311.536 349.244 312.544V312.88C348.86 312.816 348.508 312.8 348.108 312.8C345.964 312.8 344.348 313.744 344.348 315.728C344.348 317.232 345.228 318.16 346.7 318.16C347.836 318.16 348.732 317.648 349.292 316.992H349.324L349.404 318H350.476V312.528C350.476 310.832 349.388 309.744 347.628 309.744ZM347.084 317.088C346.092 317.088 345.676 316.528 345.676 315.696C345.676 314.496 346.62 313.808 348.252 313.808C348.604 313.808 348.956 313.84 349.244 313.888V314.912C349.244 316.24 348.22 317.088 347.084 317.088ZM356.405 308.656C357.109 308.656 357.733 308.512 358.213 308.208V307.232C357.589 307.536 356.965 307.648 356.405 307.648C355.845 307.648 355.221 307.536 354.597 307.232V308.224C355.077 308.512 355.701 308.656 356.405 308.656ZM353.189 318.112H353.445L357.557 313.552C357.829 313.248 358.085 312.944 358.341 312.64H358.357C358.325 313.296 358.325 313.872 358.325 314.496V318H359.557V309.792H359.301L355.189 314.4C354.917 314.704 354.677 314.976 354.421 315.296H354.405C354.421 314.832 354.421 314.352 354.421 313.888V309.888H353.189V318.112ZM367.401 309.888V313.216H363.609V309.888H362.377V318H363.609V314.352H367.401V318H368.633V309.888H367.401ZM374.971 318.112H375.227L379.339 313.552C379.611 313.248 379.867 312.944 380.123 312.64H380.139C380.107 313.296 380.107 313.872 380.107 314.496V318H381.339V309.792H381.083L376.971 314.4C376.699 314.704 376.459 314.976 376.203 315.296H376.187C376.203 314.832 376.203 314.352 376.203 313.888V309.888H374.971V318.112ZM383.022 318.064C385.15 318.24 385.694 316.528 385.838 313.776L385.982 310.976H388.718V318H389.95V309.888H384.814L384.638 313.168C384.526 315.328 384.35 317.056 383.022 316.928V318.064ZM392.767 318.112H393.023L397.135 313.552C397.407 313.248 397.663 312.944 397.919 312.64H397.935C397.903 313.296 397.903 313.872 397.903 314.496V318H399.135V309.792H398.879L394.767 314.4C394.495 314.704 394.255 314.976 393.999 315.296H393.983C393.999 314.832 393.999 314.352 393.999 313.888V309.888H392.767V318.112ZM408.447 318.224C410.607 318.224 412.031 316.528 412.031 313.968C412.031 311.36 410.623 309.664 408.447 309.664C406.271 309.664 404.863 311.36 404.863 313.968C404.863 316.528 406.287 318.224 408.447 318.224ZM408.447 317.136C407.071 317.136 406.143 315.856 406.143 313.968C406.143 312 407.055 310.736 408.447 310.736C409.839 310.736 410.751 312 410.751 313.968C410.751 315.856 409.823 317.136 408.447 317.136ZM419.26 309.888V313.216H415.468V309.888H414.236V318H415.468V314.352H419.26V318H420.492V309.888H419.26ZM422.178 318.064C424.306 318.24 424.85 316.528 424.994 313.776L425.138 310.976H427.874V318H429.106V309.888H423.97L423.794 313.168C423.682 315.328 423.506 317.056 422.178 316.928V318.064ZM434.628 309.744C433.78 309.744 432.868 309.92 431.988 310.416V311.6C432.772 311.104 433.668 310.832 434.532 310.832C435.668 310.832 436.244 311.536 436.244 312.544V312.88C435.86 312.816 435.508 312.8 435.108 312.8C432.964 312.8 431.348 313.744 431.348 315.728C431.348 317.232 432.228 318.16 433.7 318.16C434.836 318.16 435.732 317.648 436.292 316.992H436.324L436.404 318H437.476V312.528C437.476 310.832 436.388 309.744 434.628 309.744ZM434.084 317.088C433.092 317.088 432.676 316.528 432.676 315.696C432.676 314.496 433.62 313.808 435.252 313.808C435.604 313.808 435.956 313.84 436.244 313.888V314.912C436.244 316.24 435.22 317.088 434.084 317.088ZM443.405 308.656C444.109 308.656 444.733 308.512 445.213 308.208V307.232C444.589 307.536 443.965 307.648 443.405 307.648C442.845 307.648 442.221 307.536 441.597 307.232V308.224C442.077 308.512 442.701 308.656 443.405 308.656ZM440.189 318.112H440.445L444.557 313.552C444.829 313.248 445.085 312.944 445.341 312.64H445.357C445.325 313.296 445.325 313.872 445.325 314.496V318H446.557V309.792H446.301L442.189 314.4C441.917 314.704 441.677 314.976 441.421 315.296H441.405C441.421 314.832 441.421 314.352 441.421 313.888V309.888H440.189V318.112ZM454.401 309.888V313.216H450.609V309.888H449.377V318H450.609V314.352H454.401V318H455.633V309.888H454.401ZM461.043 318H462.291L462.995 314.672C463.139 313.984 463.219 313.312 463.299 312.624H463.331C463.587 313.184 463.827 313.68 464.099 314.208L465.523 317.008H465.907L467.363 314.176C467.635 313.648 467.859 313.136 468.115 312.624H468.147C468.227 313.312 468.323 313.984 468.467 314.672L469.171 318H470.419L468.675 309.824H468.371L466.515 313.472C466.259 313.984 466.003 314.48 465.747 314.976H465.715C465.475 314.496 465.235 314.048 464.979 313.536L463.091 309.824H462.787L461.043 318ZM475.018 309.744C474.17 309.744 473.258 309.92 472.378 310.416V311.6C473.162 311.104 474.058 310.832 474.922 310.832C476.058 310.832 476.634 311.536 476.634 312.544V312.88C476.25 312.816 475.898 312.8 475.498 312.8C473.354 312.8 471.738 313.744 471.738 315.728C471.738 317.232 472.618 318.16 474.09 318.16C475.226 318.16 476.122 317.648 476.682 316.992H476.714L476.794 318H477.866V312.528C477.866 310.832 476.778 309.744 475.018 309.744ZM474.474 317.088C473.482 317.088 473.066 316.528 473.066 315.696C473.066 314.496 474.01 313.808 475.642 313.808C475.994 313.808 476.346 313.84 476.634 313.888V314.912C476.634 316.24 475.61 317.088 474.474 317.088ZM480.58 318H481.812V311.024H485.124V309.888H480.58V318ZM489.424 309.744C488.577 309.744 487.664 309.92 486.785 310.416V311.6C487.569 311.104 488.465 310.832 489.329 310.832C490.465 310.832 491.041 311.536 491.041 312.544V312.88C490.657 312.816 490.305 312.8 489.905 312.8C487.761 312.8 486.145 313.744 486.145 315.728C486.145 317.232 487.025 318.16 488.497 318.16C489.633 318.16 490.529 317.648 491.089 316.992H491.121L491.201 318H492.273V312.528C492.273 310.832 491.185 309.744 489.424 309.744ZM488.881 317.088C487.889 317.088 487.473 316.528 487.473 315.696C487.473 314.496 488.417 313.808 490.049 313.808C490.401 313.808 490.753 313.84 491.041 313.888V314.912C491.041 316.24 490.016 317.088 488.881 317.088ZM497.818 313.68C498.554 313.36 499.226 312.656 499.226 311.712C499.226 310.368 498.138 309.744 496.762 309.744C495.914 309.744 495.098 309.968 494.474 310.272L494.458 311.424C494.986 311.104 495.786 310.832 496.458 310.832C497.45 310.832 497.93 311.168 497.93 311.904C497.93 312.768 497.21 313.28 496.25 313.28H495.37L495.354 314.336H496.522C497.69 314.336 498.234 314.752 498.234 315.648C498.234 316.64 497.45 317.088 496.442 317.088C495.626 317.088 494.81 316.912 494.202 316.544L494.186 317.728C494.938 318.016 495.642 318.16 496.49 318.16C498.154 318.16 499.546 317.232 499.546 315.712C499.546 314.528 498.826 313.92 497.818 313.68ZM501.596 318.112H501.852L505.964 313.552C506.236 313.248 506.492 312.944 506.748 312.64H506.764C506.732 313.296 506.732 313.872 506.732 314.496V318H507.964V309.792H507.708L503.596 314.4C503.324 314.704 503.084 314.976 502.828 315.296H502.812C502.828 314.832 502.828 314.352 502.828 313.888V309.888H501.596V318.112ZM515.807 309.888V313.216H512.015V309.888H510.783V318H512.015V314.352H515.807V318H517.039V309.888H515.807Z" fill="#2E2E2E"/>
<path d="M375.934 39.0497C376.862 38.6177 377.39 37.7697 377.39 36.6657C377.39 34.8417 376.222 33.8177 374.126 33.8177H371.23V45.0177H374.158C376.622 45.0177 377.918 43.9297 377.918 41.8657C377.918 40.3937 377.214 39.4177 375.934 39.0497ZM376.078 36.7617C376.078 37.8977 375.342 38.5377 374.11 38.5377H372.526V34.9857H374.11C375.438 34.9857 376.078 35.5457 376.078 36.7617ZM374.174 43.8497H372.526V39.7057H374.158C375.758 39.7057 376.59 40.3937 376.59 41.7857C376.59 43.2257 375.838 43.8497 374.174 43.8497ZM380.057 45.0177H383.177C384.905 45.0177 386.073 43.9777 386.073 42.2977C386.073 40.6177 384.905 39.5937 383.177 39.5937H381.289V36.9057H380.057V45.0177ZM388.041 45.0177H389.273V36.9057H388.041V45.0177ZM381.289 43.9777V40.6177H382.793C384.201 40.6177 384.793 41.1137 384.793 42.2977C384.793 43.4657 384.185 43.9777 382.793 43.9777H381.289ZM395.288 45.2417C397.352 45.2417 398.776 43.6257 398.776 41.2577C398.776 38.7297 397.592 37.2577 395.592 37.2577C394.456 37.2577 393.64 37.6417 393.048 38.4737L393.016 38.4577C393.224 36.0577 394.056 35.0497 395.96 34.8577C396.776 34.7777 397.448 34.6337 397.992 34.4097V33.1137C397.496 33.3857 396.904 33.5617 395.688 33.6897C392.792 33.9937 391.8 35.7537 391.8 40.5217C391.8 43.6257 392.984 45.2417 395.288 45.2417ZM395.288 44.1697C393.992 44.1697 393.128 43.0017 393.128 41.2577C393.128 39.5137 393.992 38.3457 395.288 38.3457C396.584 38.3457 397.464 39.5297 397.464 41.2577C397.464 42.9857 396.584 44.1697 395.288 44.1697ZM403.877 45.2417C406.037 45.2417 407.461 43.5457 407.461 40.9857C407.461 38.3777 406.053 36.6817 403.877 36.6817C401.701 36.6817 400.293 38.3777 400.293 40.9857C400.293 43.5457 401.717 45.2417 403.877 45.2417ZM403.877 44.1537C402.501 44.1537 401.573 42.8737 401.573 40.9857C401.573 39.0177 402.485 37.7537 403.877 37.7537C405.269 37.7537 406.181 39.0177 406.181 40.9857C406.181 42.8737 405.253 44.1537 403.877 44.1537ZM409.666 48.4097H410.898V45.0177C410.898 44.7777 410.898 44.5857 410.866 44.0417H410.898C411.41 44.7937 412.274 45.2417 413.25 45.2417C415.282 45.2417 416.578 43.4977 416.578 40.9377C416.578 38.3777 415.282 36.6817 413.346 36.6817C412.37 36.6817 411.554 37.0817 410.85 37.9137H410.818L410.738 36.9057H409.666V48.4097ZM413.074 44.1697C411.73 44.1697 410.898 42.9537 410.898 41.0017C410.898 38.9057 411.682 37.7697 413.138 37.7697C414.498 37.7697 415.298 38.9697 415.298 40.9857C415.298 42.9537 414.498 44.1697 413.074 44.1697ZM423.667 45.0177H424.899V38.0417H427.363V36.9057H421.203V38.0417H423.667V45.0177ZM431.861 45.2417C434.021 45.2417 435.445 43.5457 435.445 40.9857C435.445 38.3777 434.037 36.6817 431.861 36.6817C429.685 36.6817 428.277 38.3777 428.277 40.9857C428.277 43.5457 429.701 45.2417 431.861 45.2417ZM431.861 44.1537C430.485 44.1537 429.557 42.8737 429.557 40.9857C429.557 39.0177 430.469 37.7537 431.861 37.7537C433.253 37.7537 434.165 39.0177 434.165 40.9857C434.165 42.8737 433.237 44.1537 431.861 44.1537ZM442.051 40.7457C442.755 40.4097 443.171 39.7857 443.171 39.0337C443.171 37.6737 442.227 36.9057 440.531 36.9057H437.651V45.0177H440.675C442.419 45.0177 443.507 44.1217 443.507 42.7137C443.507 41.6897 443.011 41.0177 442.051 40.7457ZM440.419 37.9777C441.395 37.9777 441.843 38.3297 441.843 39.0977C441.843 39.9137 441.363 40.3297 440.419 40.3297H438.899V37.9777H440.419ZM440.563 43.9297H438.899V41.3537H440.563C441.635 41.3537 442.179 41.7697 442.179 42.6017C442.179 43.4817 441.635 43.9297 440.563 43.9297ZM448.245 36.7617C447.397 36.7617 446.485 36.9377 445.605 37.4337V38.6177C446.389 38.1217 447.285 37.8497 448.149 37.8497C449.285 37.8497 449.861 38.5537 449.861 39.5617V39.8977C449.477 39.8337 449.125 39.8177 448.725 39.8177C446.581 39.8177 444.965 40.7617 444.965 42.7457C444.965 44.2497 445.845 45.1777 447.317 45.1777C448.453 45.1777 449.349 44.6657 449.909 44.0097H449.941L450.021 45.0177H451.093V39.5457C451.093 37.8497 450.005 36.7617 448.245 36.7617ZM447.701 44.1057C446.709 44.1057 446.293 43.5457 446.293 42.7137C446.293 41.5137 447.237 40.8257 448.869 40.8257C449.221 40.8257 449.573 40.8577 449.861 40.9057V41.9297C449.861 43.2577 448.837 44.1057 447.701 44.1057ZM453.807 48.4097H455.039V45.0177C455.039 44.7777 455.039 44.5857 455.007 44.0417H455.039C455.551 44.7937 456.415 45.2417 457.391 45.2417C459.423 45.2417 460.719 43.4977 460.719 40.9377C460.719 38.3777 459.423 36.6817 457.487 36.6817C456.511 36.6817 455.695 37.0817 454.991 37.9137H454.959L454.879 36.9057H453.807V48.4097ZM457.215 44.1697C455.871 44.1697 455.039 42.9537 455.039 41.0017C455.039 38.9057 455.823 37.7697 457.279 37.7697C458.639 37.7697 459.439 38.9697 459.439 40.9857C459.439 42.9537 458.639 44.1697 457.215 44.1697ZM465.636 36.7617C464.788 36.7617 463.876 36.9377 462.996 37.4337V38.6177C463.78 38.1217 464.676 37.8497 465.54 37.8497C466.676 37.8497 467.252 38.5537 467.252 39.5617V39.8977C466.868 39.8337 466.516 39.8177 466.116 39.8177C463.972 39.8177 462.356 40.7617 462.356 42.7457C462.356 44.2497 463.236 45.1777 464.708 45.1777C465.844 45.1777 466.74 44.6657 467.3 44.0097H467.332L467.412 45.0177H468.484V39.5457C468.484 37.8497 467.396 36.7617 465.636 36.7617ZM465.092 44.1057C464.1 44.1057 463.684 43.5457 463.684 42.7137C463.684 41.5137 464.628 40.8257 466.26 40.8257C466.612 40.8257 466.964 40.8577 467.252 40.9057V41.9297C467.252 43.2577 466.228 44.1057 465.092 44.1057ZM375.182 84.2417C378.494 84.2417 379.742 81.4097 379.742 78.4177C379.742 75.3937 378.462 72.5937 375.182 72.5937C371.902 72.5937 370.606 75.3777 370.606 78.4177C370.606 81.4097 371.87 84.2417 375.182 84.2417ZM375.182 83.0737C372.734 83.0737 371.934 80.6417 371.934 78.4177C371.934 76.2097 372.718 73.7617 375.182 73.7617C377.63 73.7617 378.414 76.1937 378.414 78.4177C378.414 80.6417 377.63 83.0737 375.182 83.0737ZM381.994 84.0177H383.226V76.9937H386.874V84.0177H388.106V75.9057H381.994V84.0177ZM389.78 84.0817C391.908 84.2577 392.452 82.5457 392.596 79.7937L392.74 76.9937H395.476V84.0177H396.708V75.9057H391.572L391.396 79.1857C391.284 81.3457 391.108 83.0737 389.78 82.9457V84.0817ZM402.23 75.7617C401.382 75.7617 400.47 75.9377 399.59 76.4337V77.6177C400.374 77.1217 401.27 76.8497 402.134 76.8497C403.27 76.8497 403.846 77.5537 403.846 78.5617V78.8977C403.462 78.8337 403.11 78.8177 402.71 78.8177C400.566 78.8177 398.95 79.7617 398.95 81.7457C398.95 83.2497 399.83 84.1777 401.302 84.1777C402.438 84.1777 403.334 83.6657 403.894 83.0097H403.926L404.006 84.0177H405.078V78.5457C405.078 76.8497 403.99 75.7617 402.23 75.7617ZM401.686 83.1057C400.694 83.1057 400.278 82.5457 400.278 81.7137C400.278 80.5137 401.222 79.8257 402.854 79.8257C403.206 79.8257 403.558 79.8577 403.846 79.9057V80.9297C403.846 82.2577 402.822 83.1057 401.686 83.1057ZM408.964 84.0177H410.196V77.0417H412.66V75.9057H406.5V77.0417H408.964V84.0177ZM416.933 75.7617C416.085 75.7617 415.173 75.9377 414.293 76.4337V77.6177C415.077 77.1217 415.973 76.8497 416.837 76.8497C417.973 76.8497 418.549 77.5537 418.549 78.5617V78.8977C418.165 78.8337 417.813 78.8177 417.413 78.8177C415.269 78.8177 413.653 79.7617 413.653 81.7457C413.653 83.2497 414.533 84.1777 416.005 84.1777C417.141 84.1777 418.037 83.6657 418.597 83.0097H418.629L418.709 84.0177H419.781V78.5457C419.781 76.8497 418.693 75.7617 416.933 75.7617ZM416.389 83.1057C415.397 83.1057 414.981 82.5457 414.981 81.7137C414.981 80.5137 415.925 79.8257 417.557 79.8257C417.909 79.8257 418.261 79.8577 418.549 79.9057V80.9297C418.549 82.2577 417.525 83.1057 416.389 83.1057ZM430.41 79.7457C431.114 79.4097 431.53 78.7857 431.53 78.0337C431.53 76.6737 430.586 75.9057 428.89 75.9057H426.01V84.0177H429.034C430.778 84.0177 431.866 83.1217 431.866 81.7137C431.866 80.6897 431.37 80.0177 430.41 79.7457ZM428.778 76.9777C429.754 76.9777 430.202 77.3297 430.202 78.0977C430.202 78.9137 429.722 79.3297 428.778 79.3297H427.258V76.9777H428.778ZM428.922 82.9297H427.258V80.3537H428.922C429.994 80.3537 430.538 80.7697 430.538 81.6017C430.538 82.4817 429.994 82.9297 428.922 82.9297ZM433.901 84.1297H434.157L438.269 79.5697C438.541 79.2657 438.797 78.9617 439.053 78.6577H439.069C439.037 79.3137 439.037 79.8897 439.037 80.5137V84.0177H440.269V75.8097H440.013L435.901 80.4177C435.629 80.7217 435.389 80.9937 435.133 81.3137H435.117C435.133 80.8497 435.133 80.3697 435.133 79.9057V75.9057H433.901V84.1297ZM443.088 87.4097H444.32V84.0177C444.32 83.7777 444.32 83.5857 444.288 83.0417H444.32C444.832 83.7937 445.696 84.2417 446.672 84.2417C448.704 84.2417 450 82.4977 450 79.9377C450 77.3777 448.704 75.6817 446.768 75.6817C445.792 75.6817 444.976 76.0817 444.272 76.9137H444.24L444.16 75.9057H443.088V87.4097ZM446.496 83.1697C445.152 83.1697 444.32 81.9537 444.32 80.0017C444.32 77.9057 445.104 76.7697 446.56 76.7697C447.92 76.7697 448.72 77.9697 448.72 79.9857C448.72 81.9537 447.92 83.1697 446.496 83.1697ZM453.37 84.0177H454.602V77.0417H457.066V75.9057H450.906V77.0417H453.37V84.0177ZM463.543 75.9057L461.991 80.0657C461.799 80.5937 461.607 81.1377 461.319 82.0177H461.303C460.967 81.0577 460.791 80.5777 460.599 80.0977L458.951 75.9057H457.575L460.695 83.6177C459.975 85.9057 459.351 86.5617 458.119 86.5777V87.6337C460.071 87.5857 460.647 87.0097 461.799 83.9697L464.871 75.9057H463.543ZM469.042 75.7617C468.194 75.7617 467.282 75.9377 466.402 76.4337V77.6177C467.186 77.1217 468.082 76.8497 468.946 76.8497C470.082 76.8497 470.658 77.5537 470.658 78.5617V78.8977C470.274 78.8337 469.922 78.8177 469.522 78.8177C467.378 78.8177 465.762 79.7617 465.762 81.7457C465.762 83.2497 466.642 84.1777 468.114 84.1777C469.25 84.1777 470.146 83.6657 470.706 83.0097H470.738L470.818 84.0177H471.89V78.5457C471.89 76.8497 470.802 75.7617 469.042 75.7617ZM468.498 83.1057C467.506 83.1057 467.09 82.5457 467.09 81.7137C467.09 80.5137 468.034 79.8257 469.666 79.8257C470.018 79.8257 470.37 79.8577 470.658 79.9057V80.9297C470.658 82.2577 469.634 83.1057 468.498 83.1057ZM473.468 84.0817C475.596 84.2577 476.14 82.5457 476.284 79.7937L476.428 76.9937H479.164V84.0177H480.396V75.9057H475.26L475.084 79.1857C474.972 81.3457 474.796 83.0737 473.468 82.9457V84.0817ZM483.213 84.0177H486.333C488.061 84.0177 489.229 82.9777 489.229 81.2977C489.229 79.6177 488.061 78.5937 486.333 78.5937H484.445V75.9057H483.213V84.0177ZM484.445 82.9777V79.6177H485.949C487.357 79.6177 487.949 80.1137 487.949 81.2977C487.949 82.4657 487.341 82.9777 485.949 82.9777H484.445ZM496.222 75.9057V79.2337H492.43V75.9057H491.198V84.0177H492.43V80.3697H496.222V84.0177H497.454V75.9057H496.222ZM503.252 84.2417C505.412 84.2417 506.836 82.5457 506.836 79.9857C506.836 77.3777 505.428 75.6817 503.252 75.6817C501.076 75.6817 499.668 77.3777 499.668 79.9857C499.668 82.5457 501.092 84.2417 503.252 84.2417ZM503.252 83.1537C501.876 83.1537 500.948 81.8737 500.948 79.9857C500.948 78.0177 501.86 76.7537 503.252 76.7537C504.644 76.7537 505.556 78.0177 505.556 79.9857C505.556 81.8737 504.628 83.1537 503.252 83.1537ZM512.257 74.6737C512.961 74.6737 513.585 74.5297 514.065 74.2257V73.2497C513.441 73.5537 512.817 73.6657 512.257 73.6657C511.697 73.6657 511.073 73.5537 510.449 73.2497V74.2417C510.929 74.5297 511.553 74.6737 512.257 74.6737ZM509.041 84.1297H509.297L513.409 79.5697C513.681 79.2657 513.937 78.9617 514.193 78.6577H514.209C514.177 79.3137 514.177 79.8897 514.177 80.5137V84.0177H515.409V75.8097H515.153L511.041 80.4177C510.769 80.7217 510.529 80.9937 510.273 81.3137H510.257C510.273 80.8497 510.273 80.3697 510.273 79.9057V75.9057H509.041V84.1297ZM521.744 84.0177H522.976V75.9057H521.744V84.0177ZM524.72 79.6817L527.92 75.9057H526.368L523.328 79.5537V79.8577L526.752 84.0177H528.32L524.72 79.6817ZM532.527 75.7617C531.679 75.7617 530.767 75.9377 529.887 76.4337V77.6177C530.671 77.1217 531.567 76.8497 532.431 76.8497C533.567 76.8497 534.143 77.5537 534.143 78.5617V78.8977C533.759 78.8337 533.407 78.8177 533.007 78.8177C530.863 78.8177 529.247 79.7617 529.247 81.7457C529.247 83.2497 530.127 84.1777 531.599 84.1777C532.735 84.1777 533.631 83.6657 534.191 83.0097H534.223L534.303 84.0177H535.375V78.5457C535.375 76.8497 534.287 75.7617 532.527 75.7617ZM531.983 83.1057C530.991 83.1057 530.575 82.5457 530.575 81.7137C530.575 80.5137 531.519 79.8257 533.151 79.8257C533.503 79.8257 533.855 79.8577 534.143 79.9057V80.9297C534.143 82.2577 533.119 83.1057 531.983 83.1057ZM538.088 87.4097H539.32V84.0177C539.32 83.7777 539.32 83.5857 539.288 83.0417H539.32C539.832 83.7937 540.696 84.2417 541.672 84.2417C543.704 84.2417 545 82.4977 545 79.9377C545 77.3777 543.704 75.6817 541.768 75.6817C540.792 75.6817 539.976 76.0817 539.272 76.9137H539.24L539.16 75.9057H538.088V87.4097ZM541.496 83.1697C540.152 83.1697 539.32 81.9537 539.32 80.0017C539.32 77.9057 540.104 76.7697 541.56 76.7697C542.92 76.7697 543.72 77.9697 543.72 79.9857C543.72 81.9537 542.92 83.1697 541.496 83.1697ZM548.37 84.0177H549.602V77.0417H552.066V75.9057H545.906V77.0417H548.37V84.0177ZM556.564 84.2417C558.724 84.2417 560.148 82.5457 560.148 79.9857C560.148 77.3777 558.74 75.6817 556.564 75.6817C554.388 75.6817 552.98 77.3777 552.98 79.9857C552.98 82.5457 554.404 84.2417 556.564 84.2417ZM556.564 83.1537C555.188 83.1537 554.26 81.8737 554.26 79.9857C554.26 78.0177 555.172 76.7537 556.564 76.7537C557.956 76.7537 558.868 78.0177 558.868 79.9857C558.868 81.8737 557.94 83.1537 556.564 83.1537ZM565.57 74.6737C566.274 74.6737 566.898 74.5297 567.378 74.2257V73.2497C566.754 73.5537 566.13 73.6657 565.57 73.6657C565.01 73.6657 564.386 73.5537 563.762 73.2497V74.2417C564.242 74.5297 564.866 74.6737 565.57 74.6737ZM562.354 84.1297H562.61L566.722 79.5697C566.994 79.2657 567.25 78.9617 567.506 78.6577H567.522C567.49 79.3137 567.49 79.8897 567.49 80.5137V84.0177H568.722V75.8097H568.466L564.354 80.4177C564.082 80.7217 563.842 80.9937 563.586 81.3137H563.57C563.586 80.8497 563.586 80.3697 563.586 79.9057V75.9057H562.354V84.1297ZM375.182 123.242C378.494 123.242 379.742 120.41 379.742 117.418C379.742 114.394 378.462 111.594 375.182 111.594C371.902 111.594 370.606 114.378 370.606 117.418C370.606 120.41 371.87 123.242 375.182 123.242ZM375.182 122.074C372.734 122.074 371.934 119.642 371.934 117.418C371.934 115.21 372.718 112.762 375.182 112.762C377.63 112.762 378.414 115.194 378.414 117.418C378.414 119.642 377.63 122.074 375.182 122.074ZM381.994 123.018H383.226V115.994H386.874V123.018H388.106V114.906H381.994V123.018ZM389.78 123.082C391.908 123.258 392.452 121.546 392.596 118.794L392.74 115.994H395.476V123.018H396.708V114.906H391.572L391.396 118.186C391.284 120.346 391.108 122.074 389.78 121.946V123.082ZM402.23 114.762C401.382 114.762 400.47 114.938 399.59 115.434V116.618C400.374 116.122 401.27 115.85 402.134 115.85C403.27 115.85 403.846 116.554 403.846 117.562V117.898C403.462 117.834 403.11 117.818 402.71 117.818C400.566 117.818 398.95 118.762 398.95 120.746C398.95 122.25 399.83 123.178 401.302 123.178C402.438 123.178 403.334 122.666 403.894 122.01H403.926L404.006 123.018H405.078V117.546C405.078 115.85 403.99 114.762 402.23 114.762ZM401.686 122.106C400.694 122.106 400.278 121.546 400.278 120.714C400.278 119.514 401.222 118.826 402.854 118.826C403.206 118.826 403.558 118.858 403.846 118.906V119.93C403.846 121.258 402.822 122.106 401.686 122.106ZM408.964 123.018H410.196V116.042H412.66V114.906H406.5V116.042H408.964V123.018ZM416.933 114.762C416.085 114.762 415.173 114.938 414.293 115.434V116.618C415.077 116.122 415.973 115.85 416.837 115.85C417.973 115.85 418.549 116.554 418.549 117.562V117.898C418.165 117.834 417.813 117.818 417.413 117.818C415.269 117.818 413.653 118.762 413.653 120.746C413.653 122.25 414.533 123.178 416.005 123.178C417.141 123.178 418.037 122.666 418.597 122.01H418.629L418.709 123.018H419.781V117.546C419.781 115.85 418.693 114.762 416.933 114.762ZM416.389 122.106C415.397 122.106 414.981 121.546 414.981 120.714C414.981 119.514 415.925 118.826 417.557 118.826C417.909 118.826 418.261 118.858 418.549 118.906V119.93C418.549 121.258 417.525 122.106 416.389 122.106ZM427.37 123.018H428.602V116.042H431.066V114.906H424.906V116.042H427.37V123.018ZM438.492 118.218C438.492 116.026 437.372 114.682 435.452 114.682C433.308 114.682 431.98 116.346 431.98 119.002C431.98 121.626 433.324 123.178 435.708 123.178C436.604 123.178 437.452 122.97 438.14 122.538V121.37C437.42 121.834 436.636 122.09 435.82 122.09C434.22 122.09 433.276 121.05 433.244 119.21H438.412C438.46 118.858 438.492 118.538 438.492 118.218ZM435.484 115.754C436.652 115.754 437.276 116.586 437.276 118.154H433.292C433.532 116.602 434.316 115.754 435.484 115.754ZM439.421 123.082C441.549 123.258 442.093 121.546 442.237 118.794L442.381 115.994H445.117V123.018H446.349V114.906H441.213L441.037 118.186C440.925 120.346 440.749 122.074 439.421 121.946V123.082ZM455.07 118.218C455.07 116.026 453.95 114.682 452.03 114.682C449.886 114.682 448.558 116.346 448.558 119.002C448.558 121.626 449.902 123.178 452.286 123.178C453.182 123.178 454.03 122.97 454.718 122.538V121.37C453.998 121.834 453.214 122.09 452.398 122.09C450.798 122.09 449.854 121.05 449.822 119.21H454.99C455.038 118.858 455.07 118.538 455.07 118.218ZM452.062 115.754C453.23 115.754 453.854 116.586 453.854 118.154H449.87C450.11 116.602 450.894 115.754 452.062 115.754ZM466.3 118.986C466.3 117.098 465.484 114.89 462.06 114.73V111.242H460.828V114.73C457.42 114.89 456.588 117.098 456.588 118.986C456.588 120.858 457.42 123.05 460.828 123.242V126.41H462.06V123.242C465.484 123.066 466.3 120.858 466.3 118.986ZM457.9 118.986C457.9 117.674 458.396 115.978 460.828 115.802V122.186C458.396 122.026 457.9 120.282 457.9 118.986ZM462.06 122.186V115.818C464.508 115.978 464.988 117.674 464.988 118.986C464.988 120.282 464.508 122.026 462.06 122.186ZM471.439 123.242C473.599 123.242 475.023 121.546 475.023 118.986C475.023 116.378 473.615 114.682 471.439 114.682C469.263 114.682 467.855 116.378 467.855 118.986C467.855 121.546 469.279 123.242 471.439 123.242ZM471.439 122.154C470.063 122.154 469.135 120.874 469.135 118.986C469.135 117.018 470.047 115.754 471.439 115.754C472.831 115.754 473.743 117.018 473.743 118.986C473.743 120.874 472.815 122.154 471.439 122.154ZM482.253 114.906V118.234H478.461V114.906H477.229V123.018H478.461V119.37H482.253V123.018H483.485V114.906H482.253ZM489.283 123.242C491.443 123.242 492.867 121.546 492.867 118.986C492.867 116.378 491.459 114.682 489.283 114.682C487.107 114.682 485.699 116.378 485.699 118.986C485.699 121.546 487.123 123.242 489.283 123.242ZM489.283 122.154C487.907 122.154 486.979 120.874 486.979 118.986C486.979 117.018 487.891 115.754 489.283 115.754C490.675 115.754 491.587 117.018 491.587 118.986C491.587 120.874 490.659 122.154 489.283 122.154ZM494.145 123.018H495.393L496.097 119.69C496.241 119.002 496.321 118.33 496.401 117.642H496.433C496.689 118.202 496.929 118.698 497.201 119.226L498.625 122.026H499.009L500.465 119.194C500.737 118.666 500.961 118.154 501.217 117.642H501.249C501.329 118.33 501.425 119.002 501.569 119.69L502.273 123.018H503.521L501.777 114.842H501.473L499.617 118.49C499.361 119.002 499.105 119.498 498.849 119.994H498.817C498.577 119.514 498.337 119.066 498.081 118.554L496.193 114.842H495.889L494.145 123.018Z" fill="#2E2E2E"/>
<path d="M590.142 318.114H591.438V306.914H590.142V318.114ZM596.878 318.114H598.526L593.678 312.178L597.87 306.914H596.302L592.238 312.098V312.402L596.878 318.114ZM598.989 318.178C601.117 318.354 601.661 316.642 601.805 313.89L601.949 311.09H604.685V318.114H605.917V310.002H600.781L600.605 313.282C600.493 315.442 600.317 317.17 598.989 317.042V318.178ZM608.734 318.226H608.99L613.102 313.666C613.374 313.362 613.63 313.058 613.886 312.754H613.902C613.87 313.41 613.87 313.986 613.87 314.61V318.114H615.102V309.906H614.846L610.734 314.514C610.462 314.818 610.222 315.09 609.966 315.41H609.95C609.966 314.946 609.966 314.466 609.966 314.002V310.002H608.734V318.226ZM623.826 313.314C623.826 311.122 622.706 309.778 620.786 309.778C618.642 309.778 617.314 311.442 617.314 314.098C617.314 316.722 618.658 318.274 621.042 318.274C621.938 318.274 622.786 318.066 623.474 317.634V316.466C622.754 316.93 621.97 317.186 621.154 317.186C619.554 317.186 618.61 316.146 618.578 314.306H623.746C623.794 313.954 623.826 313.634 623.826 313.314ZM620.818 310.85C621.986 310.85 622.61 311.682 622.61 313.25H618.626C618.866 311.698 619.65 310.85 620.818 310.85ZM631.024 310.002V313.33H627.232V310.002H626V318.114H627.232V314.466H631.024V318.114H632.256V310.002H631.024ZM636.438 318.114H637.67V311.138H640.134V310.002H633.974V311.138H636.438V318.114ZM648.34 318.338C650.404 318.338 651.828 316.722 651.828 314.354C651.828 311.826 650.644 310.354 648.644 310.354C647.508 310.354 646.692 310.738 646.1 311.57L646.068 311.554C646.276 309.154 647.108 308.146 649.012 307.954C649.828 307.874 650.5 307.73 651.044 307.506V306.21C650.548 306.482 649.956 306.658 648.74 306.786C645.844 307.09 644.852 308.85 644.852 313.618C644.852 316.722 646.036 318.338 648.34 318.338ZM648.34 317.266C647.044 317.266 646.18 316.098 646.18 314.354C646.18 312.61 647.044 311.442 648.34 311.442C649.636 311.442 650.516 312.626 650.516 314.354C650.516 316.082 649.636 317.266 648.34 317.266ZM656.657 309.858C655.809 309.858 654.897 310.034 654.017 310.53V311.714C654.801 311.218 655.697 310.946 656.561 310.946C657.697 310.946 658.273 311.65 658.273 312.658V312.994C657.889 312.93 657.537 312.914 657.137 312.914C654.993 312.914 653.377 313.858 653.377 315.842C653.377 317.346 654.257 318.274 655.729 318.274C656.865 318.274 657.761 317.762 658.321 317.106H658.353L658.433 318.114H659.505V312.642C659.505 310.946 658.417 309.858 656.657 309.858ZM656.113 317.202C655.121 317.202 654.705 316.642 654.705 315.81C654.705 314.61 655.649 313.922 657.281 313.922C657.633 313.922 657.985 313.954 658.273 314.002V315.026C658.273 316.354 657.249 317.202 656.113 317.202ZM667.243 310.002V313.33H663.451V310.002H662.219V318.114H663.451V314.466H667.243V318.114H668.475V310.002H667.243ZM671.297 318.114H672.529V310.002H671.297V318.114ZM674.273 313.778L677.473 310.002H675.921L672.881 313.65V313.954L676.305 318.114H677.873L674.273 313.778ZM682.079 309.858C681.231 309.858 680.319 310.034 679.439 310.53V311.714C680.223 311.218 681.119 310.946 681.983 310.946C683.119 310.946 683.695 311.65 683.695 312.658V312.994C683.311 312.93 682.959 312.914 682.559 312.914C680.415 312.914 678.799 313.858 678.799 315.842C678.799 317.346 679.679 318.274 681.151 318.274C682.287 318.274 683.183 317.762 683.743 317.106H683.775L683.855 318.114H684.927V312.642C684.927 310.946 683.839 309.858 682.079 309.858ZM681.535 317.202C680.543 317.202 680.127 316.642 680.127 315.81C680.127 314.61 681.071 313.922 682.703 313.922C683.055 313.922 683.407 313.954 683.695 314.002V315.026C683.695 316.354 682.671 317.202 681.535 317.202Z" fill="#2E2E2E"/>
<path d="M101.128 318.114H102.424V306.914H101.128V318.114ZM107.864 318.114H109.512L104.664 312.178L108.856 306.914H107.288L103.224 312.098V312.402L107.864 318.114ZM109.975 318.178C112.103 318.354 112.647 316.642 112.791 313.89L112.935 311.09H115.671V318.114H116.903V310.002H111.767L111.591 313.282C111.479 315.442 111.303 317.17 109.975 317.042V318.178ZM119.721 318.226H119.977L124.089 313.666C124.361 313.362 124.617 313.058 124.873 312.754H124.889C124.857 313.41 124.857 313.986 124.857 314.61V318.114H126.089V309.906H125.833L121.721 314.514C121.449 314.818 121.209 315.09 120.953 315.41H120.937C120.953 314.946 120.953 314.466 120.953 314.002V310.002H119.721V318.226ZM134.812 313.314C134.812 311.122 133.692 309.778 131.772 309.778C129.628 309.778 128.3 311.442 128.3 314.098C128.3 316.722 129.644 318.274 132.028 318.274C132.924 318.274 133.772 318.066 134.46 317.634V316.466C133.74 316.93 132.956 317.186 132.14 317.186C130.54 317.186 129.596 316.146 129.564 314.306H134.732C134.78 313.954 134.812 313.634 134.812 313.314ZM131.804 310.85C132.972 310.85 133.596 311.682 133.596 313.25H129.612C129.852 311.698 130.636 310.85 131.804 310.85ZM142.01 310.002V313.33H138.218V310.002H136.986V318.114H138.218V314.466H142.01V318.114H143.242V310.002H142.01ZM147.424 318.114H148.656V311.138H151.12V310.002H144.96V311.138H147.424V318.114ZM159.327 318.338C161.391 318.338 162.815 316.722 162.815 314.354C162.815 311.826 161.631 310.354 159.631 310.354C158.495 310.354 157.679 310.738 157.087 311.57L157.055 311.554C157.263 309.154 158.095 308.146 159.999 307.954C160.815 307.874 161.487 307.73 162.031 307.506V306.21C161.535 306.482 160.943 306.658 159.727 306.786C156.831 307.09 155.839 308.85 155.839 313.618C155.839 316.722 157.023 318.338 159.327 318.338ZM159.327 317.266C158.031 317.266 157.167 316.098 157.167 314.354C157.167 312.61 158.031 311.442 159.327 311.442C160.623 311.442 161.503 312.626 161.503 314.354C161.503 316.082 160.623 317.266 159.327 317.266ZM167.643 309.858C166.795 309.858 165.883 310.034 165.003 310.53V311.714C165.787 311.218 166.683 310.946 167.547 310.946C168.683 310.946 169.259 311.65 169.259 312.658V312.994C168.875 312.93 168.523 312.914 168.123 312.914C165.979 312.914 164.363 313.858 164.363 315.842C164.363 317.346 165.243 318.274 166.715 318.274C167.851 318.274 168.747 317.762 169.307 317.106H169.339L169.419 318.114H170.491V312.642C170.491 310.946 169.403 309.858 167.643 309.858ZM167.099 317.202C166.107 317.202 165.691 316.642 165.691 315.81C165.691 314.61 166.635 313.922 168.267 313.922C168.619 313.922 168.971 313.954 169.259 314.002V315.026C169.259 316.354 168.235 317.202 167.099 317.202ZM178.229 310.002V313.33H174.437V310.002H173.205V318.114H174.437V314.466H178.229V318.114H179.461V310.002H178.229ZM182.283 318.114H183.515V310.002H182.283V318.114ZM185.259 313.778L188.459 310.002H186.907L183.867 313.65V313.954L187.291 318.114H188.859L185.259 313.778ZM193.065 309.858C192.217 309.858 191.305 310.034 190.425 310.53V311.714C191.209 311.218 192.105 310.946 192.969 310.946C194.105 310.946 194.681 311.65 194.681 312.658V312.994C194.297 312.93 193.945 312.914 193.545 312.914C191.401 312.914 189.785 313.858 189.785 315.842C189.785 317.346 190.665 318.274 192.137 318.274C193.273 318.274 194.169 317.762 194.729 317.106H194.761L194.841 318.114H195.913V312.642C195.913 310.946 194.825 309.858 193.065 309.858ZM192.521 317.202C191.529 317.202 191.113 316.642 191.113 315.81C191.113 314.61 192.057 313.922 193.689 313.922C194.041 313.922 194.393 313.954 194.681 314.002V315.026C194.681 316.354 193.657 317.202 192.521 317.202Z" fill="#2E2E2E"/>
<path d="M572.907 233.05C573.297 232.66 573.297 232.026 572.907 231.636L566.543 225.272C566.152 224.881 565.519 224.881 565.129 225.272C564.738 225.662 564.738 226.296 565.129 226.686L570.786 232.343L565.129 238C564.738 238.39 564.738 239.024 565.129 239.414C565.519 239.805 566.152 239.805 566.543 239.414L572.907 233.05ZM507.144 233.343H572.2V231.343H507.144V233.343Z" fill="black"/>
<path d="M326.267 233.05C326.658 232.66 326.658 232.026 326.267 231.636L319.904 225.272C319.513 224.881 318.88 224.881 318.489 225.272C318.099 225.662 318.099 226.296 318.489 226.686L324.146 232.343L318.489 238C318.099 238.39 318.099 239.024 318.489 239.414C318.88 239.805 319.513 239.805 319.904 239.414L326.267 233.05ZM244.776 233.343H325.56V231.343H244.776V233.343Z" fill="black"/>
<path d="M462.111 208.851C462.124 208.734 462.124 208.616 462.111 208.498C462.126 208.393 462.126 208.286 462.111 208.18L448.737 180.087C448.458 179.461 447.837 179.059 447.153 179.063H385.561C384.878 179.059 384.257 179.461 383.978 180.087L370.779 208.145C370.764 208.368 370.764 208.593 370.779 208.816H370.604V272.705C370.604 273.681 371.391 274.472 372.363 274.472H460.351C461.323 274.472 462.111 273.681 462.111 272.705V208.887V208.851ZM414.598 221.891C414.598 225.93 411.336 229.205 407.312 229.205H403.405C399.382 229.205 396.12 225.93 396.12 221.891V210.654H414.598V221.891ZM392.601 221.891C392.601 225.93 389.339 229.205 385.315 229.205H381.408C377.385 229.205 374.123 225.93 374.123 221.891V210.654H392.601V221.891ZM418.117 182.596H431.456L436.207 207.12H418.117V182.596ZM414.598 207.12H396.507L401.259 182.596H414.598V207.12ZM418.117 210.654H436.595V221.891C436.595 225.93 433.333 229.205 429.309 229.205H425.402C421.379 229.205 418.117 225.93 418.117 221.891V210.654ZM440.114 210.654H458.592V221.891C458.592 225.93 455.33 229.205 451.306 229.205H447.4C443.376 229.205 440.114 225.93 440.114 221.891V210.654ZM457.712 207.12H439.797L435.046 182.596H446.027L457.712 207.12ZM386.688 182.596H397.669L392.917 207.12H375.32L386.688 182.596ZM388.201 270.938V241.75H406.397V265.638C406.416 266.605 407.193 267.386 408.157 267.404C409.129 267.404 409.917 266.613 409.917 265.638V239.983C409.917 239.007 409.129 238.216 408.157 238.216H386.441C385.477 238.235 384.7 239.015 384.682 239.983V270.938H374.123V229.841C376.091 231.71 378.7 232.747 381.408 232.739H385.315C388.968 232.725 392.368 230.866 394.36 227.792C396.353 230.866 399.753 232.725 403.405 232.739H407.312C410.965 232.725 414.365 230.866 416.357 227.792C418.35 230.866 421.75 232.725 425.402 232.739H429.309C432.962 232.725 436.362 230.866 438.354 227.792C440.347 230.866 443.747 232.725 447.4 232.739H451.306C454.015 232.747 456.623 231.71 458.592 229.841V270.938H388.201Z" fill="#5EC738"/>
<path d="M401.927 253.764H400.062C399.097 253.783 398.32 254.563 398.302 255.531C398.302 256.507 399.09 257.298 400.062 257.298H401.927C402.899 257.298 403.687 256.507 403.687 255.531C403.687 254.555 402.899 253.764 401.927 253.764Z" fill="#5EC738"/>
<path d="M448.281 241.892C449.253 241.892 450.041 241.101 450.041 240.125C450.041 239.149 449.253 238.358 448.281 238.358H418.752C417.781 238.358 416.993 239.149 416.993 240.125V259.066C416.993 260.041 417.781 260.832 418.752 260.832H448.281C449.253 260.832 450.041 260.041 450.041 259.066V249.136C450.022 248.168 449.245 247.388 448.281 247.369C447.309 247.369 446.521 248.16 446.521 249.136V257.299H420.512V241.892H448.281Z" fill="#5EC738"/>
<path d="M645.347 224.11L632.374 210.066V207.477C632.374 207.167 632.366 206.858 632.352 206.555C632.149 201.943 629.944 196.089 625.473 193.41C623.441 192.19 620.119 191.171 615.837 193.225C609.441 196.29 605.87 205.607 605.259 212.968C604.982 216.304 605.124 219.928 605.706 224.378C605.818 225.229 607.178 229.693 607.45 230.579C609.133 236.074 609.397 236.935 610.445 236.935C610.591 236.935 610.753 236.917 610.936 236.895L612.023 236.757C612.118 237.826 612.258 238.856 612.46 239.732L612.048 257.395L606.462 270.992C606.3 271.387 606.302 271.832 606.468 272.227C606.634 272.622 606.951 272.933 607.348 273.094L613.724 275.668C613.92 275.747 614.123 275.785 614.325 275.785C614.849 275.785 615.356 275.528 615.662 275.072L625.791 259.958L629.216 274.544C629.387 275.271 630.036 275.785 630.782 275.785H637.596C638.031 275.785 638.448 275.609 638.751 275.296C639.054 274.983 639.217 274.561 639.204 274.126L638.464 250.735C638.459 250.6 638.438 250.465 638.399 250.335L632.374 229.722V226.704C633.658 227.498 634.964 228.291 636.307 229.098C637.564 229.852 638.836 230.616 640.112 231.403C640.375 231.565 640.666 231.642 640.955 231.642C641.476 231.642 641.987 231.388 642.296 230.923L645.505 226.092C645.916 225.475 645.85 224.656 645.347 224.11ZM637.963 226.34C636.032 225.181 634.163 224.055 632.374 222.909V214.809L642.125 225.366L640.474 227.853C639.632 227.341 638.794 226.839 637.963 226.34ZM629.157 224.641V228.284H618.691L618.49 225.698L617.786 216.647C618.829 215.007 619.991 212.819 621.181 210.437C622.001 208.794 622.834 207.063 623.652 205.343C624.034 204.542 623.694 203.582 622.892 203.2C622.091 202.82 621.13 203.159 620.748 203.961C618.674 208.315 616.506 212.78 614.802 215.335C614.602 215.634 614.508 215.992 614.537 216.352L615.834 233.033L615.063 233.131L611.851 233.537L611.77 233.547C610.926 231.042 609.036 224.795 608.895 223.96C608.344 219.745 608.208 216.335 608.465 213.234C609.006 206.717 612.261 198.506 617.228 196.126C618.415 195.557 619.556 195.273 620.645 195.273C621.761 195.273 622.822 195.572 623.82 196.17C626.756 197.929 628.943 202.258 629.138 206.701C629.15 206.958 629.157 207.217 629.157 207.477V210.586V210.676V214.736V220.733V222.685V224.641ZM624.788 255.688L613.717 272.195L610.053 270.716L615.137 258.341C615.211 258.159 615.252 257.965 615.257 257.768L615.574 244.167L624.249 253.393L624.788 255.688ZM635.255 251.041L635.936 272.567H632.056L627.282 252.237C627.218 251.962 627.082 251.709 626.888 251.503L615.776 239.686C615.708 239.524 615.644 239.312 615.585 239.062C615.574 239.03 615.576 238.993 615.563 238.962C615.417 238.303 615.301 237.396 615.216 236.353L617.758 236.032C618.609 235.924 619.226 235.168 619.16 234.312L618.941 231.501H629.542L635.255 251.041Z" fill="#5EC738"/>
<path d="M623.915 188.972C628.35 188.972 631.958 185.364 631.958 180.931C631.958 176.497 628.35 172.889 623.915 172.889C619.481 172.889 615.873 176.497 615.873 180.931C615.873 185.364 619.481 188.972 623.915 188.972ZM623.915 176.106C626.576 176.106 628.741 178.27 628.741 180.931C628.741 183.591 626.576 185.755 623.915 185.755C621.255 185.755 619.09 183.591 619.09 180.931C619.09 178.27 621.255 176.106 623.915 176.106Z" fill="#5EC738"/>
<path d="M160.606 224.111L147.632 210.066V207.477C147.632 207.167 147.625 206.858 147.611 206.555C147.408 201.943 145.203 196.089 140.732 193.41C138.699 192.19 135.377 191.171 131.096 193.226C124.7 196.291 121.129 205.607 120.518 212.968C120.241 216.304 120.383 219.928 120.965 224.378C121.077 225.229 122.437 229.693 122.708 230.579C124.392 236.074 124.656 236.935 125.704 236.935C125.85 236.935 126.012 236.917 126.194 236.895L127.282 236.758C127.377 237.826 127.516 238.856 127.719 239.732L127.306 257.395L121.721 270.992C121.558 271.388 121.56 271.832 121.727 272.227C121.893 272.622 122.21 272.933 122.607 273.094L128.982 275.668C129.178 275.747 129.382 275.785 129.584 275.785C130.108 275.785 130.615 275.528 130.921 275.072L141.05 259.958L144.475 274.544C144.645 275.271 145.294 275.785 146.041 275.785H152.854C153.29 275.785 153.707 275.609 154.01 275.296C154.313 274.983 154.476 274.561 154.462 274.126L153.722 250.735C153.718 250.6 153.696 250.465 153.658 250.335L147.632 229.722V226.704C148.917 227.499 150.222 228.291 151.566 229.098C152.822 229.852 154.095 230.616 155.371 231.403C155.634 231.565 155.925 231.642 156.214 231.642C156.735 231.642 157.246 231.388 157.554 230.923L160.763 226.092C161.174 225.475 161.109 224.656 160.606 224.111ZM153.221 226.34C151.291 225.181 149.422 224.055 147.632 222.909V214.809L157.384 225.366L155.732 227.853C154.891 227.342 154.053 226.839 153.221 226.34ZM144.415 224.641V228.284H133.95L133.749 225.698L133.045 216.647C134.088 215.007 135.25 212.819 136.439 210.437C137.259 208.794 138.093 207.063 138.911 205.344C139.293 204.542 138.953 203.582 138.151 203.2C137.35 202.82 136.388 203.16 136.007 203.961C133.933 208.316 131.765 212.78 130.061 215.335C129.861 215.634 129.767 215.993 129.795 216.352L131.093 233.033L130.322 233.131L127.11 233.537L127.029 233.547C126.184 231.042 124.295 224.795 124.154 223.96C123.603 219.745 123.467 216.336 123.724 213.234C124.265 206.717 127.52 198.506 132.486 196.126C133.673 195.557 134.814 195.273 135.903 195.273C137.02 195.273 138.081 195.572 139.078 196.17C142.015 197.929 144.202 202.259 144.397 206.701C144.409 206.958 144.415 207.217 144.415 207.477V210.586V210.676V214.736V220.733V222.686V224.641ZM140.047 255.688L128.975 272.196L125.312 270.716L130.395 258.341C130.47 258.159 130.511 257.965 130.515 257.768L130.833 244.167L139.508 253.393L140.047 255.688ZM150.513 251.041L151.194 272.568H147.315L142.541 252.237C142.476 251.962 142.341 251.709 142.147 251.503L131.035 239.686C130.967 239.524 130.903 239.312 130.844 239.062C130.833 239.03 130.835 238.993 130.822 238.962C130.676 238.303 130.559 237.396 130.475 236.353L133.017 236.033C133.868 235.925 134.485 235.168 134.419 234.312L134.2 231.501H144.801L150.513 251.041Z" fill="#5EC738"/>
<path d="M139.174 188.972C143.609 188.972 147.217 185.364 147.217 180.931C147.217 176.497 143.609 172.889 139.174 172.889C134.74 172.889 131.132 176.497 131.132 180.931C131.132 185.364 134.74 188.972 139.174 188.972ZM139.174 176.106C141.835 176.106 144 178.27 144 180.931C144 183.591 141.835 185.755 139.174 185.755C136.513 185.755 134.349 183.591 134.349 180.931C134.349 178.27 136.513 176.106 139.174 176.106Z" fill="#5EC738"/>
<path d="M462.814 148.355H462.611L462.466 148.496L438.293 171.979V148.855V148.355H437.793H353.618C348.978 148.355 345.529 148.355 342.8 148.124C340.077 147.895 338.117 147.439 336.445 146.553C333.699 145.099 331.453 142.854 329.999 140.108C329.114 138.436 328.658 136.476 328.428 133.753C328.198 131.024 328.198 127.575 328.198 122.935V36.799C328.198 32.159 328.198 28.71 328.428 25.9811C328.658 23.2584 329.114 21.298 329.999 19.6261C331.453 16.8801 333.699 14.6345 336.445 13.1806C338.117 12.2953 340.077 11.8394 342.8 11.6097C345.529 11.3794 348.978 11.379 353.618 11.379H587.621C592.261 11.379 595.71 11.3794 598.439 11.6097C601.162 11.8394 603.122 12.2953 604.794 13.1806C607.54 14.6345 609.786 16.8801 611.239 19.6261C612.125 21.298 612.581 23.2584 612.81 25.9811C613.041 28.71 613.041 32.159 613.041 36.799V122.935C613.041 127.575 613.041 131.024 612.81 133.753C612.581 136.476 612.125 138.436 611.239 140.108C609.786 142.854 607.54 145.099 604.794 146.553C603.122 147.439 601.162 147.895 598.439 148.124C595.71 148.355 592.261 148.355 587.621 148.355H462.814Z" stroke="#C6C6C6"/>
<path d="M199.845 189.96H175.334C172.627 189.96 170.432 192.154 170.432 194.862V234.079C170.432 236.787 172.627 238.982 175.334 238.982H199.845C202.553 238.982 204.747 236.787 204.747 234.079V194.862C204.747 192.154 202.553 189.96 199.845 189.96Z" stroke="#5EC738" stroke-width="3" stroke-linecap="round" stroke-linejoin="round"/>
<path d="M170.784 224.479H204.384" stroke="#5EC738" stroke-width="3"/>
<circle cx="187.585" cy="231.629" r="2.85961" fill="#5EC738"/>
<path d="M688.251 220.915L664.758 207.367" stroke="#5EC738" stroke-width="3" stroke-linecap="round" stroke-linejoin="round"/>
<path d="M700 238.141V217.259C699.999 216.343 699.758 215.444 699.299 214.651C698.841 213.859 698.183 213.201 697.39 212.743L679.118 202.302C678.324 201.843 677.424 201.602 676.507 201.602C675.591 201.602 674.691 201.843 673.897 202.302L655.625 212.743C654.832 213.201 654.174 213.859 653.715 214.651C653.257 215.444 653.016 216.343 653.015 217.259V238.141C653.016 239.057 653.257 239.956 653.715 240.748C654.174 241.541 654.832 242.199 655.625 242.657L673.897 253.098C674.691 253.556 675.591 253.798 676.507 253.798C677.424 253.798 678.324 253.556 679.118 253.098L697.39 242.657C698.183 242.199 698.841 241.541 699.299 240.748C699.758 239.956 699.999 239.057 700 238.141Z" stroke="#5EC738" stroke-width="3" stroke-linecap="round" stroke-linejoin="round"/>
<path d="M653.72 214.545L676.508 227.727L699.296 214.545" stroke="#5EC738" stroke-width="3" stroke-linecap="round" stroke-linejoin="round"/>
<path d="M676.513 254.012V227.7" stroke="#5EC738" stroke-width="3" stroke-linecap="round" stroke-linejoin="round"/>
<path d="M151.559 148.2H151.762L151.908 148.341L176.081 171.823V148.7V148.2H176.581H268.451C273.091 148.2 276.54 148.199 279.268 147.969C281.991 147.739 283.952 147.283 285.624 146.398C288.369 144.944 290.615 142.698 292.069 139.953C292.954 138.281 293.41 136.32 293.64 133.597C293.87 130.869 293.871 127.42 293.871 122.78V25.92C293.871 21.28 293.87 17.8311 293.64 15.1022C293.41 12.3794 292.954 10.419 292.069 8.74709C290.615 6.00114 288.369 3.75553 285.624 2.30163C283.952 1.41638 281.991 0.960463 279.268 0.730698C276.54 0.500415 273.091 0.5 268.451 0.5H144.768H25.9201C21.2801 0.5 17.8312 0.500415 15.1023 0.730698C12.3795 0.960463 10.4192 1.41638 8.74722 2.30163C6.00125 3.75553 3.75568 6.00114 2.30176 8.74709C1.4165 10.419 0.960571 12.3794 0.730804 15.1022C0.500549 17.8311 0.500122 21.28 0.500122 25.92V122.78C0.500122 127.42 0.500549 130.869 0.730804 133.597C0.960571 136.32 1.4165 138.281 2.30176 139.953C3.75568 142.698 6.00125 144.944 8.74722 146.398C10.4192 147.283 12.3795 147.739 15.1023 147.969C17.8312 148.199 21.2801 148.2 25.9201 148.2H151.559Z" stroke="#C6C6C6"/>
<path d="M52.5998 39.2364C55.9118 39.2364 57.1598 36.4044 57.1598 33.4124C57.1598 30.3884 55.8798 27.5884 52.5998 27.5884C49.3198 27.5884 48.0238 30.3724 48.0238 33.4124C48.0238 36.4044 49.2878 39.2364 52.5998 39.2364ZM52.5998 38.0684C50.1518 38.0684 49.3518 35.6364 49.3518 33.4124C49.3518 31.2044 50.1358 28.7564 52.5998 28.7564C55.0478 28.7564 55.8318 31.1884 55.8318 33.4124C55.8318 35.6364 55.0478 38.0684 52.5998 38.0684ZM65.1764 37.8924V30.9004H60.0564L59.8644 34.1964C59.7844 35.4284 59.7684 36.9644 58.9364 37.8924H58.1844V41.3964H59.2724L59.3364 39.0124H65.0164L65.0804 41.3964H66.1684V37.8924H65.1764ZM61.2244 31.9884H63.9444V37.8924H60.3764C60.8884 37.0444 61.0004 35.9404 61.0644 34.7884L61.2244 31.9884ZM71.1692 39.2364C73.3292 39.2364 74.7532 37.5404 74.7532 34.9804C74.7532 32.3724 73.3452 30.6764 71.1692 30.6764C68.9932 30.6764 67.5852 32.3724 67.5852 34.9804C67.5852 37.5404 69.0092 39.2364 71.1692 39.2364ZM71.1692 38.1484C69.7932 38.1484 68.8652 36.8684 68.8652 34.9804C68.8652 33.0124 69.7772 31.7484 71.1692 31.7484C72.5612 31.7484 73.4732 33.0124 73.4732 34.9804C73.4732 36.8684 72.5452 38.1484 71.1692 38.1484ZM80.1588 39.2364C82.2228 39.2364 83.6468 37.6204 83.6468 35.2524C83.6468 32.7244 82.4628 31.2524 80.4628 31.2524C79.3268 31.2524 78.5108 31.6364 77.9188 32.4684L77.8868 32.4524C78.0948 30.0524 78.9268 29.0444 80.8308 28.8524C81.6468 28.7724 82.3188 28.6284 82.8628 28.4044V27.1084C82.3668 27.3804 81.7748 27.5564 80.5588 27.6844C77.6628 27.9884 76.6708 29.7484 76.6708 34.5164C76.6708 37.6204 77.8548 39.2364 80.1588 39.2364ZM80.1588 38.1644C78.8628 38.1644 77.9988 36.9964 77.9988 35.2524C77.9988 33.5084 78.8628 32.3404 80.1588 32.3404C81.4548 32.3404 82.3348 33.5244 82.3348 35.2524C82.3348 36.9804 81.4548 38.1644 80.1588 38.1644ZM85.7713 42.4044H87.0033V39.0124C87.0033 38.7724 87.0033 38.5804 86.9713 38.0364H87.0033C87.5153 38.7884 88.3793 39.2364 89.3553 39.2364C91.3873 39.2364 92.6833 37.4924 92.6833 34.9324C92.6833 32.3724 91.3873 30.6764 89.4513 30.6764C88.4753 30.6764 87.6593 31.0764 86.9553 31.9084H86.9233L86.8433 30.9004H85.7713V42.4044ZM89.1793 38.1644C87.8353 38.1644 87.0033 36.9484 87.0033 34.9964C87.0033 32.9004 87.7873 31.7644 89.2433 31.7644C90.6033 31.7644 91.4033 32.9644 91.4033 34.9804C91.4033 36.9484 90.6033 38.1644 89.1793 38.1644ZM100.8 34.2124C100.8 32.0204 99.6803 30.6764 97.7603 30.6764C95.6163 30.6764 94.2883 32.3404 94.2883 34.9964C94.2883 37.6204 95.6323 39.1724 98.0163 39.1724C98.9123 39.1724 99.7603 38.9644 100.448 38.5324V37.3644C99.7283 37.8284 98.9443 38.0844 98.1283 38.0844C96.5283 38.0844 95.5843 37.0444 95.5523 35.2044H100.72C100.768 34.8524 100.8 34.5324 100.8 34.2124ZM97.7923 31.7484C98.9603 31.7484 99.5843 32.5804 99.5843 34.1484H95.6003C95.8403 32.5964 96.6243 31.7484 97.7923 31.7484ZM107.998 30.9004V34.2284H104.206V30.9004H102.974V39.0124H104.206V35.3644H107.998V39.0124H109.23V30.9004H107.998ZM117.077 30.9004V34.2284H113.285V30.9004H112.053V39.0124H113.285V35.3644H117.077V39.0124H118.309V30.9004H117.077ZM121.131 39.0124H124.251C125.979 39.0124 127.147 37.9724 127.147 36.2924C127.147 34.6124 125.979 33.5884 124.251 33.5884H122.363V30.9004H121.131V39.0124ZM129.115 39.0124H130.347V30.9004H129.115V39.0124ZM122.363 37.9724V34.6124H123.867C125.275 34.6124 125.867 35.1084 125.867 36.2924C125.867 37.4604 125.259 37.9724 123.867 37.9724H122.363ZM136.378 29.6684C137.082 29.6684 137.706 29.5244 138.186 29.2204V28.2444C137.562 28.5484 136.938 28.6604 136.378 28.6604C135.818 28.6604 135.194 28.5484 134.57 28.2444V29.2364C135.05 29.5244 135.674 29.6684 136.378 29.6684ZM133.162 39.1244H133.418L137.53 34.5644C137.802 34.2604 138.058 33.9564 138.314 33.6524H138.33C138.298 34.3084 138.298 34.8844 138.298 35.5084V39.0124H139.53V30.8044H139.274L135.162 35.4124C134.89 35.7164 134.65 35.9884 134.394 36.3084H134.378C134.394 35.8444 134.394 35.3644 134.394 34.9004V30.9004H133.162V39.1244ZM144.729 39.0764C146.857 39.2524 147.401 37.5404 147.545 34.7884L147.689 31.9884H150.425V39.0124H151.657V30.9004H146.521L146.345 34.1804C146.233 36.3404 146.057 38.0684 144.729 37.9404V39.0764ZM154.474 39.1244H154.73L158.842 34.5644C159.114 34.2604 159.37 33.9564 159.626 33.6524H159.642C159.61 34.3084 159.61 34.8844 159.61 35.5084V39.0124H160.842V30.8044H160.586L156.474 35.4124C156.202 35.7164 155.962 35.9884 155.706 36.3084H155.69C155.706 35.8444 155.706 35.3644 155.706 34.9004V30.9004H154.474V39.1244ZM162.734 39.0124H163.982L164.686 35.6844C164.83 34.9964 164.91 34.3244 164.99 33.6364H165.022C165.278 34.1964 165.518 34.6924 165.79 35.2204L167.214 38.0204H167.598L169.054 35.1884C169.326 34.6604 169.55 34.1484 169.806 33.6364H169.838C169.918 34.3244 170.014 34.9964 170.158 35.6844L170.862 39.0124H172.11L170.366 30.8364H170.062L168.206 34.4844C167.95 34.9964 167.694 35.4924 167.438 35.9884H167.406C167.166 35.5084 166.926 35.0604 166.67 34.5484L164.782 30.8364H164.478L162.734 39.0124ZM174.006 39.1244H174.262L178.374 34.5644C178.646 34.2604 178.902 33.9564 179.158 33.6524H179.174C179.142 34.3084 179.142 34.8844 179.142 35.5084V39.0124H180.374V30.8044H180.118L176.006 35.4124C175.734 35.7164 175.494 35.9884 175.238 36.3084H175.222C175.238 35.8444 175.238 35.3644 175.238 34.9004V30.9004H174.006V39.1244ZM184.553 39.0124H185.785V32.0364H188.249V30.9004H182.089V32.0364H184.553V39.0124ZM196.232 39.2364C198.392 39.2364 199.816 37.5404 199.816 34.9804C199.816 32.3724 198.408 30.6764 196.232 30.6764C194.056 30.6764 192.648 32.3724 192.648 34.9804C192.648 37.5404 194.072 39.2364 196.232 39.2364ZM196.232 38.1484C194.856 38.1484 193.928 36.8684 193.928 34.9804C193.928 33.0124 194.84 31.7484 196.232 31.7484C197.624 31.7484 198.536 33.0124 198.536 34.9804C198.536 36.8684 197.608 38.1484 196.232 38.1484ZM203.178 39.0124H204.41V32.0364H206.874V30.9004H200.714V32.0364H203.178V39.0124ZM215.081 39.2364C217.145 39.2364 218.569 37.6204 218.569 35.2524C218.569 32.7244 217.385 31.2524 215.385 31.2524C214.249 31.2524 213.433 31.6364 212.841 32.4684L212.809 32.4524C213.017 30.0524 213.849 29.0444 215.753 28.8524C216.569 28.7724 217.241 28.6284 217.785 28.4044V27.1084C217.289 27.3804 216.697 27.5564 215.481 27.6844C212.585 27.9884 211.593 29.7484 211.593 34.5164C211.593 37.6204 212.777 39.2364 215.081 39.2364ZM215.081 38.1644C213.785 38.1644 212.921 36.9964 212.921 35.2524C212.921 33.5084 213.785 32.3404 215.081 32.3404C216.377 32.3404 217.257 33.5244 217.257 35.2524C217.257 36.9804 216.377 38.1644 215.081 38.1644ZM223.397 30.7564C222.549 30.7564 221.637 30.9324 220.757 31.4284V32.6124C221.541 32.1164 222.437 31.8444 223.301 31.8444C224.437 31.8444 225.013 32.5484 225.013 33.5564V33.8924C224.629 33.8284 224.277 33.8124 223.877 33.8124C221.733 33.8124 220.117 34.7564 220.117 36.7404C220.117 38.2444 220.997 39.1724 222.469 39.1724C223.605 39.1724 224.501 38.6604 225.061 38.0044H225.093L225.173 39.0124H226.245V33.5404C226.245 31.8444 225.157 30.7564 223.397 30.7564ZM222.853 38.1004C221.861 38.1004 221.445 37.5404 221.445 36.7084C221.445 35.5084 222.389 34.8204 224.021 34.8204C224.373 34.8204 224.725 34.8524 225.013 34.9004V35.9244C225.013 37.2524 223.989 38.1004 222.853 38.1004ZM233.983 30.9004V34.2284H230.191V30.9004H228.959V39.0124H230.191V35.3644H233.983V39.0124H235.215V30.9004H233.983ZM238.037 39.0124H239.269V30.9004H238.037V39.0124ZM241.013 34.6764L244.213 30.9004H242.661L239.621 34.5484V34.8524L243.045 39.0124H244.613L241.013 34.6764ZM248.819 30.7564C247.971 30.7564 247.059 30.9324 246.179 31.4284V32.6124C246.963 32.1164 247.859 31.8444 248.723 31.8444C249.859 31.8444 250.435 32.5484 250.435 33.5564V33.8924C250.051 33.8284 249.699 33.8124 249.299 33.8124C247.155 33.8124 245.539 34.7564 245.539 36.7404C245.539 38.2444 246.419 39.1724 247.891 39.1724C249.027 39.1724 249.923 38.6604 250.483 38.0044H250.515L250.595 39.0124H251.667V33.5404C251.667 31.8444 250.579 30.7564 248.819 30.7564ZM248.275 38.1004C247.283 38.1004 246.867 37.5404 246.867 36.7084C246.867 35.5084 247.811 34.8204 249.443 34.8204C249.795 34.8204 250.147 34.8524 250.435 34.9004V35.9244C250.435 37.2524 249.411 38.1004 248.275 38.1004Z" fill="black"/>
<path d="M53.3518 73.0798C54.2798 72.6478 54.8078 71.7998 54.8078 70.6958C54.8078 68.8718 53.6398 67.8478 51.5438 67.8478H48.6478V79.0478H51.5758C54.0398 79.0478 55.3358 77.9598 55.3358 75.8958C55.3358 74.4238 54.6318 73.4478 53.3518 73.0798ZM53.4958 70.7918C53.4958 71.9278 52.7598 72.5678 51.5278 72.5678H49.9438V69.0158H51.5278C52.8558 69.0158 53.4958 69.5758 53.4958 70.7918ZM51.5918 77.8798H49.9438V73.7358H51.5758C53.1758 73.7358 54.0078 74.4238 54.0078 75.8158C54.0078 77.2558 53.2558 77.8798 51.5918 77.8798ZM60.3064 74.7278C61.0424 74.4078 61.7144 73.7038 61.7144 72.7598C61.7144 71.4158 60.6264 70.7918 59.2504 70.7918C58.4024 70.7918 57.5864 71.0158 56.9624 71.3198L56.9464 72.4718C57.4744 72.1518 58.2744 71.8798 58.9464 71.8798C59.9384 71.8798 60.4184 72.2158 60.4184 72.9518C60.4184 73.8158 59.6984 74.3278 58.7384 74.3278H57.8584L57.8424 75.3838H59.0104C60.1784 75.3838 60.7224 75.7998 60.7224 76.6958C60.7224 77.6878 59.9384 78.1358 58.9304 78.1358C58.1144 78.1358 57.2984 77.9598 56.6904 77.5918L56.6744 78.7758C57.4264 79.0638 58.1304 79.2078 58.9784 79.2078C60.6424 79.2078 62.0344 78.2798 62.0344 76.7598C62.0344 75.5758 61.3144 74.9678 60.3064 74.7278ZM66.5158 70.9358C64.9958 70.9358 63.6678 71.7838 63.6678 73.4958C63.6678 74.9358 64.5478 75.6238 65.6038 75.8478L63.1078 79.0478H64.6118L67.2838 75.3998V74.9838H66.6278C65.6678 74.9838 64.9958 74.5038 64.9958 73.4958C64.9958 72.4878 65.6678 72.0238 66.6278 72.0238H68.1158V79.0478H69.3478V70.9358H66.5158ZM73.5219 79.0478H74.7539V72.0718H77.2179V70.9358H71.0579V72.0718H73.5219V79.0478ZM78.9432 79.1598H79.1992L83.3112 74.5998C83.5832 74.2958 83.8392 73.9918 84.0952 73.6878H84.1112C84.0792 74.3438 84.0792 74.9198 84.0792 75.5438V79.0478H85.3112V70.8398H85.0552L80.9432 75.4478C80.6712 75.7518 80.4312 76.0238 80.1752 76.3438H80.1592C80.1752 75.8798 80.1752 75.3998 80.1752 74.9358V70.9358H78.9432V79.1598ZM94.0347 74.2478C94.0347 72.0558 92.9147 70.7118 90.9947 70.7118C88.8507 70.7118 87.5227 72.3758 87.5227 75.0318C87.5227 77.6558 88.8667 79.2078 91.2507 79.2078C92.1467 79.2078 92.9947 78.9998 93.6827 78.5678V77.3998C92.9627 77.8638 92.1787 78.1198 91.3627 78.1198C89.7627 78.1198 88.8187 77.0798 88.7867 75.2398H93.9547C94.0027 74.8878 94.0347 74.5678 94.0347 74.2478ZM91.0267 71.7838C92.1947 71.7838 92.8187 72.6158 92.8187 74.1838H88.8347C89.0747 72.6318 89.8587 71.7838 91.0267 71.7838ZM104.748 70.9358V74.2638H100.956V70.9358H99.7244V79.0478H100.956V75.3998H104.748V79.0478H105.98V70.9358H104.748ZM113.555 70.9358L112.003 75.0958C111.811 75.6238 111.619 76.1678 111.331 77.0478H111.315C110.979 76.0878 110.803 75.6078 110.611 75.1278L108.963 70.9358H107.587L110.707 78.6478C109.987 80.9358 109.363 81.5918 108.131 81.6078V82.6638C110.083 82.6158 110.659 82.0398 111.811 78.9998L114.883 70.9358H113.555ZM115.211 79.0478H116.763L119.867 74.8078V74.5038L117.115 70.9358H115.611L118.523 74.6638L115.211 79.0478ZM120.219 79.0478H121.451V70.9358H120.219V79.0478ZM124.907 79.0478H126.459L123.131 74.6638L126.059 70.9358H124.555L121.803 74.5038V74.8078L124.907 79.0478ZM133.045 70.9358V74.2638H129.253V70.9358H128.021V79.0478H129.253V75.3998H133.045V79.0478H134.277V70.9358H133.045ZM140.075 79.2718C142.235 79.2718 143.659 77.5758 143.659 75.0158C143.659 72.4078 142.251 70.7118 140.075 70.7118C137.899 70.7118 136.491 72.4078 136.491 75.0158C136.491 77.5758 137.915 79.2718 140.075 79.2718ZM140.075 78.1838C138.699 78.1838 137.771 76.9038 137.771 75.0158C137.771 73.0478 138.683 71.7838 140.075 71.7838C141.467 71.7838 142.379 73.0478 142.379 75.0158C142.379 76.9038 141.451 78.1838 140.075 78.1838ZM149.081 69.7038C149.785 69.7038 150.409 69.5598 150.889 69.2558V68.2798C150.265 68.5838 149.641 68.6958 149.081 68.6958C148.521 68.6958 147.897 68.5838 147.273 68.2798V69.2718C147.753 69.5598 148.377 69.7038 149.081 69.7038ZM145.865 79.1598H146.121L150.233 74.5998C150.505 74.2958 150.761 73.9918 151.017 73.6878H151.033C151.001 74.3438 151.001 74.9198 151.001 75.5438V79.0478H152.233V70.8398H151.977L147.865 75.4478C147.593 75.7518 147.353 76.0238 147.097 76.3438H147.081C147.097 75.8798 147.097 75.3998 147.097 74.9358V70.9358H145.865V79.1598ZM161.608 79.2078C162.328 79.2078 162.968 79.0958 163.608 78.7918V77.6398C163.032 77.9758 162.408 78.1198 161.752 78.1198C159.784 78.1198 159.24 76.5518 159.24 74.9998C159.24 73.2398 160.008 71.8638 161.864 71.8638C162.472 71.8638 163.048 72.0398 163.432 72.2798V71.1278C162.84 70.8398 162.264 70.7918 161.672 70.7918C159.096 70.7918 157.96 72.7758 157.96 74.9998C157.96 77.4958 159.128 79.2078 161.608 79.2078ZM170.508 70.9358L168.956 75.0958C168.764 75.6238 168.572 76.1678 168.284 77.0478H168.268C167.932 76.0878 167.756 75.6078 167.564 75.1278L165.916 70.9358H164.54L167.66 78.6478C166.94 80.9358 166.316 81.5918 165.084 81.6078V82.6638C167.036 82.6158 167.612 82.0398 168.764 78.9998L171.836 70.9358H170.508ZM172.078 79.0478H173.326L174.03 75.7198C174.174 75.0318 174.254 74.3598 174.334 73.6718H174.366C174.622 74.2318 174.862 74.7278 175.134 75.2558L176.558 78.0558H176.942L178.398 75.2238C178.67 74.6958 178.894 74.1838 179.15 73.6718H179.182C179.262 74.3598 179.358 75.0318 179.502 75.7198L180.206 79.0478H181.454L179.71 70.8718H179.406L177.55 74.5198C177.294 75.0318 177.038 75.5278 176.782 76.0238H176.75C176.51 75.5438 176.27 75.0958 176.014 74.5838L174.126 70.8718H173.822L172.078 79.0478ZM182.421 79.0478H183.669L184.373 75.7198C184.517 75.0318 184.597 74.3598 184.677 73.6718H184.709C184.965 74.2318 185.205 74.7278 185.477 75.2558L186.901 78.0558H187.285L188.741 75.2238C189.013 74.6958 189.237 74.1838 189.493 73.6718H189.525C189.605 74.3598 189.701 75.0318 189.845 75.7198L190.549 79.0478H191.797L190.053 70.8718H189.749L187.893 74.5198C187.637 75.0318 187.381 75.5278 187.125 76.0238H187.093C186.853 75.5438 186.613 75.0958 186.357 74.5838L184.469 70.8718H184.165L182.421 79.0478ZM193.693 79.0478H196.813C198.541 79.0478 199.709 78.0078 199.709 76.3278C199.709 74.6478 198.541 73.6238 196.813 73.6238H194.925V70.9358H193.693V79.0478ZM201.677 79.0478H202.909V70.9358H201.677V79.0478ZM194.925 78.0078V74.6478H196.429C197.837 74.6478 198.429 75.1438 198.429 76.3278C198.429 77.4958 197.821 78.0078 196.429 78.0078H194.925Z" fill="black"/>
<path d="M53.3518 110.685C54.2798 110.253 54.8078 109.405 54.8078 108.301C54.8078 106.477 53.6398 105.453 51.5438 105.453H48.6478V116.653H51.5758C54.0398 116.653 55.3358 115.565 55.3358 113.501C55.3358 112.029 54.6318 111.053 53.3518 110.685ZM53.4958 108.397C53.4958 109.533 52.7598 110.173 51.5278 110.173H49.9438V106.621H51.5278C52.8558 106.621 53.4958 107.181 53.4958 108.397ZM51.5918 115.485H49.9438V111.341H51.5758C53.1758 111.341 54.0078 112.029 54.0078 113.421C54.0078 114.861 53.2558 115.485 51.5918 115.485ZM57.4744 116.765H57.7304L61.8424 112.205C62.1144 111.901 62.3704 111.597 62.6264 111.293H62.6424C62.6104 111.949 62.6104 112.525 62.6104 113.149V116.653H63.8424V108.445H63.5864L59.4744 113.053C59.2024 113.357 58.9624 113.629 58.7064 113.949H58.6904C58.7064 113.485 58.7064 113.005 58.7064 112.541V108.541H57.4744V116.765ZM66.6619 120.045H67.8939V116.653C67.8939 116.413 67.8939 116.221 67.8619 115.677H67.8939C68.4059 116.429 69.2699 116.877 70.2459 116.877C72.2779 116.877 73.5739 115.133 73.5739 112.573C73.5739 110.013 72.2779 108.317 70.3419 108.317C69.3659 108.317 68.5499 108.717 67.8459 109.549H67.8139L67.7339 108.541H66.6619V120.045ZM70.0699 115.805C68.7259 115.805 67.8939 114.589 67.8939 112.637C67.8939 110.541 68.6779 109.405 70.1339 109.405C71.4939 109.405 72.2939 110.605 72.2939 112.621C72.2939 114.589 71.4939 115.805 70.0699 115.805ZM76.9438 116.653H78.1758V109.677H80.6398V108.541H74.4798V109.677H76.9438V116.653ZM87.117 108.541L85.565 112.701C85.373 113.229 85.181 113.773 84.893 114.653H84.877C84.541 113.693 84.365 113.213 84.173 112.733L82.525 108.541H81.149L84.269 116.253C83.549 118.541 82.925 119.197 81.693 119.213V120.269C83.645 120.221 84.221 119.645 85.373 116.605L88.445 108.541H87.117ZM92.6159 108.397C91.7679 108.397 90.8559 108.573 89.9759 109.069V110.253C90.7599 109.757 91.6559 109.485 92.5199 109.485C93.6559 109.485 94.2319 110.189 94.2319 111.197V111.533C93.8479 111.469 93.4959 111.453 93.0959 111.453C90.9519 111.453 89.3359 112.397 89.3359 114.381C89.3359 115.885 90.2159 116.813 91.6879 116.813C92.8239 116.813 93.7199 116.301 94.2799 115.645H94.3119L94.3919 116.653H95.4639V111.181C95.4639 109.485 94.3759 108.397 92.6159 108.397ZM92.0719 115.741C91.0799 115.741 90.6639 115.181 90.6639 114.349C90.6639 113.149 91.6079 112.461 93.2399 112.461C93.5919 112.461 93.9439 112.493 94.2319 112.541V113.565C94.2319 114.893 93.2079 115.741 92.0719 115.741ZM97.0415 116.717C99.1695 116.893 99.7135 115.181 99.8575 112.429L100.002 109.629H102.738V116.653H103.97V108.541H98.8335L98.6575 111.821C98.5455 113.981 98.3695 115.709 97.0415 115.581V116.717ZM106.787 116.653H109.907C111.635 116.653 112.803 115.613 112.803 113.933C112.803 112.253 111.635 111.229 109.907 111.229H108.019V108.541H106.787V116.653ZM108.019 115.613V112.253H109.523C110.931 112.253 111.523 112.749 111.523 113.933C111.523 115.101 110.915 115.613 109.523 115.613H108.019ZM119.795 108.541V111.869H116.003V108.541H114.771V116.653H116.003V113.005H119.795V116.653H121.027V108.541H119.795ZM126.553 108.397C125.705 108.397 124.793 108.573 123.913 109.069V110.253C124.697 109.757 125.593 109.485 126.457 109.485C127.593 109.485 128.169 110.189 128.169 111.197V111.533C127.785 111.469 127.433 111.453 127.033 111.453C124.889 111.453 123.273 112.397 123.273 114.381C123.273 115.885 124.153 116.813 125.625 116.813C126.761 116.813 127.657 116.301 128.217 115.645H128.249L128.329 116.653H129.401V111.181C129.401 109.485 128.313 108.397 126.553 108.397ZM126.009 115.741C125.017 115.741 124.601 115.181 124.601 114.349C124.601 113.149 125.545 112.461 127.177 112.461C127.529 112.461 127.881 112.493 128.169 112.541V113.565C128.169 114.893 127.145 115.741 126.009 115.741ZM134.547 108.541C133.027 108.541 131.699 109.389 131.699 111.101C131.699 112.541 132.579 113.229 133.635 113.453L131.139 116.653H132.643L135.315 113.005V112.589H134.659C133.699 112.589 133.027 112.109 133.027 111.101C133.027 110.093 133.699 109.629 134.659 109.629H136.147V116.653H137.379V108.541H134.547ZM143.709 116.653H144.941V108.541H143.709V116.653ZM146.685 112.317L149.885 108.541H148.333L145.293 112.189V112.493L148.717 116.653H150.285L146.685 112.317ZM154.491 108.397C153.643 108.397 152.731 108.573 151.851 109.069V110.253C152.635 109.757 153.531 109.485 154.395 109.485C155.531 109.485 156.107 110.189 156.107 111.197V111.533C155.723 111.469 155.371 111.453 154.971 111.453C152.827 111.453 151.211 112.397 151.211 114.381C151.211 115.885 152.091 116.813 153.563 116.813C154.699 116.813 155.595 116.301 156.155 115.645H156.187L156.267 116.653H157.339V111.181C157.339 109.485 156.251 108.397 154.491 108.397ZM153.947 115.741C152.955 115.741 152.539 115.181 152.539 114.349C152.539 113.149 153.483 112.461 155.115 112.461C155.467 112.461 155.819 112.493 156.107 112.541V113.565C156.107 114.893 155.083 115.741 153.947 115.741ZM160.053 120.045H161.285V116.653C161.285 116.413 161.285 116.221 161.253 115.677H161.285C161.797 116.429 162.661 116.877 163.637 116.877C165.669 116.877 166.965 115.133 166.965 112.573C166.965 110.013 165.669 108.317 163.733 108.317C162.757 108.317 161.941 108.717 161.237 109.549H161.205L161.125 108.541H160.053V120.045ZM163.461 115.805C162.117 115.805 161.285 114.589 161.285 112.637C161.285 110.541 162.069 109.405 163.525 109.405C164.885 109.405 165.685 110.605 165.685 112.621C165.685 114.589 164.885 115.805 163.461 115.805ZM170.334 116.653H171.566V109.677H174.03V108.541H167.87V109.677H170.334V116.653ZM178.303 108.397C177.455 108.397 176.543 108.573 175.663 109.069V110.253C176.447 109.757 177.343 109.485 178.207 109.485C179.343 109.485 179.919 110.189 179.919 111.197V111.533C179.535 111.469 179.183 111.453 178.783 111.453C176.639 111.453 175.023 112.397 175.023 114.381C175.023 115.885 175.903 116.813 177.375 116.813C178.511 116.813 179.407 116.301 179.967 115.645H179.999L180.079 116.653H181.151V111.181C181.151 109.485 180.063 108.397 178.303 108.397ZM177.759 115.741C176.767 115.741 176.351 115.181 176.351 114.349C176.351 113.149 177.295 112.461 178.927 112.461C179.279 112.461 179.631 112.493 179.919 112.541V113.565C179.919 114.893 178.895 115.741 177.759 115.741Z" fill="black"/>
<path d="M353.012 77.5238L355.007 79.5184L361.655 72.8698" stroke="#52AE30" stroke-linecap="round" stroke-linejoin="round"/>
<path d="M360.99 78.1886V82.8426C360.99 83.1953 360.85 83.5335 360.6 83.7829C360.351 84.0322 360.013 84.1723 359.66 84.1723H350.352C350 84.1723 349.661 84.0322 349.412 83.7829C349.163 83.5335 349.022 83.1953 349.022 82.8426V73.5346C349.022 73.1819 349.163 72.8437 349.412 72.5943C349.661 72.3449 350 72.2048 350.352 72.2048H357.666" stroke="#52AE30" stroke-linecap="round" stroke-linejoin="round"/>
<path d="M353.012 37.7101L355.007 39.7046L361.655 33.056" stroke="#52AE30" stroke-linecap="round" stroke-linejoin="round"/>
<path d="M360.99 38.3747V43.0288C360.99 43.3814 360.85 43.7196 360.6 43.969C360.351 44.2184 360.013 44.3585 359.66 44.3585H350.352C350 44.3585 349.661 44.2184 349.412 43.969C349.163 43.7196 349.022 43.3814 349.022 43.0288V33.7207C349.022 33.368 349.163 33.0298 349.412 32.7805C349.661 32.5311 350 32.391 350.352 32.391H357.666" stroke="#52AE30" stroke-linecap="round" stroke-linejoin="round"/>
<path d="M353.012 117.559L355.007 119.554L361.655 112.905" stroke="#52AE30" stroke-linecap="round" stroke-linejoin="round"/>
<path d="M360.99 118.224V122.878C360.99 123.231 360.85 123.569 360.6 123.818C360.351 124.068 360.013 124.208 359.66 124.208H350.352C350 124.208 349.661 124.068 349.412 123.818C349.163 123.569 349.022 123.231 349.022 122.878V113.57C349.022 113.217 349.163 112.879 349.412 112.63C349.661 112.38 350 112.24 350.352 112.24H357.666" stroke="#52AE30" stroke-linecap="round" stroke-linejoin="round"/>
<path d="M28.2939 32.4849L30.2885 34.4795L36.9371 27.8309" stroke="#52AE30" stroke-linecap="round" stroke-linejoin="round"/>
<path d="M36.2717 33.1496V37.8036C36.2717 38.1563 36.1316 38.4945 35.8822 38.7439C35.6329 38.9932 35.2946 39.1333 34.942 39.1333H25.6339C25.2813 39.1333 24.943 38.9932 24.6937 38.7439C24.4443 38.4945 24.3042 38.1563 24.3042 37.8036V28.4956C24.3042 28.1429 24.4443 27.8047 24.6937 27.5553C24.943 27.3059 25.2813 27.1658 25.6339 27.1658H32.9474" stroke="#52AE30" stroke-linecap="round" stroke-linejoin="round"/>
<path d="M28.2939 72.5203L30.2885 74.5149L36.9371 67.8663" stroke="#52AE30" stroke-linecap="round" stroke-linejoin="round"/>
<path d="M36.2717 73.185V77.839C36.2717 78.1917 36.1316 78.5299 35.8822 78.7793C35.6329 79.0286 35.2946 79.1687 34.942 79.1687H25.6339C25.2813 79.1687 24.943 79.0286 24.6937 78.7793C24.4443 78.5299 24.3042 78.1917 24.3042 77.839V68.531C24.3042 68.1783 24.4443 67.8401 24.6937 67.5907C24.943 67.3413 25.2813 67.2012 25.6339 67.2012H32.9474" stroke="#52AE30" stroke-linecap="round" stroke-linejoin="round"/>
<path d="M28.2939 111.125L30.2885 113.12L36.9371 106.471" stroke="#52AE30" stroke-linecap="round" stroke-linejoin="round"/>
<path d="M36.2717 111.79V116.444C36.2717 116.797 36.1316 117.135 35.8822 117.384C35.6329 117.634 35.2946 117.774 34.942 117.774H25.6339C25.2813 117.774 24.943 117.634 24.6937 117.384C24.4443 117.135 24.3042 116.797 24.3042 116.444V107.136C24.3042 106.783 24.4443 106.445 24.6937 106.196C24.943 105.946 25.2813 105.806 25.6339 105.806H32.9474" stroke="#52AE30" stroke-linecap="round" stroke-linejoin="round"/>
</svg>
