<svg width="66" height="93" viewBox="0 0 66 93" fill="none" xmlns="http://www.w3.org/2000/svg">
<path d="M55.6089 2.31982H11.1696C6.26097 2.31982 2.28174 6.29905 2.28174 11.2077V82.3105C2.28174 87.2191 6.26097 91.1983 11.1696 91.1983H55.6089C60.5175 91.1983 64.4967 87.2191 64.4967 82.3105V11.2077C64.4967 6.29905 60.5175 2.31982 55.6089 2.31982Z" stroke="#5EC738" stroke-width="3" stroke-linecap="round" stroke-linejoin="round"/>
<path d="M2.91943 64.9042H63.8382" stroke="#5EC738" stroke-width="3"/>
<circle cx="33.3794" cy="77.868" r="5.18458" fill="#5EC738"/>
<path d="M28 24.8334H37.3333C38.571 24.8334 39.758 25.3426 40.6332 26.249C41.5083 27.1555 42 28.3848 42 29.6667C42 30.9486 41.5083 32.178 40.6332 33.0844C39.758 33.9908 38.571 34.5 37.3333 34.5H28V24.8334Z" stroke="#6ECD4A" stroke-width="3" stroke-linecap="round" stroke-linejoin="round"/>
<path d="M28 34.5V44.1667" stroke="#6ECD4A" stroke-width="3" stroke-linecap="round" stroke-linejoin="round"/>
<path d="M38.5 39.3334H24.5" stroke="#6ECD4A" stroke-width="3" stroke-linecap="round" stroke-linejoin="round"/>
<circle cx="34" cy="34" r="19.5" stroke="#6ECD4A"/>
</svg>
