<svg width="24" height="24" viewBox="0 0 24 24" fill="none" xmlns="http://www.w3.org/2000/svg">
<path d="M24 21.8874C24 23.0401 23.0401 24 21.8874 24H2.11259C0.959854 24 0 23.0401 0 21.8874V2.11259C0 0.959854 0.959854 0 2.11259 0H21.8874C23.0401 0 24 0.959854 24 2.11259V21.8874ZM12.2042 6.53215C13.1838 6.53215 13.981 7.30159 13.981 8.24747C13.981 9.1923 13.1838 9.962 12.2042 9.962C11.2249 9.962 10.4274 9.1923 10.4274 8.24747C10.4274 7.30159 11.2249 6.53215 12.2042 6.53215ZM12.2042 12.389C14.5709 12.389 16.4957 10.5314 16.4957 8.24747C16.4957 5.96251 14.5709 4.10414 12.2042 4.10414C9.8375 4.10414 7.91247 5.96251 7.91247 8.24747C7.91247 10.5314 9.8375 12.389 12.2042 12.389ZM13.9401 15.7682C14.8138 15.5761 15.6566 15.2425 16.432 14.7717C17.0197 14.4145 17.1965 13.6652 16.8265 13.0983C16.4567 12.5302 15.6808 12.3593 15.0927 12.7167C13.3351 13.7837 11.0719 13.7832 9.31505 12.7167C8.72674 12.3593 7.95105 12.5302 7.58157 13.0983C7.21156 13.6657 7.38826 14.4145 7.97577 14.7717C8.75119 15.242 9.59388 15.5761 10.4671 15.7682L8.06831 18.0844C7.57766 18.5584 7.57766 19.3265 8.06885 19.8007C8.31458 20.0374 8.63582 20.1559 8.95734 20.1559C9.27953 20.1559 9.60131 20.0374 9.84677 19.8007L12.2037 17.5247L14.5622 19.8007C15.0525 20.2746 15.8484 20.2746 16.3392 19.8007C16.8311 19.3265 16.8311 18.5578 16.3392 18.0844L13.9401 15.7682Z" fill="#6E7482"/>
</svg>
