<svg width="284" height="56" viewBox="0 0 284 56" fill="none" xmlns="http://www.w3.org/2000/svg">
<g clip-path="url(#clip0)">
<path fill-rule="evenodd" clip-rule="evenodd" d="M0 28C0 12.5482 12.5136 0 27.9654 0V10.1284C18.1136 10.1284 10.1284 18.1481 10.1284 28C10.1284 37.8864 18.1481 45.8716 28 45.8716C37.8173 45.8716 45.8716 37.9556 45.8716 27.9309H56C56 43.4518 43.4864 56 28 56C12.5136 56 0 43.4519 0 28Z" fill="white"/>
<path d="M15.6593 28C15.6593 21.1555 21.2247 15.5901 28.0692 15.5901C34.9136 15.5901 40.4791 21.1555 40.4791 28C40.4791 34.879 34.9136 40.4099 28.0692 40.4099C21.2247 40.4099 15.6593 34.8444 15.6593 28Z" fill="white"/>
<path d="M36.6765 12.2716C36.6765 8.33088 39.8568 5.15063 43.7975 5.15063C47.7382 5.15063 50.9185 8.33088 50.9185 12.2716C50.9185 16.2124 47.7382 19.3926 43.7975 19.3926C39.8568 19.3926 36.6765 16.2124 36.6765 12.2716Z" fill="white"/>
<path d="M255.284 19.3234L254.42 23.5753C252.38 32.8049 251.654 35.7778 249.891 44.9728L249.511 45.3185L243.911 45.4913L243.634 45.1111L245.881 35.6395L246.538 32.5284C244.118 32.4592 241.733 32.4247 239.313 32.4247C237.447 32.4247 235.995 32.4592 234.543 32.4938C233.713 36.2271 233.022 39.4765 231.985 44.9728L231.605 45.2839L226.005 45.4568L225.728 45.0765L227.975 35.6049L228.874 31.4913C230.36 24.9926 230.637 23.5753 231.501 17.595L231.881 17.2148C234.439 16.8691 235.062 16.7654 237.689 16.2123L237.965 16.5926L237.378 19.3234L236.513 23.5753L235.615 27.5852C237.654 27.6197 239.659 27.6543 241.699 27.6543C243.842 27.6543 245.259 27.6197 247.644 27.5506C248.405 24.0247 248.716 22.1234 249.407 17.5605L249.788 17.1802C252.38 16.8346 252.968 16.7309 255.63 16.1778L255.906 16.558L255.284 19.3234Z" fill="white"/>
<path d="M187.773 31.6642C188.153 30.0741 188.43 28.4494 188.43 26.9284C188.43 21.3284 184.834 20.3951 182.795 20.3951C174.118 20.3951 173.012 33.8765 173.012 35.916C173.012 40.3407 175.674 42.2765 178.647 42.2765C184.558 42.2765 186.77 36.1926 187.773 31.6642ZM193.511 33.3926C192.301 38.163 188.913 46.3901 178.543 46.3901C171.18 46.3901 167.17 42.5876 167.17 35.0518C167.17 34.0839 167.239 33.0123 167.412 31.8716C167.447 31.5951 167.481 31.3185 167.516 31.042C169.521 18.5975 174.913 6.7753 186.77 6.6716C188.36 6.63703 191.541 6.49876 193.718 5.98024L192.889 10.9234C190.711 11.4765 187.22 11.7876 185.18 11.7876C182.691 11.8222 180.963 12.7555 179.753 13.9309C179.165 14.4839 178.681 15.1407 178.336 15.6938C177.99 16.2469 177.713 16.7654 177.541 17.1802C179.131 16.6963 180.859 16.3852 182.795 16.3852C190.02 16.3852 194.341 20.4296 194.341 27.5506C194.341 29.4518 193.995 31.4568 193.511 33.3926Z" fill="white"/>
<path d="M264.79 28.2765C266.103 27.1358 266.864 26.4099 268.696 24.6469C270.597 22.7802 275.299 17.9407 276.163 17.0074L276.785 16.6963H283.111L283.284 17.1802C282.731 17.6642 282.454 17.9062 280.242 19.7728C279.378 20.4987 278.824 21.0518 277.787 21.9852L270.632 28.5876L279.17 44.8345L278.824 45.2839L272.706 45.4568L272.257 45.1111C270.839 41.6889 270.459 40.9284 268.454 36.9185L264.583 29.1062C263.373 34.5333 262.612 37.921 261.264 45.0074L260.884 45.3531L255.284 45.5259L255.007 45.1457L257.254 35.6741L258.118 31.5605C259.605 25.0617 259.881 23.6444 260.745 17.6642L261.126 17.2839C263.718 16.9383 264.306 16.8345 266.968 16.2815L267.244 16.6617L266.657 19.3926L265.827 23.5753L264.79 28.2765Z" fill="white"/>
<path d="M216.118 38.3012C215.531 38.7852 214.909 39.3383 214.286 39.7185C212.869 40.6173 210.968 40.9975 209.481 40.9975C204.435 40.9975 203.017 36.7457 203.017 34.1185C203.017 33.842 203.121 26.721 208.928 22.7803C212.178 20.5679 215.773 20.4642 217.605 20.4642C218.435 20.4642 219.264 20.4988 220.094 20.4988L216.118 38.3012ZM226.696 16.8L226.42 16.3506L218.78 16.3161C213.699 16.3161 206.578 16.6272 201.427 22.6765C199.111 25.442 197.002 30.1778 197.002 34.5333C197.002 41.4123 201.6 45.3877 207.235 45.3877C211.936 45.3877 214.356 43.3482 215.289 42.5877L214.909 44.8L215.185 45.1803L220.37 45.0765L220.751 44.6963C221.857 38.1284 222.237 36.0198 224.173 27.5506L226.696 16.8Z" fill="white"/>
<path d="M81.0617 46.2173C75.0814 46.2173 66.4394 44.3161 69.5851 30.4889C70.7604 25.3037 74.3555 14.2766 89.116 14.2766C103.462 14.2766 101.318 26.0296 100.454 30.1778C97.7925 41.8963 90.637 46.2173 81.0617 46.2173ZM83.032 40.0988C87.2493 40.0988 89.2197 35.7087 90.4987 30.0741C91.3975 26.0988 92.3654 20.2568 87.2839 20.2568C82.9629 20.2568 81.0271 24.4049 79.7827 30.0741C78.5728 35.3284 78.2962 40.0988 83.032 40.0988Z" fill="white"/>
<path d="M116.148 45.5259C113.383 45.5259 108.82 45.5259 106.918 45.5951L106.607 45.2494C107.126 43.4173 108.439 38.4395 109.788 32.3901C110.894 27.4815 111.862 23.1605 112.242 21.1901C109.926 21.2593 106.365 21.2593 104.602 21.2938L104.291 20.879C104.741 19.3926 105.397 16.8 105.812 15.2444L106.331 14.9333C107.886 15.0025 113.728 15.037 118.464 15.037C124.168 15.037 129.733 14.9333 130.909 14.8642L131.289 15.1753C130.874 16.558 130.113 19.3926 129.733 20.8099L129.18 21.1556C126.899 21.121 125.17 21.121 121.852 21.121C121.575 22.3654 120.676 26.0642 119.19 32.6321C118.084 37.6099 117.151 42.1383 116.632 45.042L116.148 45.5259Z" fill="white"/>
<path d="M148.193 21.8815C146.326 21.8815 144.252 21.9506 143.319 21.9506C143.042 23.2296 141.901 27.9654 140.864 32.563C139.654 37.9901 138.548 43.0716 138.133 45.1802L137.58 45.5259C134.746 45.5259 131.116 45.5259 128.212 45.5951L127.901 45.2494C128.489 42.8642 130.01 36.4346 131.462 30.0049C132.914 23.5407 134.193 17.2148 134.573 15.4173L135.057 15.0025C138.168 15.0025 141.314 15.1062 149.057 15.1062C155.106 15.1062 160.983 14.9333 164.094 14.8642L164.37 15.2099C163.956 16.7654 162.227 24.1975 160.568 31.5605C159.22 37.5062 157.975 43.4173 157.664 45.1111L157.249 45.4568C154.761 45.4568 150.232 45.4568 147.847 45.5259L147.605 45.1111C148.123 43.1062 149.23 38.4395 150.543 32.6667C151.546 28.2765 152.514 23.6099 152.928 21.8815C151.961 21.9506 149.921 21.8815 148.193 21.8815Z" fill="white"/>
</g>
<defs>
<clipPath id="clip0">
<rect width="283.249" height="56" fill="white"/>
</clipPath>
</defs>
</svg>
