<svg width="50" height="50" viewBox="0 0 50 50" fill="none" xmlns="http://www.w3.org/2000/svg">
<mask id="mask0" mask-type="alpha" maskUnits="userSpaceOnUse" x="0" y="0" width="50" height="50">
<path fill-rule="evenodd" clip-rule="evenodd" d="M50 25C50 38.8071 38.8071 50 25 50C11.1929 50 0 38.8071 0 25C0 11.1929 11.1929 0 25 0C38.8071 0 50 11.1929 50 25ZM49 25C49 38.2548 38.2548 49 25 49C11.7452 49 1 38.2548 1 25C1 11.7452 11.7452 1 25 1C38.2548 1 49 11.7452 49 25Z" fill="white"/>
</mask>
<g mask="url(#mask0)">
<rect width="50" height="50" fill="#C2D1D9"/>
</g>
</svg>
