<svg width="18" height="19" viewBox="0 0 18 19" fill="none" xmlns="http://www.w3.org/2000/svg">
<path d="M17.4867 12.8492L13.5491 11.1445C13.3809 11.0721 13.1939 11.0568 13.0164 11.101C12.8389 11.1452 12.6804 11.2465 12.5647 11.3895L10.8209 13.5418C8.08423 12.2383 5.88181 10.0134 4.59149 7.24877L6.72199 5.4872C6.86391 5.37059 6.96436 5.21045 7.00813 5.03102C7.0519 4.85158 7.03661 4.66263 6.96457 4.49276L5.27705 0.51501C5.19798 0.331894 5.05815 0.182386 4.88165 0.0922667C4.70516 0.00214697 4.50307 -0.0229362 4.31023 0.0213425L0.653918 0.873717C0.467997 0.917088 0.302119 1.02284 0.183355 1.17371C0.064592 1.32458 -4.28284e-05 1.51167 2.12917e-08 1.70443C2.12917e-08 10.8142 7.30911 18.1837 16.3128 18.1837C16.5037 18.1838 16.6889 18.1185 16.8384 17.9986C16.9878 17.8786 17.0925 17.711 17.1355 17.5231L17.9792 13.8295C18.0228 13.6337 17.9974 13.4287 17.9075 13.2498C17.8176 13.0709 17.6688 12.9293 17.4867 12.8492Z" fill="#6E7482"/>
</svg>
