<svg width="28" height="28" viewBox="0 0 28 28" fill="none" xmlns="http://www.w3.org/2000/svg">
<path d="M26.8335 4.6665V11.6665H19.8335" stroke="#52AE30" stroke-width="2" stroke-linecap="round" stroke-linejoin="round"/>
<path d="M1.1665 23.3335V16.3335H8.1665" stroke="#52AE30" stroke-width="2" stroke-linecap="round" stroke-linejoin="round"/>
<path d="M4.09484 10.5002C4.68653 8.82809 5.69216 7.33314 7.01788 6.15482C8.3436 4.97651 9.94621 4.15323 11.6762 3.7618C13.4061 3.37038 15.2071 3.42357 16.9109 3.91641C18.6147 4.40924 20.166 5.32567 21.4198 6.58017L26.8332 11.6668M1.1665 16.3335L6.57984 21.4202C7.83371 22.6747 9.38494 23.5911 11.0888 24.0839C12.7926 24.5768 14.5935 24.63 16.3235 24.2385C18.0535 23.8471 19.6561 23.0238 20.9818 21.8455C22.3075 20.6672 23.3131 19.1723 23.9048 17.5002" stroke="#52AE30" stroke-width="2" stroke-linecap="round" stroke-linejoin="round"/>
</svg>
