<svg width="28" height="28" viewBox="0 0 28 28" fill="none" xmlns="http://www.w3.org/2000/svg">
<path d="M7 2.3335L3.5 7.00016V23.3335C3.5 23.9523 3.74583 24.5458 4.18342 24.9834C4.621 25.421 5.21449 25.6668 5.83333 25.6668H22.1667C22.7855 25.6668 23.379 25.421 23.8166 24.9834C24.2542 24.5458 24.5 23.9523 24.5 23.3335V7.00016L21 2.3335H7Z" stroke="#52AE30" stroke-width="2" stroke-linecap="round" stroke-linejoin="round"/>
<path d="M3.5 7H24.5" stroke="#52AE30" stroke-width="2" stroke-linecap="round" stroke-linejoin="round"/>
<path d="M18.6668 11.6665C18.6668 12.9042 18.1752 14.0912 17.3 14.9663C16.4248 15.8415 15.2378 16.3332 14.0002 16.3332C12.7625 16.3332 11.5755 15.8415 10.7003 14.9663C9.82516 14.0912 9.3335 12.9042 9.3335 11.6665" stroke="#52AE30" stroke-width="2" stroke-linecap="round" stroke-linejoin="round"/>
</svg>
