<svg width="136" height="24" viewBox="0 0 136 24" fill="none" xmlns="http://www.w3.org/2000/svg">
<path d="M134.343 0H114.381C113.19 0 112 0.54942 112 1.64826V21.6105C112 22.8009 113.19 23.9913 114.381 23.9913H134.343C135.533 23.9913 135.991 22.8009 135.991 21.7021V1.64826C136.083 0.54942 135.442 0 134.343 0ZM133.244 16.6657C133.244 18.2224 132.054 19.4128 130.589 19.4128H117.403C115.938 19.4128 114.839 18.2224 114.839 16.6657V7.41717C114.839 5.86048 115.938 4.67007 117.403 4.67007H130.589C132.054 4.67007 133.244 5.86048 133.244 7.41717V16.6657Z" fill="#6E7482"/>
<path d="M122.714 8.97388L126.835 12.0873L122.714 15.3838V8.97388Z" fill="#6E7482"/>
<path d="M24 21.8874C24 23.0401 23.0401 24 21.8874 24H2.11259C0.959854 24 0 23.0401 0 21.8874V2.11259C0 0.959854 0.959854 0 2.11259 0H21.8874C23.0401 0 24 0.959854 24 2.11259V21.8874ZM19.6542 16.6154C20.1651 16.6154 20.4294 16.369 20.2532 15.8927C20.0946 15.4164 19.4956 14.7265 18.7204 13.9053C18.2976 13.4454 17.6633 12.9362 17.4695 12.6898C17.2053 12.3613 17.2757 12.2299 17.4695 11.9343C17.4695 11.9343 19.6894 9.01068 19.9184 8.02519C20.0418 7.66384 19.9184 7.40104 19.3723 7.40104H17.5576C17.0996 7.40104 16.8881 7.63099 16.7648 7.87736C16.7648 7.87736 15.8311 9.97974 14.5273 11.343C14.1045 11.7372 13.9107 11.8686 13.6817 11.8686C13.576 11.8686 13.3998 11.7372 13.3998 11.3759V8.00876C13.3998 7.58171 13.2589 7.38462 12.8713 7.38462H10.0171C9.73526 7.38462 9.55908 7.58171 9.55908 7.77881C9.55908 8.18943 10.2109 8.28798 10.2814 9.43772V11.9343C10.2814 12.4763 10.1757 12.5749 9.94668 12.5749C9.33005 12.5749 7.83252 10.4561 6.93401 8.04161C6.75783 7.58171 6.58165 7.38462 6.12358 7.38462H4.30894C3.79802 7.38462 3.69231 7.61456 3.69231 7.86094C3.69231 8.32083 4.30894 10.5382 6.56403 13.4947C8.06156 15.5149 10.1933 16.599 12.1137 16.599C13.2765 16.599 13.4174 16.3526 13.4174 15.942V14.4145C13.4174 13.9381 13.5231 13.8396 13.8931 13.8396C14.1574 13.8396 14.6331 13.971 15.7077 14.94C16.941 16.1062 17.1524 16.6154 17.8395 16.6154H19.6542Z" fill="#6E7482"/>
<path d="M108 2.11259V21.8874C108 23.0411 107.039 24.0009 105.887 24.0009H86.1126C84.9599 24 84 23.0401 84 21.8874V2.11259C84 0.959854 84.9599 0 86.1126 0H105.887C107.04 0 108 0.959854 108 2.11259ZM105.265 6.23905C104.568 6.55169 103.849 6.76651 103.079 6.83873C103.872 6.38348 104.471 5.61469 104.759 4.75082C104.017 5.18412 103.201 5.49493 102.337 5.66222C101.617 4.89525 100.608 4.46286 99.5761 4.46286C97.4635 4.46286 95.7596 6.16683 95.7596 8.27851C95.7596 8.56738 95.7843 8.85534 95.8556 9.14238C92.8087 8.97509 89.952 7.53531 88.0085 5.15944C87.6721 5.73535 87.5039 6.40725 87.5039 7.07915C87.5039 8.35164 88.1274 9.52723 89.2079 10.2485C88.5844 10.2238 88.0085 10.0556 87.4802 9.76766V9.8161C87.4317 11.6161 88.7517 13.1765 90.5279 13.5358C90.1924 13.6308 89.856 13.6802 89.5196 13.6802C89.281 13.6802 89.0406 13.6555 88.8002 13.6089C89.3039 15.1447 90.7437 16.2234 92.3526 16.248C91.0078 17.3048 89.3523 17.8798 87.6237 17.8798C87.3357 17.8798 87.024 17.8551 86.736 17.8323C88.4638 18.9356 90.5042 19.5344 92.5683 19.5344C96.9608 19.5344 100.657 17.1576 102.432 13.1262C103.031 11.7358 103.393 10.2229 103.393 8.70999C103.393 8.54178 103.393 8.37358 103.369 8.20629C104.111 7.67883 104.759 7.00785 105.265 6.23905Z" fill="#6E7482"/>
<path d="M52 21.8874C52 23.0401 51.0401 24 49.8874 24H30.1126C28.9599 24 28 23.0401 28 21.8874V2.11259C28 0.959854 28.9599 0 30.1126 0H49.8874C51.0401 0 52 0.959854 52 2.11259V21.8874ZM40.2042 6.53215C41.1838 6.53215 41.981 7.30159 41.981 8.24747C41.981 9.1923 41.1838 9.962 40.2042 9.962C39.2249 9.962 38.4274 9.1923 38.4274 8.24747C38.4274 7.30159 39.2249 6.53215 40.2042 6.53215ZM40.2042 12.389C42.5709 12.389 44.4957 10.5314 44.4957 8.24747C44.4957 5.96251 42.5709 4.10414 40.2042 4.10414C37.8375 4.10414 35.9125 5.96251 35.9125 8.24747C35.9125 10.5314 37.8375 12.389 40.2042 12.389ZM41.9401 15.7682C42.8138 15.5761 43.6566 15.2425 44.432 14.7717C45.0197 14.4145 45.1965 13.6652 44.8265 13.0983C44.4567 12.5302 43.6808 12.3593 43.0927 12.7167C41.3351 13.7837 39.0719 13.7832 37.3151 12.7167C36.7267 12.3593 35.951 12.5302 35.5816 13.0983C35.2116 13.6657 35.3883 14.4145 35.9758 14.7717C36.7512 15.242 37.5939 15.5761 38.4671 15.7682L36.0683 18.0844C35.5777 18.5584 35.5777 19.3265 36.0688 19.8007C36.3146 20.0374 36.6358 20.1559 36.9573 20.1559C37.2795 20.1559 37.6013 20.0374 37.8468 19.8007L40.2037 17.5247L42.5622 19.8007C43.0525 20.2746 43.8484 20.2746 44.3392 19.8007C44.8311 19.3265 44.8311 18.5578 44.3392 18.0844L41.9401 15.7682Z" fill="#6E7482"/>
<path d="M79.9982 21.8857C79.9982 23.0384 79.0375 23.9982 77.8848 23.9982H58.1115C56.9607 23.9982 56 23.0384 56 21.8857V2.11335C56 0.960695 56.9607 0 58.1115 0H77.8867C79.0384 0 80 0.960695 80 2.11335V21.8857H79.9982ZM73.2486 3.11974C72.3601 2.80804 70.7285 2.76051 69.8172 2.76051C67.1536 2.76051 66.0503 4.77514 66.0503 7.19835V8.80804H64.4662V11.9982H66.0503V20.8062H69.266V11.9982H72.458V8.80804H69.266V6.91225C69.266 6.11974 70.6106 5.71207 71.2331 5.71207C71.7367 5.71207 72.2888 5.80804 72.7697 5.95338L73.2486 3.11974Z" fill="#6E7482"/>
</svg>
