<svg width="24" height="24" viewBox="0 0 24 24" fill="none" xmlns="http://www.w3.org/2000/svg">
<path d="M24 2.11259V21.8874C24 23.0411 23.0392 24.0009 21.8874 24.0009H2.11259C0.959854 24 0 23.0401 0 21.8874V2.11259C0 0.959854 0.959854 0 2.11259 0H21.8874C23.0401 0 24 0.959854 24 2.11259ZM21.2649 6.23905C20.5683 6.55169 19.8489 6.76651 19.0792 6.83873C19.8717 6.38348 20.4714 5.61469 20.7594 4.75082C20.0171 5.18412 19.2007 5.49493 18.3369 5.66222C17.6174 4.89525 16.6082 4.46286 15.5761 4.46286C13.4635 4.46286 11.7596 6.16683 11.7596 8.27851C11.7596 8.56738 11.7843 8.85534 11.8556 9.14238C8.80871 8.97509 5.95201 7.53531 4.00853 5.15944C3.67213 5.73535 3.50392 6.40725 3.50392 7.07915C3.50392 8.35164 4.12737 9.52723 5.20789 10.2485C4.58444 10.2238 4.00853 10.0556 3.48016 9.76766V9.8161C3.43171 11.6161 4.75173 13.1765 6.52792 13.5358C6.19243 13.6308 5.85602 13.6802 5.51962 13.6802C5.28102 13.6802 5.0406 13.6555 4.80018 13.6089C5.30388 15.1447 6.74366 16.2234 8.35256 16.248C7.00785 17.3048 5.35233 17.8798 3.62368 17.8798C3.33572 17.8798 3.024 17.8551 2.73604 17.8323C4.46378 18.9356 6.50415 19.5344 8.56829 19.5344C12.9608 19.5344 16.6567 17.1576 18.4319 13.1262C19.0307 11.7358 19.3927 10.2229 19.3927 8.70999C19.3927 8.54178 19.3927 8.37358 19.3689 8.20629C20.1112 7.67883 20.7593 7.00785 21.2649 6.23905Z" fill="#6E7482"/>
</svg>
