<svg width="24" height="24" viewBox="0 0 24 24" fill="none" xmlns="http://www.w3.org/2000/svg">
<path d="M24 21.8874C24 23.0401 23.0401 24 21.8874 24H2.11259C0.959854 24 0 23.0401 0 21.8874V2.11259C0 0.959854 0.959854 0 2.11259 0H21.8874C23.0401 0 24 0.959854 24 2.11259V21.8874ZM19.6542 16.6154C20.1651 16.6154 20.4294 16.369 20.2532 15.8927C20.0946 15.4164 19.4956 14.7265 18.7204 13.9053C18.2976 13.4454 17.6633 12.9362 17.4695 12.6898C17.2053 12.3613 17.2757 12.2299 17.4695 11.9343C17.4695 11.9343 19.6894 9.01068 19.9184 8.02519C20.0418 7.66384 19.9184 7.40104 19.3723 7.40104H17.5576C17.0996 7.40104 16.8881 7.63099 16.7648 7.87736C16.7648 7.87736 15.8311 9.97974 14.5273 11.343C14.1045 11.7372 13.9107 11.8686 13.6817 11.8686C13.576 11.8686 13.3998 11.7372 13.3998 11.3759V8.00876C13.3998 7.58171 13.2589 7.38462 12.8713 7.38462H10.0171C9.73526 7.38462 9.55908 7.58171 9.55908 7.77881C9.55908 8.18943 10.2109 8.28798 10.2814 9.43772V11.9343C10.2814 12.4763 10.1757 12.5749 9.94668 12.5749C9.33005 12.5749 7.83252 10.4561 6.93401 8.04161C6.75783 7.58171 6.58165 7.38462 6.12358 7.38462H4.30894C3.79802 7.38462 3.69231 7.61456 3.69231 7.86094C3.69231 8.32083 4.30894 10.5382 6.56403 13.4947C8.06156 15.5149 10.1933 16.599 12.1137 16.599C13.2765 16.599 13.4174 16.3526 13.4174 15.942V14.4145C13.4174 13.9381 13.5231 13.8396 13.8931 13.8396C14.1574 13.8396 14.6331 13.971 15.7077 14.94C16.941 16.1062 17.1524 16.6154 17.8395 16.6154H19.6542Z" fill="#6E7482"/>
</svg>
