<svg width="362" height="183" viewBox="0 0 362 183" fill="none" xmlns="http://www.w3.org/2000/svg">
<rect x="72" width="290" height="102" rx="24" fill="#52AE30"/>
<g opacity="0.22" filter="url(#filter0_f)">
<rect x="24" y="57" width="290" height="102" rx="24" fill="#52AE30"/>
</g>
<path d="M101.246 34C104.254 34 106.08 32.4766 106.08 29.9961C106.08 28.1309 104.742 26.7539 102.828 26.5684V26.4902C104.273 26.2559 105.396 24.9375 105.396 23.4238C105.396 21.2852 103.746 19.9082 101.188 19.9082H95.3379V34H101.246ZM97.8574 21.8711H100.553C102.057 21.8711 102.906 22.5645 102.906 23.7949C102.906 25.1035 101.92 25.8457 100.162 25.8457H97.8574V21.8711ZM97.8574 32.0371V27.6328H100.562C102.496 27.6328 103.512 28.3848 103.512 29.8203C103.512 31.2656 102.525 32.0371 100.67 32.0371H97.8574ZM111.607 32.3301C110.553 32.3301 109.85 31.793 109.85 30.9434C109.85 30.123 110.523 29.5957 111.695 29.5176L114.088 29.3711V30.1621C114.088 31.4121 112.984 32.3301 111.607 32.3301ZM110.875 34.166C112.203 34.166 113.502 33.4727 114.098 32.3496H114.146V34H116.49V26.8711C116.49 24.791 114.82 23.4336 112.252 23.4336C109.615 23.4336 107.965 24.8203 107.857 26.7539H110.113C110.27 25.8945 111.002 25.3379 112.154 25.3379C113.355 25.3379 114.088 25.9629 114.088 27.0469V27.7891L111.354 27.9453C108.834 28.1016 107.418 29.2051 107.418 31.041C107.418 32.9062 108.873 34.166 110.875 34.166ZM120.934 34V26.9199H121.002L123.922 33.5215H125.641L128.561 26.9199H128.639V34H130.953V23.6484H127.906L124.85 30.875H124.771L121.715 23.6484H118.619V34H120.934ZM143.834 34H146.266V23.6484H137.135V34H139.557V25.5234H143.834V34ZM154.137 23.4727C152.633 23.4727 151.461 24.2344 150.875 25.4355H150.826V23.6484H148.453V37.4082H150.885V32.2812H150.934C151.5 33.4434 152.672 34.166 154.176 34.166C156.773 34.166 158.434 32.125 158.434 28.8242C158.434 25.5137 156.764 23.4727 154.137 23.4727ZM153.395 32.1738C151.881 32.1738 150.875 30.8555 150.865 28.8242C150.875 26.8125 151.881 25.4746 153.395 25.4746C154.967 25.4746 155.943 26.7832 155.943 28.8242C155.943 30.875 154.967 32.1738 153.395 32.1738ZM164.674 25.3184C166.07 25.3184 167.008 26.3438 167.057 27.8086H162.223C162.32 26.3633 163.307 25.3184 164.674 25.3184ZM167.066 30.9043C166.803 31.7637 165.943 32.3301 164.811 32.3301C163.219 32.3301 162.203 31.2168 162.203 29.5566V29.4102H169.439V28.6191C169.439 25.4746 167.604 23.4336 164.664 23.4336C161.676 23.4336 159.781 25.5918 159.781 28.8633C159.781 32.1641 161.656 34.2051 164.762 34.2051C167.213 34.2051 169.029 32.8574 169.342 30.9043H167.066ZM177.906 32.125H173.473V32.0469C173.951 31.3633 174.186 30.3477 174.264 29.1758L174.527 25.5137H177.906V32.125ZM172.33 36.7051V34H179.674V36.7051H181.9V32.125H180.328V23.6484H172.457L172.096 29.0488C171.998 30.4453 171.686 31.6758 170.924 32.125H170.104V36.7051H172.33ZM187.818 34.2051C190.855 34.2051 192.828 32.1836 192.828 28.8242C192.828 25.4746 190.836 23.4336 187.818 23.4336C184.801 23.4336 182.809 25.4844 182.809 28.8242C182.809 32.1836 184.781 34.2051 187.818 34.2051ZM187.818 32.2812C186.275 32.2812 185.279 31.0312 185.279 28.8242C185.279 26.627 186.285 25.3672 187.818 25.3672C189.361 25.3672 190.357 26.627 190.357 28.8242C190.357 31.0312 189.361 32.2812 187.818 32.2812ZM203.629 27.0566C203.346 25.0352 201.695 23.4336 199.088 23.4336C196.08 23.4336 194.156 25.543 194.156 28.8242C194.156 32.1543 196.08 34.2051 199.107 34.2051C201.637 34.2051 203.355 32.7695 203.648 30.6016H201.344C201.07 31.6367 200.299 32.2422 199.127 32.2422C197.594 32.2422 196.607 30.9629 196.607 28.8242C196.607 26.7246 197.584 25.4062 199.117 25.4062C200.328 25.4062 201.07 26.1289 201.324 27.0566H203.629ZM213.15 23.6484H204.371V25.5234H207.555V34H209.967V25.5234H213.15V23.6484ZM218.17 32.3301C217.115 32.3301 216.412 31.793 216.412 30.9434C216.412 30.123 217.086 29.5957 218.258 29.5176L220.65 29.3711V30.1621C220.65 31.4121 219.547 32.3301 218.17 32.3301ZM217.438 34.166C218.766 34.166 220.064 33.4727 220.66 32.3496H220.709V34H223.053V26.8711C223.053 24.791 221.383 23.4336 218.814 23.4336C216.178 23.4336 214.527 24.8203 214.42 26.7539H216.676C216.832 25.8945 217.564 25.3379 218.717 25.3379C219.918 25.3379 220.65 25.9629 220.65 27.0469V27.7891L217.916 27.9453C215.396 28.1016 213.98 29.2051 213.98 31.041C213.98 32.9062 215.436 34.166 217.438 34.166ZM229.527 25.2988C230.514 25.2988 231.061 25.7578 231.061 26.5684C231.061 27.4277 230.475 27.877 229.342 27.877H227.564V25.2988H229.527ZM229.488 29.4199C230.797 29.4199 231.471 29.918 231.471 30.8848C231.471 31.832 230.836 32.3496 229.684 32.3496H227.564V29.4199H229.488ZM225.182 34H230.172C232.467 34 233.893 32.8379 233.893 31.0117C233.893 29.7129 232.975 28.7559 231.617 28.5801V28.502C232.643 28.3262 233.434 27.3594 233.434 26.2754C233.434 24.6348 232.184 23.6484 230.094 23.6484H225.182V34ZM238.873 29.1758L239.117 25.5234H242.066V34H244.488V23.6484H237.018L236.686 29.0488C236.588 30.7676 236.256 31.9785 235.25 31.9785C234.977 31.9785 234.771 31.9297 234.674 31.9004V33.9902C234.801 34.0391 235.084 34.1074 235.465 34.1074C237.896 34.1074 238.678 32.1738 238.873 29.1758ZM251.139 25.3184C252.535 25.3184 253.473 26.3438 253.521 27.8086H248.688C248.785 26.3633 249.771 25.3184 251.139 25.3184ZM253.531 30.9043C253.268 31.7637 252.408 32.3301 251.275 32.3301C249.684 32.3301 248.668 31.2168 248.668 29.5566V29.4102H255.904V28.6191C255.904 25.4746 254.068 23.4336 251.129 23.4336C248.141 23.4336 246.246 25.5918 246.246 28.8633C246.246 32.1641 248.121 34.2051 251.227 34.2051C253.678 34.2051 255.494 32.8574 255.807 30.9043H253.531ZM264.439 34H266.861V23.6484H264.439V27.7305H260.064V23.6484H257.643V34H260.064V29.6055H264.439V34ZM99.8203 52.4824L104.205 47.6484H101.373L97.584 51.9648H97.5059V47.6484H95.084V58H97.5059V53.3711H97.584L101.432 58H104.41L99.8203 52.4824ZM111.344 47.4727C109.84 47.4727 108.668 48.2344 108.082 49.4355H108.033V47.6484H105.66V61.4082H108.092V56.2812H108.141C108.707 57.4434 109.879 58.166 111.383 58.166C113.98 58.166 115.641 56.125 115.641 52.8242C115.641 49.5137 113.971 47.4727 111.344 47.4727ZM110.602 56.1738C109.088 56.1738 108.082 54.8555 108.072 52.8242C108.082 50.8125 109.088 49.4746 110.602 49.4746C112.174 49.4746 113.15 50.7832 113.15 52.8242C113.15 54.875 112.174 56.1738 110.602 56.1738ZM121.881 49.3184C123.277 49.3184 124.215 50.3438 124.264 51.8086H119.43C119.527 50.3633 120.514 49.3184 121.881 49.3184ZM124.273 54.9043C124.01 55.7637 123.15 56.3301 122.018 56.3301C120.426 56.3301 119.41 55.2168 119.41 53.5566V53.4102H126.646V52.6191C126.646 49.4746 124.811 47.4336 121.871 47.4336C118.883 47.4336 116.988 49.5918 116.988 52.8633C116.988 56.1641 118.863 58.2051 121.969 58.2051C124.42 58.2051 126.236 56.8574 126.549 54.9043H124.273ZM135.113 56.125H130.68V56.0469C131.158 55.3633 131.393 54.3477 131.471 53.1758L131.734 49.5137H135.113V56.125ZM129.537 60.7051V58H136.881V60.7051H139.107V56.125H137.535V47.6484H129.664L129.303 53.0488C129.205 54.4453 128.893 55.6758 128.131 56.125H127.311V60.7051H129.537ZM142.857 58L147.359 51.0371H147.438V58H149.82V47.6484H147.438L142.936 54.5625H142.857V47.6484H140.475V58H142.857ZM160.104 47.6484H151.324V49.5234H154.508V58H156.92V49.5234H160.104V47.6484ZM168.404 58H170.826V47.6484H168.404V51.7305H164.029V47.6484H161.607V58H164.029V53.6055H168.404V58ZM182.516 58H184.928V47.6484H182.516V58ZM177.125 52.5996C178.248 52.5996 178.99 53.3027 178.99 54.3672C178.99 55.4219 178.258 56.1348 177.125 56.1348H175.436V52.5996H177.125ZM173.014 58H177.438C179.85 58 181.402 56.5938 181.402 54.377C181.402 52.1602 179.85 50.7539 177.438 50.7539H175.436V47.6484H173.014V58ZM189.479 58L193.98 51.0371H194.059V58H196.441V47.6484H194.059L189.557 54.5625H189.479V47.6484H187.096V58H189.479ZM188.561 43.0293C188.561 44.9141 189.898 46.1738 191.891 46.1738C193.883 46.1738 195.221 44.9141 195.221 43.0293H193.658C193.648 44.1133 192.965 44.9141 191.891 44.9141C190.816 44.9141 190.133 44.1133 190.123 43.0293H188.561ZM206.041 53.1758L206.285 49.5234H209.234V58H211.656V47.6484H204.186L203.854 53.0488C203.756 54.7676 203.424 55.9785 202.418 55.9785C202.145 55.9785 201.939 55.9297 201.842 55.9004V57.9902C201.969 58.0391 202.252 58.1074 202.633 58.1074C205.064 58.1074 205.846 56.1738 206.041 53.1758ZM216.217 58L220.719 51.0371H220.797V58H223.18V47.6484H220.797L216.295 54.5625H216.217V47.6484H213.834V58H216.217ZM227.672 58V50.9199H227.74L230.66 57.5215H232.379L235.299 50.9199H235.377V58H237.691V47.6484H234.645L231.588 54.875H231.51L228.453 47.6484H225.357V58H227.672ZM242.252 58L246.754 51.0371H246.832V58H249.215V47.6484H246.832L242.33 54.5625H242.252V47.6484H239.869V58H242.252ZM259.498 47.6484H250.719V49.5234H253.902V58H256.314V49.5234H259.498V47.6484ZM271.803 58H274.225V47.6484H271.803V51.7305H267.428V47.6484H265.006V58H267.428V53.6055H271.803V58ZM280.201 56.3301C279.146 56.3301 278.443 55.793 278.443 54.9434C278.443 54.123 279.117 53.5957 280.289 53.5176L282.682 53.3711V54.1621C282.682 55.4121 281.578 56.3301 280.201 56.3301ZM279.469 58.166C280.797 58.166 282.096 57.4727 282.691 56.3496H282.74V58H285.084V50.8711C285.084 48.791 283.414 47.4336 280.846 47.4336C278.209 47.4336 276.559 48.8203 276.451 50.7539H278.707C278.863 49.8945 279.596 49.3379 280.748 49.3379C281.949 49.3379 282.682 49.9629 282.682 51.0469V51.7891L279.947 51.9453C277.428 52.1016 276.012 53.2051 276.012 55.041C276.012 56.9062 277.467 58.166 279.469 58.166ZM101.783 82H104.215V71.6484H95.084V82H97.5059V73.5234H101.783V82ZM110.982 82.2051C114.02 82.2051 115.992 80.1836 115.992 76.8242C115.992 73.4746 114 71.4336 110.982 71.4336C107.965 71.4336 105.973 73.4844 105.973 76.8242C105.973 80.1836 107.945 82.2051 110.982 82.2051ZM110.982 80.2812C109.439 80.2812 108.443 79.0312 108.443 76.8242C108.443 74.627 109.449 73.3672 110.982 73.3672C112.525 73.3672 113.521 74.627 113.521 76.8242C113.521 79.0312 112.525 80.2812 110.982 80.2812ZM122.477 76.4824L126.861 71.6484H124.029L120.24 75.9648H120.162V71.6484H117.74V82H120.162V77.3711H120.24L124.088 82H127.066L122.477 76.4824ZM129.273 85.8477C131.637 85.8477 132.779 84.9785 133.668 82.4102L137.408 71.6484H134.85L132.408 79.9297H132.369L129.928 71.6484H127.271L130.953 82.0098C130.963 82.0391 130.816 82.5566 130.816 82.5859C130.543 83.543 130.025 83.9238 129.02 83.9238C128.873 83.9238 128.443 83.9141 128.316 83.8848V85.8086C128.443 85.8379 129.137 85.8477 129.273 85.8477ZM145.455 82H147.887V71.6484H138.756V82H141.178V73.5234H145.455V82ZM154.801 76.4824L159.186 71.6484H156.354L152.564 75.9648H152.486V71.6484H150.064V82H152.486V77.3711H152.564L156.412 82H159.391L154.801 76.4824ZM163.014 82L167.516 75.0371H167.594V82H169.977V71.6484H167.594L163.092 78.5625H163.014V71.6484H160.631V82H163.014ZM173.766 82.1074C174.547 82.1074 175.162 81.4922 175.162 80.7012C175.162 79.9199 174.547 79.2949 173.766 79.2949C172.975 79.2949 172.359 79.9199 172.359 80.7012C172.359 81.4922 172.975 82.1074 173.766 82.1074Z" fill="white"/>
<path d="M114 85H156L135.21 106.21L114 127V85Z" fill="#52AE30"/>
<defs>
<filter id="filter0_f" x="0" y="33" width="338" height="150" filterUnits="userSpaceOnUse" color-interpolation-filters="sRGB">
<feFlood flood-opacity="0" result="BackgroundImageFix"/>
<feBlend mode="normal" in="SourceGraphic" in2="BackgroundImageFix" result="shape"/>
<feGaussianBlur stdDeviation="12" result="effect1_foregroundBlur"/>
</filter>
</defs>
</svg>
