<svg width="337" height="172" viewBox="0 0 337 172" fill="none" xmlns="http://www.w3.org/2000/svg">
<rect x="68.4478" width="268.552" height="94.4563" rx="24" fill="#52AE30"/>
<g opacity="0.22" filter="url(#filter0_f)">
<rect x="24" y="52.7847" width="268.552" height="94.4563" rx="24" fill="#52AE30"/>
</g>
<path d="M90.7949 53.7466C92.8936 53.7466 94.1377 52.7144 94.1377 50.978C94.1377 49.6655 93.2764 48.7222 91.9365 48.5513V48.4966C92.8867 48.3257 93.6387 47.3687 93.6387 46.3433C93.6387 44.8667 92.4971 43.8823 90.8086 43.8823H87.0693V53.7466H90.7949ZM88.2998 44.9692H90.5283C91.7246 44.9692 92.3945 45.5093 92.3945 46.4868C92.3945 47.5532 91.6016 48.1343 90.1455 48.1343H88.2998V44.9692ZM88.2998 52.6597V49.1938H90.4941C92.0664 49.1938 92.873 49.7749 92.873 50.9165C92.873 52.0581 92.0938 52.6597 90.6104 52.6597H88.2998ZM97.8291 52.8579C96.9746 52.8579 96.4072 52.4136 96.4072 51.7368C96.4072 51.0669 96.9541 50.6431 97.9111 50.5815L99.8115 50.4653V51.0464C99.8115 52.0718 98.9502 52.8579 97.8291 52.8579ZM97.5625 53.8696C98.5195 53.8696 99.4219 53.3364 99.8457 52.5229H99.873V53.7466H101.001V48.8315C101.001 47.4165 99.9482 46.5142 98.2803 46.5142C96.5986 46.5142 95.5459 47.4575 95.4639 48.688H96.6123C96.7627 47.9907 97.3369 47.5601 98.2529 47.5601C99.2373 47.5601 99.8115 48.0796 99.8115 48.9478V49.5425L97.7744 49.6587C96.1338 49.7544 95.1973 50.52 95.1973 51.7368C95.1973 53.0151 96.1475 53.8696 97.5625 53.8696ZM103.817 53.7466V48.7017H103.865L106.162 53.5415H107.071L109.368 48.7017H109.416V53.7466H110.599V46.6372H109.211L106.668 52.1743H106.613L104.084 46.6372H102.642V53.7466H103.817ZM119.752 53.7466H120.935V46.6372H115.138V53.7466H116.313V47.6147H119.752V53.7466ZM126.062 46.5142C125.029 46.5142 124.202 47.0405 123.765 47.8403H123.737V46.6372H122.609V56.1187H123.799V52.5913H123.826C124.25 53.3706 125.07 53.8696 126.089 53.8696C127.88 53.8696 129.104 52.4204 129.104 50.1919C129.104 47.9634 127.873 46.5142 126.062 46.5142ZM125.829 52.8237C124.612 52.8237 123.792 51.7778 123.792 50.1919C123.792 48.6128 124.612 47.5601 125.829 47.5601C127.094 47.5601 127.887 48.5854 127.887 50.1919C127.887 51.8052 127.094 52.8237 125.829 52.8237ZM133.28 47.5464C134.401 47.5464 135.146 48.394 135.174 49.5835H131.312C131.387 48.4009 132.166 47.5464 133.28 47.5464ZM135.146 51.7095C134.948 52.3794 134.285 52.8374 133.383 52.8374C132.104 52.8374 131.305 51.9419 131.305 50.5815V50.5132H136.404V50.062C136.404 47.9087 135.222 46.5142 133.301 46.5142C131.339 46.5142 130.081 48.0112 130.081 50.2192C130.081 52.4546 131.318 53.8696 133.355 53.8696C134.907 53.8696 136.11 52.9536 136.315 51.7095H135.146ZM142.304 52.769H138.838V52.7144C139.173 52.2632 139.357 51.4907 139.419 50.6089L139.638 47.6147H142.304V52.769ZM137.99 55.6265V53.7466H143.507V55.6265H144.614V52.769H143.486V46.6372H138.592L138.318 50.5815C138.25 51.5386 137.997 52.4272 137.478 52.769H136.883V55.6265H137.99ZM148.634 53.8696C150.596 53.8696 151.922 52.4546 151.922 50.1919C151.922 47.9224 150.596 46.5142 148.634 46.5142C146.665 46.5142 145.339 47.9224 145.339 50.1919C145.339 52.4546 146.665 53.8696 148.634 53.8696ZM148.634 52.8237C147.376 52.8237 146.549 51.8667 146.549 50.1919C146.549 48.5171 147.376 47.5601 148.634 47.5601C149.892 47.5601 150.712 48.5171 150.712 50.1919C150.712 51.8667 149.892 52.8237 148.634 52.8237ZM159.127 48.8247C158.915 47.6147 157.869 46.5142 156.153 46.5142C154.185 46.5142 152.899 47.9771 152.899 50.1919C152.899 52.4546 154.191 53.8696 156.167 53.8696C157.767 53.8696 158.908 52.9194 159.141 51.5728H157.965C157.739 52.3589 157.117 52.8237 156.174 52.8237C154.937 52.8237 154.109 51.8188 154.109 50.1919C154.109 48.606 154.923 47.5601 156.16 47.5601C157.165 47.5601 157.746 48.1411 157.951 48.8247H159.127ZM165.443 46.6372H159.674V47.6147H161.971V53.7466H163.146V47.6147H165.443V46.6372ZM168.622 52.8579C167.768 52.8579 167.2 52.4136 167.2 51.7368C167.2 51.0669 167.747 50.6431 168.704 50.5815L170.604 50.4653V51.0464C170.604 52.0718 169.743 52.8579 168.622 52.8579ZM168.355 53.8696C169.312 53.8696 170.215 53.3364 170.639 52.5229H170.666V53.7466H171.794V48.8315C171.794 47.4165 170.741 46.5142 169.073 46.5142C167.392 46.5142 166.339 47.4575 166.257 48.688H167.405C167.556 47.9907 168.13 47.5601 169.046 47.5601C170.03 47.5601 170.604 48.0796 170.604 48.9478V49.5425L168.567 49.6587C166.927 49.7544 165.99 50.52 165.99 51.7368C165.99 53.0151 166.94 53.8696 168.355 53.8696ZM176.312 47.6011C177.058 47.6011 177.461 47.9497 177.461 48.5786C177.461 49.2622 177.03 49.5903 176.135 49.5903H174.61V47.6011H176.312ZM176.23 50.5474C177.27 50.5474 177.769 50.9165 177.769 51.6753C177.769 52.3931 177.304 52.7827 176.442 52.7827H174.61V50.5474H176.23ZM173.435 53.7466H176.497C178.008 53.7466 178.938 52.9604 178.938 51.7026C178.938 50.814 178.35 50.1646 177.454 50.0415V49.9868C178.11 49.8501 178.623 49.1802 178.623 48.4556C178.623 47.3276 177.81 46.6372 176.477 46.6372H173.435V53.7466ZM182.062 50.6089L182.28 47.6147H184.7V53.7466H185.876V46.6372H181.221L180.947 50.5815C180.858 51.8872 180.592 52.7144 179.888 52.7144C179.717 52.7144 179.587 52.6802 179.525 52.6597V53.7329C179.607 53.7671 179.744 53.8081 179.949 53.8081C181.446 53.8081 181.918 52.5708 182.062 50.6089ZM190.415 47.5464C191.536 47.5464 192.281 48.394 192.309 49.5835H188.446C188.521 48.4009 189.301 47.5464 190.415 47.5464ZM192.281 51.7095C192.083 52.3794 191.42 52.8374 190.518 52.8374C189.239 52.8374 188.439 51.9419 188.439 50.5815V50.5132H193.539V50.062C193.539 47.9087 192.356 46.5142 190.436 46.5142C188.474 46.5142 187.216 48.0112 187.216 50.2192C187.216 52.4546 188.453 53.8696 190.49 53.8696C192.042 53.8696 193.245 52.9536 193.45 51.7095H192.281ZM199.541 53.7466H200.717V46.6372H199.541V49.5698H196.034V46.6372H194.858V53.7466H196.034V50.5474H199.541V53.7466ZM207.676 50.0005L210.998 46.6372H209.528L206.493 49.7817H206.438V46.6372H205.263V53.7466H206.438V50.3286H206.493L209.562 53.7466H211.094L207.676 50.0005ZM215.544 46.5142C214.512 46.5142 213.685 47.0405 213.247 47.8403H213.22V46.6372H212.092V56.1187H213.281V52.5913H213.309C213.732 53.3706 214.553 53.8696 215.571 53.8696C217.362 53.8696 218.586 52.4204 218.586 50.1919C218.586 47.9634 217.355 46.5142 215.544 46.5142ZM215.312 52.8237C214.095 52.8237 213.274 51.7778 213.274 50.1919C213.274 48.6128 214.095 47.5601 215.312 47.5601C216.576 47.5601 217.369 48.5854 217.369 50.1919C217.369 51.8052 216.576 52.8237 215.312 52.8237ZM222.763 47.5464C223.884 47.5464 224.629 48.394 224.656 49.5835H220.794C220.869 48.4009 221.648 47.5464 222.763 47.5464ZM224.629 51.7095C224.431 52.3794 223.768 52.8374 222.865 52.8374C221.587 52.8374 220.787 51.9419 220.787 50.5815V50.5132H225.887V50.062C225.887 47.9087 224.704 46.5142 222.783 46.5142C220.821 46.5142 219.563 48.0112 219.563 50.2192C219.563 52.4546 220.801 53.8696 222.838 53.8696C224.39 53.8696 225.593 52.9536 225.798 51.7095H224.629ZM231.786 52.769H228.32V52.7144C228.655 52.2632 228.84 51.4907 228.901 50.6089L229.12 47.6147H231.786V52.769ZM227.473 55.6265V53.7466H232.989V55.6265H234.097V52.769H232.969V46.6372H228.074L227.801 50.5815C227.732 51.5386 227.479 52.4272 226.96 52.769H226.365V55.6265H227.473ZM236.339 53.7466L239.894 48.4556H239.948V53.7466H241.124V46.6372H239.948L236.394 51.9282H236.339V46.6372H235.163V53.7466H236.339ZM247.994 46.6372H242.225V47.6147H244.521V53.7466H245.697V47.6147H247.994V46.6372ZM253.777 53.7466H254.953V46.6372H253.777V49.5698H250.271V46.6372H249.095V53.7466H250.271V50.5474H253.777V53.7466ZM262.712 53.7466H263.888V46.6372H262.712V53.7466ZM259.13 49.8843C260.046 49.8843 260.647 50.4517 260.647 51.3267C260.647 52.1948 260.053 52.769 259.13 52.769H257.804V49.8843H259.13ZM256.628 53.7466H259.15C260.777 53.7466 261.823 52.8101 261.823 51.3267C261.823 49.8433 260.777 48.9067 259.15 48.9067H257.804V46.6372H256.628V53.7466ZM266.731 53.7466L270.286 48.4556H270.341V53.7466H271.517V46.6372H270.341L266.786 51.9282H266.731V46.6372H265.556V53.7466H266.731ZM266.465 43.561C266.465 44.8188 267.36 45.6802 268.666 45.6802C269.972 45.6802 270.867 44.8188 270.867 43.561H269.992C269.992 44.354 269.479 44.9761 268.666 44.9761C267.853 44.9761 267.34 44.354 267.34 43.561H266.465ZM277.956 50.6089L278.175 47.6147H280.595V53.7466H281.771V46.6372H277.115L276.842 50.5815C276.753 51.8872 276.486 52.7144 275.782 52.7144C275.611 52.7144 275.481 52.6802 275.42 52.6597V53.7329C275.502 53.7671 275.639 53.8081 275.844 53.8081C277.341 53.8081 277.812 52.5708 277.956 50.6089ZM284.628 53.7466L288.183 48.4556H288.237V53.7466H289.413V46.6372H288.237L284.683 51.9282H284.628V46.6372H283.452V53.7466H284.628ZM292.257 53.7466V48.7017H292.305L294.602 53.5415H295.511L297.808 48.7017H297.855V53.7466H299.038V46.6372H297.65L295.107 52.1743H295.053L292.523 46.6372H291.081V53.7466H292.257ZM301.882 53.7466L305.437 48.4556H305.491V53.7466H306.667V46.6372H305.491L301.937 51.9282H301.882V46.6372H300.706V53.7466H301.882ZM313.537 46.6372H307.768V47.6147H310.064V53.7466H311.24V47.6147H313.537V46.6372ZM91.5605 70.7466H92.7363V63.6372H91.5605V66.5698H88.0537V63.6372H86.8779V70.7466H88.0537V67.5474H91.5605V70.7466ZM96.7627 69.8579C95.9082 69.8579 95.3408 69.4136 95.3408 68.7368C95.3408 68.0669 95.8877 67.6431 96.8447 67.5815L98.7451 67.4653V68.0464C98.7451 69.0718 97.8838 69.8579 96.7627 69.8579ZM96.4961 70.8696C97.4531 70.8696 98.3555 70.3364 98.7793 69.5229H98.8066V70.7466H99.9346V65.8315C99.9346 64.4165 98.8818 63.5142 97.2139 63.5142C95.5322 63.5142 94.4795 64.4575 94.3975 65.688H95.5459C95.6963 64.9907 96.2705 64.5601 97.1865 64.5601C98.1709 64.5601 98.7451 65.0796 98.7451 65.9478V66.5425L96.708 66.6587C95.0674 66.7544 94.1309 67.52 94.1309 68.7368C94.1309 70.0151 95.0811 70.8696 96.4961 70.8696ZM109.061 70.7466H110.243V63.6372H104.446V70.7466H105.622V64.6147H109.061V70.7466ZM114.864 70.8696C116.826 70.8696 118.152 69.4546 118.152 67.1919C118.152 64.9224 116.826 63.5142 114.864 63.5142C112.896 63.5142 111.569 64.9224 111.569 67.1919C111.569 69.4546 112.896 70.8696 114.864 70.8696ZM114.864 69.8237C113.606 69.8237 112.779 68.8667 112.779 67.1919C112.779 65.5171 113.606 64.5601 114.864 64.5601C116.122 64.5601 116.942 65.5171 116.942 67.1919C116.942 68.8667 116.122 69.8237 114.864 69.8237ZM121.885 67.0005L125.207 63.6372H123.737L120.702 66.7817H120.647V63.6372H119.472V70.7466H120.647V67.3286H120.702L123.771 70.7466H125.303L121.885 67.0005ZM126.752 73.4058C128.037 73.4058 128.625 72.9067 129.233 71.2456L132.029 63.6372H130.778L128.81 69.5571H128.789L126.82 63.6372H125.549L128.174 70.7534L128.01 71.2524C127.736 72.0796 127.367 72.4009 126.704 72.4009C126.554 72.4009 126.369 72.394 126.239 72.3667V73.3647C126.369 73.3921 126.608 73.4058 126.752 73.4058ZM137.703 70.7466H138.886V63.6372H133.089V70.7466H134.265V64.6147H137.703V70.7466ZM142.967 67.0005L146.289 63.6372H144.819L141.784 66.7817H141.729V63.6372H140.554V70.7466H141.729V67.3286H141.784L144.854 70.7466H146.385L142.967 67.0005ZM148.552 70.7466L152.106 65.4556H152.161V70.7466H153.337V63.6372H152.161L148.606 68.9282H148.552V63.6372H147.376V70.7466H148.552ZM155.948 70.8149C156.386 70.8149 156.728 70.4731 156.728 70.0356C156.728 69.5981 156.386 69.2563 155.948 69.2563C155.511 69.2563 155.169 69.5981 155.169 70.0356C155.169 70.4731 155.511 70.8149 155.948 70.8149Z" fill="white"/>
<path d="M86.791 22.9478V22.9917H89.252V22.9478C89.252 21.7788 90.1572 20.9175 91.3877 20.9175C92.5654 20.9175 93.4004 21.6733 93.4004 22.6226C93.4004 23.5015 93.0049 24.1431 91.7217 25.4263L86.9404 30.0317V31.8159H96.1602V29.7065H90.4385V29.6538L93.5322 26.6743C94.9297 25.2856 95.9844 24.0991 95.9844 22.5171C95.9844 20.3989 94.1475 18.8521 91.4756 18.8521C88.707 18.8521 86.791 20.5483 86.791 22.9478ZM97.6543 22.9478V22.9917H100.115V22.9478C100.115 21.7788 101.021 20.9175 102.251 20.9175C103.429 20.9175 104.264 21.6733 104.264 22.6226C104.264 23.5015 103.868 24.1431 102.585 25.4263L97.8037 30.0317V31.8159H107.023V29.7065H101.302V29.6538L104.396 26.6743C105.793 25.2856 106.848 24.0991 106.848 22.5171C106.848 20.3989 105.011 18.8521 102.339 18.8521C99.5703 18.8521 97.6543 20.5483 97.6543 22.9478ZM113.545 32.0972C116.454 32.0972 118.44 30.269 118.44 27.5796C118.44 25.1099 116.7 23.3257 114.274 23.3257C112.982 23.3257 111.972 23.8618 111.453 24.7144H111.4L111.69 21.2427H117.676V19.1333H109.607L108.983 26.4282H111.356C111.796 25.6987 112.622 25.2593 113.58 25.2593C114.951 25.2593 115.909 26.2437 115.909 27.6499C115.909 29.0298 114.951 29.9966 113.562 29.9966C112.332 29.9966 111.383 29.2583 111.233 28.186H108.781C108.86 30.48 110.82 32.0972 113.545 32.0972ZM128.451 32.0972C131.642 32.0972 133.575 29.5396 133.575 25.4438C133.575 21.3481 131.624 18.8433 128.451 18.8433C125.278 18.8433 123.318 21.3569 123.318 25.4526C123.318 29.5571 125.261 32.0972 128.451 32.0972ZM128.451 29.9702C126.939 29.9702 126.017 28.3354 126.017 25.4526C126.017 22.5962 126.957 20.9702 128.451 20.9702C129.954 20.9702 130.877 22.5874 130.877 25.4526C130.877 28.3442 129.963 29.9702 128.451 29.9702ZM140.176 32.0972C143.366 32.0972 145.3 29.5396 145.3 25.4438C145.3 21.3481 143.349 18.8433 140.176 18.8433C137.003 18.8433 135.043 21.3569 135.043 25.4526C135.043 29.5571 136.985 32.0972 140.176 32.0972ZM140.176 29.9702C138.664 29.9702 137.741 28.3354 137.741 25.4526C137.741 22.5962 138.682 20.9702 140.176 20.9702C141.679 20.9702 142.602 22.5874 142.602 25.4526C142.602 28.3442 141.688 29.9702 140.176 29.9702ZM151.9 32.0972C155.091 32.0972 157.024 29.5396 157.024 25.4438C157.024 21.3481 155.073 18.8433 151.9 18.8433C148.728 18.8433 146.768 21.3569 146.768 25.4526C146.768 29.5571 148.71 32.0972 151.9 32.0972ZM151.9 29.9702C150.389 29.9702 149.466 28.3354 149.466 25.4526C149.466 22.5962 150.406 20.9702 151.9 20.9702C153.403 20.9702 154.326 22.5874 154.326 25.4526C154.326 28.3442 153.412 29.9702 151.9 29.9702ZM160.048 34.5933L161.226 29.6362H158.782L158.123 34.5933H160.048ZM167.932 32.0972C171.122 32.0972 173.056 29.5396 173.056 25.4438C173.056 21.3481 171.104 18.8433 167.932 18.8433C164.759 18.8433 162.799 21.3569 162.799 25.4526C162.799 29.5571 164.741 32.0972 167.932 32.0972ZM167.932 29.9702C166.42 29.9702 165.497 28.3354 165.497 25.4526C165.497 22.5962 166.438 20.9702 167.932 20.9702C169.435 20.9702 170.357 22.5874 170.357 25.4526C170.357 28.3442 169.443 29.9702 167.932 29.9702ZM179.656 32.0972C182.847 32.0972 184.78 29.5396 184.78 25.4438C184.78 21.3481 182.829 18.8433 179.656 18.8433C176.483 18.8433 174.523 21.3569 174.523 25.4526C174.523 29.5571 176.466 32.0972 179.656 32.0972ZM179.656 29.9702C178.145 29.9702 177.222 28.3354 177.222 25.4526C177.222 22.5962 178.162 20.9702 179.656 20.9702C181.159 20.9702 182.082 22.5874 182.082 25.4526C182.082 28.3442 181.168 29.9702 179.656 29.9702ZM193.824 21.2427H195.371C196.892 21.2427 197.691 21.9985 197.691 23.2202C197.691 24.4507 196.892 25.2065 195.354 25.2065H193.824V21.2427ZM197.261 30.1196V28.4849H193.824V27.228H196.021C198.614 27.228 200.381 25.5405 200.381 23.1938C200.381 20.8208 198.702 19.1333 196.162 19.1333H191.17V25.2417H189.579V27.1841H191.17V28.4849H189.579V30.1196H191.17V31.8159H193.824V30.1196H197.261Z" fill="white"/>
<path fill-rule="evenodd" clip-rule="evenodd" d="M318.706 18.2954C318.344 17.9337 317.758 17.9337 317.396 18.2954L314.777 20.9149L312.157 18.2954C311.796 17.9337 311.209 17.9337 310.848 18.2954C310.486 18.657 310.486 19.2434 310.848 19.605L313.467 22.2245L310.848 24.8435C310.487 25.2051 310.487 25.7914 310.848 26.1531C311.21 26.5147 311.796 26.5147 312.158 26.1531L314.777 23.5342L317.396 26.1531C317.757 26.5147 318.344 26.5147 318.705 26.1531C319.067 25.7915 319.067 25.2051 318.705 24.8435L316.086 22.2245L318.706 19.605C319.068 19.2433 319.068 18.657 318.706 18.2954Z" fill="white"/>
<defs>
<filter id="filter0_f" x="0" y="28.7847" width="316.552" height="142.456" filterUnits="userSpaceOnUse" color-interpolation-filters="sRGB">
<feFlood flood-opacity="0" result="BackgroundImageFix"/>
<feBlend mode="normal" in="SourceGraphic" in2="BackgroundImageFix" result="shape"/>
<feGaussianBlur stdDeviation="12" result="effect1_foregroundBlur"/>
</filter>
</defs>
</svg>
