<svg width="30" height="32" viewBox="0 0 30 32" fill="none" xmlns="http://www.w3.org/2000/svg">
<path d="M12.5 27H1.5" stroke="#52AE30" stroke-width="2" stroke-linecap="round" stroke-linejoin="round"/>
<path d="M1.5 17.0002H6.5C6.95365 16.9487 7.37165 16.7294 7.672 16.3856L13.072 11.0669L18.1773 12.0882C18.5224 12.1566 18.8243 12.3634 19.0126 12.6606C19.2008 12.9577 19.2589 13.3191 19.1733 13.6602L19.0667 14.0842C18.9403 14.5921 18.5183 14.9725 18 15.0456L15.4987 15.4082C15.1947 15.4386 14.9162 15.5916 14.7275 15.8319C14.5388 16.0722 14.4561 16.379 14.4987 16.6816V20.0909C14.415 20.4795 14.2095 20.8312 13.912 21.0949L11.1427 23.2856" stroke="#52AE30" stroke-width="2" stroke-linecap="round" stroke-linejoin="round"/>
<path fill-rule="evenodd" clip-rule="evenodd" d="M28.4998 24.6667C28.5124 25.3895 27.9373 25.9861 27.2144 26H25.2851C24.3518 26 23.7638 25.932 23.3571 24.6667C22.7437 21.5838 22.3145 18.4672 22.0718 15.3333C22.0718 14.6667 22.7144 14 23.9998 14H27.2144C27.9373 14.0139 28.5124 14.6105 28.4998 15.3333V24.6667Z" stroke="#52AE30" stroke-width="2" stroke-linecap="round" stroke-linejoin="round"/>
<path d="M26.5 26V29C26.5 30.1046 25.6046 31 24.5 31H14.5C13.3954 31 12.5 30.1046 12.5 29V27" stroke="#52AE30" stroke-width="2" stroke-linecap="round" stroke-linejoin="round"/>
<path d="M12.5 11.6333V8C12.5 6.89543 13.3954 6 14.5 6H24.5C25.6046 6 26.5 6.89543 26.5 8V14" stroke="#52AE30" stroke-width="2" stroke-linecap="round" stroke-linejoin="round"/>
<path d="M7.0424 1C4.06887 2.59353 2.34649 5.81995 2.67707 9.17733" stroke="#52AE30" stroke-width="2" stroke-linecap="round" stroke-linejoin="round"/>
<path d="M9.14127 3.7334C7.08114 4.83654 5.88821 7.07189 6.1186 9.3974" stroke="#52AE30" stroke-width="2" stroke-linecap="round" stroke-linejoin="round"/>
</svg>
