<svg width="24" height="24" viewBox="0 0 24 24" fill="none" xmlns="http://www.w3.org/2000/svg">
<path d="M22.3431 0H2.38082C1.19041 0 0 0.54942 0 1.64826V21.6105C0 22.8009 1.19041 23.9913 2.38082 23.9913H22.3431C23.5335 23.9913 23.9913 22.8009 23.9913 21.7021V1.64826C24.0829 0.54942 23.4419 0 22.3431 0ZM21.2442 16.6657C21.2442 18.2224 20.0538 19.4128 18.5887 19.4128H5.40263C3.93751 19.4128 2.83867 18.2224 2.83867 16.6657V7.41717C2.83867 5.86048 3.93751 4.67007 5.40263 4.67007H18.5887C20.0538 4.67007 21.2442 5.86048 21.2442 7.41717V16.6657Z" fill="#6E7482"/>
<path d="M10.7139 8.97388L14.8345 12.0873L10.7139 15.3838V8.97388Z" fill="#6E7482"/>
</svg>
